<svg id="Layer_1" data-name="Layer 1" xmlns="http://www.w3.org/2000/svg" viewBox="0 0 1920 1080">
  <defs>
    <style>
      .cls-1, .cls-3 {
        fill: #f0f1ff;
      }

      .cls-2 {
        fill: #f2f2f2;
        stroke-width: 2px;
      }

      .cls-11, .cls-13, .cls-2, .cls-20, .cls-21, .cls-3 {
        stroke: #000;
      }

      .cls-13, .cls-2, .cls-20, .cls-21, .cls-3 {
        stroke-miterlimit: 10;
      }

      .cls-4 {
        fill: #eaf1ff;
      }

      .cls-5 {
        fill: #fffcf0;
      }

      .cls-6 {
        isolation: isolate;
      }

      .cls-7 {
        fill: #fff5bf;
      }

      .cls-13, .cls-20, .cls-8 {
        fill: #ffe3bf;
      }

      .cls-9 {
        fill: #c8d7ff;
      }

      .cls-10 {
        fill: #b4e0ff;
      }

      .cls-11 {
        stroke-miterlimit: 10;
        stroke-width: 0.25px;
      }

      .cls-12 {
        fill: #ffbfe1;
      }

      .cls-13 {
        stroke-width: 0.25px;
      }

      .cls-14 {
        fill: #fff;
      }

      .cls-15 {
        fill: #dbccc1;
      }

      .cls-16 {
        fill: #f7f3f0;
      }

      .cls-17 {
        fill: #f42548;
      }

      .cls-18 {
        fill: #b3d9dd;
      }

      .cls-19 {
        fill: #efe7bf;
      }

      .cls-20 {
        stroke-width: 0.1px;
      }

      .cls-21 {
        fill: none;
      }
    </style>
  </defs>
  <g>
    <rect class="cls-1" x="0.5" y="0.5" width="1919" height="1079"/>
    <path d="M1919,1V1079H1V1H1919m1-1H0V1080H1920Z"/>
  </g>
  <polygon class="cls-2" points="457.22 718.56 463.27 716 462.11 721.43 467 725.27 460.25 726.06 457.22 731 454.2 726.06 447.45 725.27 452.33 721.43 451.18 716 457.22 718.56"/>
  <path class="cls-3" d="M0,821a390.66,390.66,0,0,0,81.1-26.36c39.78-18,51.33-31.46,96.93-53.7,20.4-10,45.5-22.2,79.12-31.24,47.7-12.84,85.47-12,137.48-10.74,31.56.73,65.75,1.69,109.78,10.74,43.3,8.89,43.11,14.71,88,24.4,26.31,5.68,68.43,14.49,119.68,11.72,29.81-1.61,54.49-7.91,103.85-20.5,73.17-18.67,77.76-26.23,132.53-38.08,50.2-10.86,89.88-13.94,112.75-15.62,58.44-4.31,103.06-1.78,132.53,0,12.39.75,48.25,3.12,95,9.76,38.2,5.44,42.69,7.9,98.9,17.58,63,10.83,94.47,16.25,117.69,15.62,45.85-1.25,81.85-12.33,107.81-20.51,39.58-12.47,38.22-17.68,93-37.1,43.77-15.53,67-23.58,98.9-25.38a236.42,236.42,0,0,1,81.1,9.76"/>
  <g>
    <polygon class="cls-4" points="461.24 720.23 454.66 723.15 455.91 716.97 450.7 712.68 457.92 711.8 461.24 706.11 464.57 711.8 471.78 712.68 466.57 716.97 467.83 723.15 461.24 720.23"/>
    <path d="M461.24,707.1l2.77,4.74.25.42.49.06,5.82.72-4.08,3.36-.47.38.12.59,1,4.93-5.49-2.44-.41-.18-.4.18-5.5,2.44,1-4.93.12-.59-.46-.38-4.08-3.4,5.81-.72.49-.06.25-.42,2.77-4.74m0-2-3.63,6.21-8.13,1,5.88,4.84L454,724l7.27-3.23,7.27,3.23-1.39-6.83,5.88-4.84-8.12-1-3.64-6.21Z"/>
  </g>
  <path class="cls-5" d="M0,99.31c30.48-2.17,55-5.28,72.52-7.9C99.86,87.32,120,83,141.58,78.23,174.9,71,178.05,69,196.83,65.06c35.51-7.48,66.46-9.47,103.6-11.86,62.43-4,111.67-2.38,141.58-1.32,9.31.33,49.19,1.84,100.15,6.59,47.26,4.41,48.2,6.4,86.33,9.22,23.23,1.72,60.2,4.35,107,2.64,21.27-.78,37.2-2.28,69.06-5.27,40.09-3.77,50.1-5.75,93.24-10.54,33.67-3.74,68.31-7.59,114-10.54,9.21-.6,46.65-3,96.69-4,16-.32,49.85-.83,93.24,0,43.82.83,76.84,2.65,100.14,4,24.38,1.36,48.48,3.1,96.69,6.59,41.91,3,51.56,3.91,76,5.27,38.06,2.11,57.09,3.16,76,2.63,23.18-.65,44.55-3.52,86.33-9.22,38.75-5.29,41.78-6.61,79.43-11.86,43.69-6.08,65.5-9.08,89.69-10.54s63.32-2.13,114,3.95V-43.69H0Z"/>
  <g class="cls-6">
    <path d="M606.62,264.45v14.86a13.79,13.79,0,0,0,.8,5.46,7.62,7.62,0,0,0,3.06,3.09q4.13,2.36,11.91,3v1.3H578.21v-1.3q7.18-.77,10.45-3.5c1.68-1.34,2.53-4,2.53-8V247.52a16.8,16.8,0,0,0-.67-5.55,6.28,6.28,0,0,0-2.46-2.95q-3.19-2.24-9.85-3v-1.31c.67,0,1.22,0,1.67,0l5.85.21q3.53.13,8.18.13c4.93,0,9.38-.13,13.38-.38l9.31-.5c3-.17,5.9-.26,8.65-.26q15.5,0,24.31,4t8.82,11a10.86,10.86,0,0,1-3.33,7.62,21.53,21.53,0,0,1-9,5.39q-8,2.56-24.28,2.57h-15.1ZM587.53,290H607l-2.59-1.22a12.12,12.12,0,0,1-2.9-1.69,2.57,2.57,0,0,1-.63-1.89,8.83,8.83,0,0,0,0-.91,3.64,3.64,0,0,1,0-.48V243a4.36,4.36,0,0,1,0-.51,8.53,8.53,0,0,0,0-.88,2.6,2.6,0,0,1,.57-1.81,8.78,8.78,0,0,1,2.49-1.56l.47-.21,3.72-1.81-2.39.08c-4,.17-7.67.26-10.91.26-2,0-4.72-.05-8.18-.13l3.52,1.6a9.37,9.37,0,0,1,2.86,1.62,2.69,2.69,0,0,1,.67,2c0,.48.06.94.06,1.39v40.8c0,.45,0,.91-.06,1.39a2.62,2.62,0,0,1-.6,1.91,11.54,11.54,0,0,1-2.93,1.67Zm19.09-27.37h10.91q10.58,0,16.1-2.15a14.25,14.25,0,0,0,6.42-4.63,11.07,11.07,0,0,0,2.29-6.86q0-6.1-5.78-9.73t-15.44-3.62a29.1,29.1,0,0,0-8,.93,9.55,9.55,0,0,0-4.75,2.69q-1.8,2-1.8,6.44Zm25.94-.13q9.45-1.59,14.41-5.15t4.95-8.66a8.53,8.53,0,0,0-2.32-5.81,17.47,17.47,0,0,0-6.59-4.33,40.17,40.17,0,0,0-10.25-2.45q12,4,12,12.8a11.71,11.71,0,0,1-3.06,8.17Q638.69,260.46,632.56,262.51Z"/>
    <path d="M664.43,263.48a20.56,20.56,0,0,1,3.73-11.66,34.09,34.09,0,0,1,10.34-9.75,54.44,54.44,0,0,1,15.3-6.48,71.48,71.48,0,0,1,18.33-2.3A68,68,0,0,1,736,237.36q10.93,4,17.36,11t6.42,15.11A20.71,20.71,0,0,1,756.14,275a33.52,33.52,0,0,1-10.28,9.7,55.72,55.72,0,0,1-15.24,6.55,73.43,73.43,0,0,1-42.41-1.7q-11-4.05-17.39-11T664.43,263.48ZM692,289.38a36,36,0,0,1-9.81-6.55,24.61,24.61,0,0,1-5.86-8.74,29.39,29.39,0,0,1-2-10.9,25.82,25.82,0,0,1,4.22-14.93q4.23-6.16,13.41-10.55a53.17,53.17,0,0,0-13.54,6.57,29.57,29.57,0,0,0-8.58,8.78,19.68,19.68,0,0,0,0,20.76,29.79,29.79,0,0,0,8.58,8.86A54.29,54.29,0,0,0,692,289.38Zm-10.85-26.19a29.67,29.67,0,0,0,2.2,11.47,24.9,24.9,0,0,0,6.29,9,27.92,27.92,0,0,0,9.84,5.71,39,39,0,0,0,12.74,2,34.74,34.74,0,0,0,19.89-5.72,23.7,23.7,0,0,0,8-9.29A29.58,29.58,0,0,0,743,263.15a30.17,30.17,0,0,0-2.17-11.71,24.51,24.51,0,0,0-6.18-8.88,27.77,27.77,0,0,0-9.71-5.65,38.88,38.88,0,0,0-12.81-2,38.31,38.31,0,0,0-12.74,2,28.13,28.13,0,0,0-9.75,5.73,25.26,25.26,0,0,0-6.25,9A29.78,29.78,0,0,0,681.19,263.19Zm47.37,26.23q24.35-8.88,24.35-25.94a21.65,21.65,0,0,0-2.7-10.46,28.44,28.44,0,0,0-7.65-8.89,40,40,0,0,0-11.6-6.21q14.56,8.09,14.56,25.18a31.65,31.65,0,0,1-1.43,9.58,26.58,26.58,0,0,1-4,8,21.48,21.48,0,0,1-2.73,3.07,26.19,26.19,0,0,1-3.59,2.72Q731.69,287.82,728.56,289.42Z"/>
    <path d="M796.22,262v17.3a15.45,15.45,0,0,0,.7,5.39,7.09,7.09,0,0,0,2.69,3.16q3.52,2.31,10.51,3v1.3H767.81v-1.3q7.19-.77,10.45-3.5,2.52-2,2.52-8V247.52a16.85,16.85,0,0,0-.66-5.55,6.39,6.39,0,0,0-2.46-2.95q-3.2-2.24-9.85-3v-1.31c.62,0,1.18,0,1.66,0l5.86.21q3.52.13,8.18.13,7.38,0,13.37-.38l9.32-.5c2.92-.17,5.81-.26,8.64-.26a88.08,88.08,0,0,1,14,1,43.28,43.28,0,0,1,10.45,2.91,18,18,0,0,1,6.58,4.65,9.35,9.35,0,0,1,2.33,6.17q0,5.68-6.15,8.86t-18.2,3.73a43.91,43.91,0,0,1,12.61,5.07,71.2,71.2,0,0,1,12.27,10.51q8.06,8.16,12.71,11.37a30.37,30.37,0,0,0,10.31,4.54v1.18a91,91,0,0,1-12.34-.84,47.94,47.94,0,0,1-10.15-2.69,51.75,51.75,0,0,1-21.68-16.34l-3.53-4.67a26.71,26.71,0,0,0-4.46-4.78,10.81,10.81,0,0,0-4.59-2,37.23,37.23,0,0,0-7.25-.55Zm-19.1,28h19.43L794,288.79a11.91,11.91,0,0,1-2.9-1.69,2.57,2.57,0,0,1-.63-1.89,8.83,8.83,0,0,0,0-.91,2.45,2.45,0,0,1,0-.48V243a2.92,2.92,0,0,1,0-.51,8.53,8.53,0,0,0,0-.88,2.65,2.65,0,0,1,.56-1.81,8.88,8.88,0,0,1,2.5-1.56l.47-.21,3.72-1.81-2.39.08q-6.06.26-10.91.26c-2,0-4.73-.05-8.19-.13l3.53,1.6a9.5,9.5,0,0,1,2.86,1.62,2.73,2.73,0,0,1,.66,2,13.34,13.34,0,0,1,.07,1.39v40.8a13.34,13.34,0,0,1-.07,1.39,2.66,2.66,0,0,1-.59,1.91,11.54,11.54,0,0,1-2.93,1.67Zm19.1-29.69h11.9q10.32,0,14.84-1.47a13.33,13.33,0,0,0,6.35-4.06,9.7,9.7,0,0,0-.4-13,17.4,17.4,0,0,0-7.51-4.57,34.56,34.56,0,0,0-11-1.62q-9.18,0-12.38,3.62c-1.19,1.37-1.79,3.54-1.79,6.48Zm67.92,31.88q-3.52-1.23-5.72-2.23a48.92,48.92,0,0,1-5.12-2.83,57.31,57.31,0,0,1-5.43-4.08q-2-1.72-6.48-6.44a82.87,82.87,0,0,0-7.69-7.29,36,36,0,0,0-6.88-4.46,41.69,41.69,0,0,0-7.65-2.78,29.32,29.32,0,0,1,4.39,3.41q.93.93,3.33,3.92c.48.59,1,1.16,1.43,1.72s.92,1.16,1.36,1.77A53.2,53.2,0,0,0,845,286.28,51.89,51.89,0,0,0,864.14,292.2Zm-42-31.71a49.27,49.27,0,0,0,8.15-1.81A26.43,26.43,0,0,0,836.4,256a12.1,12.1,0,0,0,3.69-3.46,7.1,7.1,0,0,0,1.3-4q0-4.59-5.19-8t-13.71-4.38a25.7,25.7,0,0,1,6.39,3.12,13.22,13.22,0,0,1,3.93,4.1,9.77,9.77,0,0,1,1.33,4.95,10.34,10.34,0,0,1-2.86,7.52Q828.42,258.73,822.16,260.49Z"/>
    <path d="M961,234.68l2.06,15.67h-2.13a23.38,23.38,0,0,0-5.42-7.5,24,24,0,0,0-8-4.86,27,27,0,0,0-9.55-1.71,20.52,20.52,0,0,0-6.82,1,9.09,9.09,0,0,0-4.29,2.85q-1.33,1.72-1.33,5.55v33.6a14.12,14.12,0,0,0,.8,5.5,7.06,7.06,0,0,0,3.06,3.05q4.05,2.31,11.84,3v1.3h-46.9v-1.3q8.65-.77,12.64-3.45a6.27,6.27,0,0,0,2.46-3,15,15,0,0,0,.67-5.1v-33.6q0-4.17-1.8-6.06a9.34,9.34,0,0,0-4.19-2.46,20.71,20.71,0,0,0-6.45-.91,26,26,0,0,0-13.74,3.77,23.36,23.36,0,0,0-9.28,10.3h-2.06l2.06-15.67Zm-84.15,1.56-.94,6.19a32.56,32.56,0,0,1,4.86-3.87,26.22,26.22,0,0,1,5.19-2.32ZM906.38,290h19.49l-2.59-1.22a13.23,13.23,0,0,1-3-1.73,2.49,2.49,0,0,1-.6-1.85v-1.39a1.7,1.7,0,0,0,0-.47,1,1,0,0,1,0-.25V243.73a1.13,1.13,0,0,1,0-.25,1.62,1.62,0,0,0,0-.46v-1.39a2.56,2.56,0,0,1,.73-2,10.89,10.89,0,0,1,2.86-1.62l3.79-1.77H906.58l3.13,1.77a7.54,7.54,0,0,1,2.26,1.71,3,3,0,0,1,.6,1.87V243a4.6,4.6,0,0,1,.07.71V283.1a4.61,4.61,0,0,1-.07.72v1.39a2.57,2.57,0,0,1-.63,1.89,11.91,11.91,0,0,1-2.9,1.69Zm49.56-53.77H946.3a31.07,31.07,0,0,1,5.92,2.13,24.08,24.08,0,0,1,5,3.47Z"/>
  </g>
  <path class="cls-5" d="M0,715.13A338.87,338.87,0,0,0,55.25,691c7.16-3.91,20.89-11.94,69.07-48.33,46-34.72,51.17-40.83,72.51-53.16a338,338,0,0,1,51.8-24.17c36.78-13.48,64.93-16.2,100.15-19.33,50-4.44,75-6.66,100.14,0,30.26,8,31.31,16.67,86.33,38.67,18.66,7.45,42.34,16.93,72.52,24.16,26.61,6.38,65.71,15.81,114,9.66,30.71-3.88,55-13.86,103.59-33.87,54.13-22.24,56.94-29.28,96.69-43.5,42.08-15,74.84-20,103.6-24.16,17.81-2.59,69.39-9.32,138.13-4.83,41.44,2.69,70.22,8.24,127.77,19.33,69.66,13.42,104.48,20.13,134.68,29,26.57,7.81,42.62,13.85,69.06,14.51,32.77.79,57.74-7.28,79.43-14.51,10.64-3.55,21.19-7.61,100.14-48.32,39.06-20.15,53.73-28.05,79.42-38.67,42.58-17.61,58.08-19,65.62-19.33a145,145,0,0,1,69,14.57A172.49,172.49,0,0,1,1920,488V1079.5H0Z"/>
  <g>
    <g>
      <g>
        <g>
          <path class="cls-7" d="M279.16,304A97.29,97.29,0,0,1,294.07,302c7.17-.57,10.76-.85,14.06-.05,8.44,2.06,8.23,7,16.8,9.68,8,2.51,10.28-1.2,16.21,1.79,4.69,2.36,6.85,6.59,11.18,15.06s6.48,12.68,6.33,17.41c-.33,10.64-9.31,16-6.42,21.33,1.27,2.32,3.16,1.56,6.36,4.49,4.58,4.19,5.46,10.09,6.19,15.43,1.16,8.55-1,9.46-.36,21.88.45,9.62,1.86,12.14,3,13.68,3.15,4.12,6.4,3.43,8.58,7.31,3,5.38.83,13.91-2.88,15.11-2.82.91-4.15-3.22-10.43-5.19-5.76-1.81-7.07.89-17.06.27-4.67-.3-9.7-.67-14.36-3.91-3.37-2.34-2.91-3.66-5.44-5.55-7.43-5.57-23.67-3.41-31.74,5.32-4.47,4.83-5.08,10.2-9.25,10.62-2.91.29-3.52-2.25-8.29-3.36-4.32-1-5.32.71-13,1-4,.12-7.31.23-11.14-1.17-2-.72-2.42-1.23-8.44-5.33-8.11-5.53-8-5.06-10.58-7.16-4.33-3.54-6.83-5.58-8.74-9.29a22.15,22.15,0,0,1-2-13.75c.47-2.52,1.22-3.83,7-13.43,6.12-10.13,6.06-9.95,6.25-10.39,3.14-7.19.72-11.31.29-22.87-.29-7.79-.66-17.77,3.91-28.09A48.39,48.39,0,0,1,252.89,316C262.3,308,272.3,305.63,279.16,304Z"/>
          <path class="cls-8" d="M341,351.12c2.25,2.47,5.47,7.11,6.71,22.34,1.17,14.5,1.76,21.74-1.69,30.91-1.13,3-8.19,20.83-21.34,23.43-.8.15-2.86.27-7,.51-9.94.58-14.91.87-18.06.35-12.75-2.13-20.24-15.2-21.39-17.29-4.4-8-4.46-15.4-4.49-19.53a45.42,45.42,0,0,1,4.51-20.2,48,48,0,0,1,7.24-10.46,45.82,45.82,0,0,1,12.25-10.84c5-2.9,9.2-3.91,13.68-5,7.48-1.79,12.19-2.92,18-1.33A25.08,25.08,0,0,1,341,351.12Z"/>
          <path d="M326.47,339.54a53.77,53.77,0,0,1-19.65,16.16c-7.17,3.56-15.1,5.08-22.32,8.48a24.93,24.93,0,0,0-9.62,7.45c-.29.38.36.76.65.37,4.85-6.49,13-8.82,20.4-11.22,7.73-2.52,15.05-5.81,21.48-10.85a50.83,50.83,0,0,0,9.71-10c.29-.39-.36-.76-.65-.37Z"/>
          <path d="M275.3,371.76c-4.43,12.89-10.23,25.89-20.78,35-.36.32.17.85.53.53,10.65-9.15,16.51-22.28,21-35.29.16-.46-.56-.66-.72-.2Z"/>
          <path d="M327,338.94c.68,3.38,1.43,6.74,3.22,9.73a58.07,58.07,0,0,0,6.41,8c3.7,4.25,7.83,10.3,14.07,10.46a.38.38,0,0,0,0-.75c-6.1-.16-10.26-6.47-13.87-10.61a54.31,54.31,0,0,1-6-7.53c-1.76-2.93-2.48-6.23-3.14-9.55-.1-.48-.82-.28-.73.2Z"/>
          <ellipse class="cls-7" cx="293.22" cy="330.3" rx="34.06" ry="26.25" transform="translate(-22.92 21.86) rotate(-4.11)"/>
          <ellipse class="cls-7" cx="287.06" cy="342.19" rx="32.04" ry="19.82" transform="translate(-74.53 79.99) rotate(-14.06)"/>
          <ellipse class="cls-7" cx="339.96" cy="347.26" rx="7.55" ry="17.53" transform="translate(-137.24 255.38) rotate(-34.71)"/>
          <ellipse class="cls-7" cx="342.72" cy="356.31" rx="4.39" ry="11.71" transform="translate(-150.41 321.11) rotate(-42.03)"/>
          <path class="cls-8" d="M331.3,423.33c-.39.66-2.57,4.28-2.4,8.12.24,5.24,4.64,6.33,4.82,10.57s-3.85,7.4-6.33,9.41a27.9,27.9,0,0,1-24.75,4.8,26.9,26.9,0,0,1-11.58-7.08c-3.23-3.07-3.53-4.69-3.44-5.71.15-2,1.77-2.26,3.62-5.23.42-.68,2.84-4.68,2.33-9.11-.48-4.16-3.11-5-2.52-6.77.78-2.45,5.84-1.93,20.83-3.52,5-.53,10-.64,15-1.11,4.09-.39,7.58-.8,8.07.4C335.38,419.1,333.3,420.16,331.3,423.33Z"/>
          <path class="cls-9" d="M331.75,431.55c2.08-1.21,5.18.35,10.78,3.16a60,60,0,0,1,6,3.52c10,6.49,11.41,5.82,15,8.8,4,3.26,3.72,5.21,9.84,16.12,5.3,9.44,5.56,8.09,12,18.93,6.21,10.49,5.32,10.67,12.26,22.87,6.7,11.76,8.25,12.88,11.09,20,5.07,12.66,3.86,18.43,2.59,21.6a15.66,15.66,0,0,1-4.31,6.27c-1.92,1.63-3.94,2.42-16,4.15-7.57,1.09-8,1-8.58.63-3.95-2.32-2.39-8.55-8-17.24-1.29-2-2-3-3.15-3.73-4-2.38-8.26.69-16,3.17-5.16,1.64-3.22.27-19.86,3.45-10,1.91-9,2.07-15.1,3.1-10.21,1.71-11.29,1-21.84,2.6-10.16,1.59-9.07,2.28-17,3.24-10.93,1.32-11.7-.15-20,1.48s-10.91,3.77-13.26,2c-1.85-1.42-2-4.06-1.26-16.75.54-9.72,1.08-16.32,1.37-19.92,1.12-13.7,1.47-16.32,2.33-20s1.4-4.83,2.19-9.08c1.4-7.58.59-8.86,1.89-13s2.23-3.26,6.8-11.4c2.12-3.75,3.73-7.16,6.66-13.37s3-6.69,4.17-8.23c2.44-3.15,7.81-8.23,11.94-6.83,1.84.62,1.73,2,6.39,8.44,2.65,3.7,4,5.55,5.28,6.55,4.35,3.33,9.63,3.12,13.64,2.95,3.24-.13,7.13-.28,11.28-2.81a19.43,19.43,0,0,0,7.1-7.46C331.44,438.12,328.89,433.22,331.75,431.55Z"/>
          <g>
            <path class="cls-9" d="M284.14,438.82c-.71-.37-1.65.1-2.27.41-12.72,6.38-12.25,4-17.26,8A35.25,35.25,0,0,0,253.54,461c-3.79,8.73-2.49,16.73-1.22,23.9.54,3.09,1.46,7.07,8.87,24.15,5.35,12.32,8.22,18.88,13.19,27.8,9.47,17,14.05,20.09,16.75,21.59a30,30,0,0,0,17.42,3.67c2.92-.3,9.79-1,14.67-6,4.45-4.61,4.85-10.37,5.45-21.24.53-9.57-.75-10.31-.63-21.79.1-10,1.08-10.24,1.37-21.93a145.79,145.79,0,0,0-.56-20.79c-1.22-11.44-2.86-11.12-4.86-24.45-1.91-12.68-1.61-20.84-4.65-21.48-1.66-.36-2.17,2-5.79,3.4-6.24,2.39-11.05-2.25-14.11.05-1.49,1.12-1.23,2.87-1.26,10-.05,8.84-.43,1.65-.6,18.89-.12,12.8.09,11.09,0,12.9-.63,9.16-2.15,10.73-3.38,22.08-.81,7.52-.48,9.88-1.26,10-2.09.36-7.36-15.91-9.4-31.06-.78-5.74-1.16-8.62-1-12.83C283,447.67,286.36,440,284.14,438.82Z"/>
            <path d="M319.81,423.26c1.77,4.59,2.14,9.47,2.51,14.33a62.26,62.26,0,0,0,2.45,14,73.7,73.7,0,0,1,3.39,14.89c.5,5,.62,10.15.74,15.22.25,10.55.11,21.1-.29,31.65q-.28,7.78-.76,15.56c-.29,4.84-.51,9.72-1,14.54-.48,4.39-1.42,9.1-4.26,12.62-3.24,4-8.32,5.09-13.16,5.83-.48.07-.28.79.2.72,4.14-.63,8.49-1.46,11.78-4.26a17.68,17.68,0,0,0,5.3-9.56,76.62,76.62,0,0,0,1.47-12.73q.56-8.15,1-16.3c.52-10.87.78-21.75.65-32.63-.06-5.39-.19-10.78-.49-16.17A66.21,66.21,0,0,0,327,456c-.8-2.74-1.79-5.42-2.47-8.19a54.09,54.09,0,0,1-1.26-8.59c-.44-5.43-.67-10.94-2.65-16.09-.18-.44-.9-.25-.73.2Z"/>
            <path d="M281.53,437.82c-9.11,3.2-18.91,6.87-24.92,14.88s-7,18.69-5.47,28.34a94.37,94.37,0,0,0,4.7,16.82c2.08,5.73,4.28,11.43,6.44,17.14,2,5.4,3.84,11,6.74,16,3,5.2,6.81,10,10.35,14.81,1.85,2.52,3.6,5.17,5.69,7.51a24.84,24.84,0,0,0,6.8,5.21,33.54,33.54,0,0,0,17.63,3.8c.48,0,.48-.78,0-.75a32.77,32.77,0,0,1-16.07-3.11A25.49,25.49,0,0,1,286.8,554a46.7,46.7,0,0,1-5.17-6.4c-3.36-4.61-6.86-9.14-10-13.89s-5.23-10-7.24-15.3l-6.09-16.24a149.36,149.36,0,0,1-5.22-15.73c-2.48-9.83-2.94-20.76,2-30,5.42-10.12,16.45-14.44,26.7-18,.45-.15.26-.88-.2-.72Z"/>
            <path d="M297.77,427a119.7,119.7,0,0,0-.89,14.29l-.53,15c-.34,9.43-.32,19-1.45,28.34a61.62,61.62,0,0,1-3.67,15.25c-.18.45.54.64.72.2,3.31-8.39,4.13-17.42,4.52-26.35.42-9.8.71-19.61,1-29.41.21-5.68.09-11.48,1-17.09.07-.48-.65-.68-.72-.2Z"/>
          </g>
          <g>
            <path class="cls-9" d="M337,428.65c2.44-2.25,11.07,2.89,16.61,6.19a75.79,75.79,0,0,1,17.54,14.32c6.47,7.29,10.18,15.14,17.34,30.54,6.42,13.81,4.69,12.13,10.13,23.4,6.63,13.72,9.84,17.56,12.17,27.46,1.72,7.33,3.13,13.78-.26,20.28-.45.86-4.63,8.77-13.7,11.07-1.72.43-7.69,1.94-12.5-1.1-3-1.91-3.89-4.56-6.12-10.19-5.66-14.29-3.47-6.06-9.12-21.35-3.92-10.63-3.23-9.88-6-17.29-5.61-14.82-7.68-16-10.12-24.4-3.35-11.49-.4-12.47-2.82-24.36C345.8,442.24,333.81,431.54,337,428.65Z"/>
            <path d="M337.11,429.39c9-2.63,16.77,3.85,23,9.39s12,11.23,16.64,18a78.5,78.5,0,0,1,6.1,11.31c1.91,4.2,3.8,8.4,5.71,12.6l11.5,25.4c1.94,4.27,3.89,8.54,5.81,12.82a80.73,80.73,0,0,1,4.72,12.58c2.06,8,1.32,16.14-3.69,22.84-4.38,5.85-13.39,12.09-20.55,7.39a27.94,27.94,0,0,1-4.33-3.8,12.66,12.66,0,0,1-3.6-5.28c-.59-2-.79-4.16-1.48-6.2a45.91,45.91,0,0,0-2.35-5.5,249.67,249.67,0,0,1-10.29-24.81q-4.74-13.2-9.45-26.4l-2.35-6.57c-.16-.45-.89-.25-.72.2l10.07,28.15c3.19,8.9,6.31,17.86,10.45,26.37,2,4.12,4.13,8.13,5,12.67a12.42,12.42,0,0,0,2,5.42,33.7,33.7,0,0,0,4.07,4.29c2.78,2.58,6,4.36,9.89,3.84a20.69,20.69,0,0,0,10-4.87,25.25,25.25,0,0,0,9.21-19c.12-9.16-4.18-17.72-7.87-25.86L392.3,487.15l-6.06-13.33c-2-4.33-3.81-8.74-6.11-12.9-4.14-7.51-10-13.88-16.26-19.69-5.9-5.48-12.49-12.09-20.9-13a15.33,15.33,0,0,0-6.06.51.37.37,0,0,0-.22.49.38.38,0,0,0,.42.24Z"/>
          </g>
          <ellipse class="cls-10" cx="299.16" cy="378.86" rx="6.21" ry="4.19" transform="translate(-114.13 129.41) rotate(-20.59)"/>
          <ellipse cx="300.75" cy="376.91" rx="3.01" ry="2.97" transform="translate(-4.26 3.44) rotate(-0.65)"/>
          <path d="M306.87,376a22.15,22.15,0,0,0-6.76-1.91c-2.25-.19-4.22,1.17-5.93,2.48a28.13,28.13,0,0,0-2.37,2.13,5,5,0,0,0-1.62,2.25c-.39,1.74,1.29,3.81,2.87,4.3.46.15.66-.58.2-.72a3.48,3.48,0,0,1-2-1.89,2.14,2.14,0,0,1,.45-2.77,21.54,21.54,0,0,1,3.87-3.39,16.13,16.13,0,0,1,2.09-1.23,5.13,5.13,0,0,1,3.21-.3,23.83,23.83,0,0,1,5.6,1.7c.44.19.83-.46.38-.65Z"/>
        </g>
        <g>
          <ellipse class="cls-10" cx="330.43" cy="372.45" rx="3.67" ry="5.43" transform="translate(-49.59 694.15) rotate(-88.67)"/>
          <path d="M321,374.67c1.21-1.43,2.39-3.24,4-4.27a7.7,7.7,0,0,1,4.81-1,10.49,10.49,0,0,1,4.76,1.34c2,1.29,1.51,3.63.55,5.4-.23.43.42.81.65.38.91-1.69,1.48-3.8.22-5.48-1.13-1.51-3.34-2-5.1-2.27a9.68,9.68,0,0,0-5.45.54c-2.12.95-3.5,3.11-5,4.82-.31.37.22.9.53.53Z"/>
          <ellipse class="cls-11" cx="332.14" cy="372.07" rx="2.35" ry="2.73" transform="translate(-123.48 169.17) rotate(-24.24)"/>
        </g>
      </g>
      <path class="cls-12" d="M311.65,401.94a5,5,0,0,0,1.92-1.13c1-1,1-1.8,1.85-2.12a13.36,13.36,0,0,1,2-.15l1-.08c1.35-.19,1.59-.84,2.92-1.2a5.19,5.19,0,0,1,2-.15,3.07,3.07,0,0,1,2.07.84c.76.88.41,2.22.23,3a8.7,8.7,0,0,1-1.78,3.11,9.37,9.37,0,0,1-1.85,2.12,6.32,6.32,0,0,1-3.92,1.29c-.77,0-1.9-.58-4.14-1.68-1-.52-2-1.06-2.15-1.83,0,0,0-.07-.07-1C311.69,402.51,311.67,402.17,311.65,401.94Z"/>
      <path d="M327.43,398.18a27.37,27.37,0,0,1-16.62,3.64c-.48,0-.47.7,0,.75a28,28,0,0,0,17-3.77.37.37,0,0,0,.06-.53.36.36,0,0,0-.44-.12Z"/>
      <path d="M299.3,363.82a17,17,0,0,0-15.37,4.74c-.34.35.19.88.53.53a16.17,16.17,0,0,1,14.64-4.55c.47.1.68-.62.2-.72Z"/>
      <path d="M334,356.82c-2.61,0-5.2,0-7.61,1.11a71.34,71.34,0,0,0-7.18,4.3c-.41.25,0,.9.38.65,2.21-1.37,4.39-2.89,6.71-4.08s5-1.28,7.7-1.23a.38.38,0,0,0,0-.75Z"/>
      <path d="M314.44,377.39a18.3,18.3,0,0,0,1.68,7.46c.56,1.21,1.36,2.26,2,3.43s.8,2.89-.72,3.24c-.47.11-.27.84.2.73a2.37,2.37,0,0,0,1.71-2.16c.13-1.37-.75-2.54-1.44-3.64a17.49,17.49,0,0,1-2.65-9.06.38.38,0,0,0-.75,0Z"/>
      <path d="M389.84,385.48a.38.38,0,1,0-.31-.31A.37.37,0,0,0,389.84,385.48Z"/>
      <path d="M389.84,385.48a.38.38,0,1,0-.31-.31A.37.37,0,0,0,389.84,385.48Z"/>
      <path d="M389.84,385.48a.38.38,0,1,0-.31-.31A.37.37,0,0,0,389.84,385.48Z"/>
      <path d="M389.84,385.48a.38.38,0,1,0-.31-.31A.37.37,0,0,0,389.84,385.48Z"/>
      <path d="M389.84,385.48a.38.38,0,1,0-.31-.31A.37.37,0,0,0,389.84,385.48Z"/>
    </g>
    <g>
      <path class="cls-13" d="M318.3,425.18a11.57,11.57,0,0,0-2.3-7.74c-2.15-3-4.91-4.3-7.29-5.4-3.86-1.77-5.4-1.27-7.14-3.43a11,11,0,0,1-2.08-4.79,34.24,34.24,0,0,1-1.17-5.85c-.2-2.16,0-2.67-.37-4.94a10.73,10.73,0,0,0-1.3-3.88c-.49-.85-1-1.77-1.85-1.8s-1.53,1-1.63,1.11c-.91,1.35-.44,3-.64,3a11.32,11.32,0,0,1-.95-3c-.82-3.36-.85-3.89-1.37-4.86-.6-1.15-1.88-2.93-2.77-2.7S286.39,384,286,384s-.24-1.39-1.08-2.89c-.41-.75-.94-1.71-1.86-1.84a2.63,2.63,0,0,0-2.08,1.06,4.07,4.07,0,0,0-.86,2.05c-.38,2.15.29,4,0,4s-.38-.81-.93-.92-1.15.74-1.48,1.22a6.5,6.5,0,0,0-.86,1.92s-.1.32-.18.63a43.34,43.34,0,0,0-.61,6.33,31,31,0,0,1,.55-6,19.45,19.45,0,0,1,.78-3c.08,0-1.81,5.86-1.26,10,0,.16.09,1.09.23,3s.19,2.83-.19,3-.77-.69-1.78-.86a2.39,2.39,0,0,0-2.5,1.17,3.83,3.83,0,0,0,.23,2.95c.61,1.65,1.39,1.92,2.86,3.75a33.92,33.92,0,0,1,2.94,4.73c1.46,2.6,1.32,2.76,2,3.81.41.61,1.68,2.43,5.51,4.54,3.65,2,4.28,1.33,8.85,3.3,4.3,1.85,4.2,2.64,7.14,3.43a74.8,74.8,0,0,0,7.78.41s6,.2,7.62-1.55a5.77,5.77,0,0,0,.79-1.05A6.73,6.73,0,0,0,318.3,425.18Z"/>
      <path d="M292.41,391.31a52.15,52.15,0,0,0,2.2,15.2.15.15,0,0,0,.29-.08h0a51.94,51.94,0,0,1-2.19-15.12.15.15,0,0,0-.3,0Z"/>
      <path d="M285.87,384.09a95.08,95.08,0,0,0,2.57,21.05c0,.19.33.11.29-.08a95.22,95.22,0,0,1-2.56-21,.15.15,0,0,0-.3,0Z"/>
      <path d="M279.89,386.49a100.77,100.77,0,0,0,3.72,19.93.15.15,0,0,0,.29-.08,100.83,100.83,0,0,1-3.71-19.85c0-.19-.32-.19-.3,0Z"/>
    </g>
    <path d="M276.3,399.65a20.61,20.61,0,0,0,2.07,7.33c.08.17.34,0,.26-.15a20,20,0,0,1-2-7.18c0-.19-.32-.19-.3,0Z"/>
    <g>
      <ellipse class="cls-14" cx="348.57" cy="515.09" rx="25.08" ry="4.28" transform="translate(-24.31 17.32) rotate(-2.75)"/>
      <ellipse class="cls-15" cx="348.54" cy="514.55" rx="14.33" ry="2.1" transform="translate(-24.37 17.38) rotate(-2.76)"/>
      <g>
        <g>
          <polygon class="cls-16" points="344.79 515.48 343.3 496.09 363.9 487.08 367.03 490.04 349.61 497.24 350.83 515.03 350.97 515.57 344.79 515.48"/>
          <path class="cls-17" d="M363.47,487.08a4.47,4.47,0,0,1,1.71,0,2.56,2.56,0,0,1,2,1.62,1.22,1.22,0,0,1-.16,1.59,2.24,2.24,0,0,1-1.33.51,2.88,2.88,0,0,1-2.06-.82,3.63,3.63,0,0,1-.75-1.07c-.42-.76-.35-1-.32-1.07A1.75,1.75,0,0,1,363.47,487.08Z"/>
          <polygon class="cls-17" points="356.18 490.46 357.64 493.85 352.21 496.26 349.72 493.23 356.18 490.46"/>
          <polygon class="cls-17" points="350.32 508.74 344.02 506.12 344.37 511.56 350.75 513.16 350.32 508.74"/>
          <polygon class="cls-17" points="349.81 500.87 343.51 498.25 343.86 503.69 350.25 505.29 349.81 500.87"/>
        </g>
        <g>
          <path class="cls-18" d="M325.3,520.63c-.24.14-.07.46,0,.54.26.57,1,3.57,2.12,8.33l2.34,8.39,1.25,4.79,1.77,7,1.46,4.84.69,3c.9.16,2.24.37,3.89.53a68,68,0,0,0,10.87,0c3.43-.18,5.68-.42,9.62-.83a47.71,47.71,0,0,0,5.7-.82,30.61,30.61,0,0,0,5.76-1.9l.17-3,.24-4.09.77-13.3.48-8.27.48-8.21c.06-.11.11-.25,0-.31a5.3,5.3,0,0,0-1.33.31,38.84,38.84,0,0,1-4,.82c-1.77.32-3.67.52-7.44.82-2.2.18-4.23.32-7.86.56-3.42.22-6.18.39-9.16.56-4.25.24-5.4.27-6.54.29H326.13A1.56,1.56,0,0,0,325.3,520.63Z"/>
          <path class="cls-19" d="M327.71,530.82c2.73.22,6.42.44,10.81.51a142.37,142.37,0,0,0,16.52-.58c1.44-.14,6.59-.66,13.12-1.92,1.61-.31,3-.59,3.95-.81l-.2,3.49-.43,7.31v7.49a.66.66,0,0,1,0,.76,3,3,0,0,1-1.77.59c-4.16.5-6.24.75-7,.82-1.33.13-1.24.14-2.62.28-2.79.27-5.12.39-9.57.56-5.34.2-8,.3-10,.29-3.4,0-6.23-.13-8.23-.24l-1.05-4.31-1-4.57-1-3.37-.84-3.3Z"/>
        </g>
        <path class="cls-15" d="M323.87,516.74c-.35.08-.44.52-.52.92a2.56,2.56,0,0,0,0,1.2,3.06,3.06,0,0,0,.57,1.32c.3.34.8.74,3.15,1.09a27,27,0,0,0,4.2.48l2.37.15a24.32,24.32,0,0,0,2.7,0h0c1.66,0,3-.06,3.92-.1,1.71-.08,2.21-.15,4.05-.22,1.5-.06,1.69,0,3.09-.08.91,0,2-.1,4-.25,3.62-.26,6.37-.57,11.88-1.2h0a.63.63,0,0,1,.27-.06c.17,0,7.92-.61,10.12-2.75,1.39-1.36.6-3.38-.09-3.45-.35,0-.54.31-1.29.79a11.23,11.23,0,0,1-3.77,1.28c-3.8.85-5.7,1.27-7.44,1.52-1,.14-4.17.58-9.82,1-3.35.23-6.59.44-11,.42,0,0-4.65,0-10.5-.63a15.23,15.23,0,0,1-4.39-.83C324.3,516.82,324.09,516.7,323.87,516.74Z"/>
      </g>
    </g>
    <g>
      <path class="cls-20" d="M390.9,541.7c.82.87.75,1.35,1.69,5.16,1.38,5.6,1.76,5.41,1.84,7.27.11,2.34.19,5.31-2,7.54-1.95,2-5.12,2.31-11.47,3-6,.62-4.75-.58-11.7-.2-2.3.13-3.43-.18-3.95-.76-1-1.1.53-2.9-.66-3.78a3.57,3.57,0,0,0-.95-.33c-2.16-.61-3-.24-3.95-.77-.73-.39-1.58-1.2-1.45-2,.21-1.23,2.59-1.71,2.42-2.3-.11-.43-1.41-.16-2.66-.86s-2.08-2.08-1.53-3c.45-.8,1.72-1.07,2.51-1.25a11.76,11.76,0,0,1,2.58-.19s-2.7.35-3.95-.76a2.37,2.37,0,0,1-.24-3.16c.45-.57,1.19-.89,3.79-1.33,4.26-.72,6.86-.63,7-1.14s-1.65-.52-2.55-1.8a3,3,0,0,1,.27-3.75,4.16,4.16,0,0,1,3.8-1.34c.87.27.85.89,1.72,1.68,1.26,1.14,3,1.38,5,1.62,3.07.39,3.12-.24,6.55-.05C384.94,539.24,388.85,539.54,390.9,541.7Z"/>
      <path d="M361.58,549.26a86.2,86.2,0,0,0,14.28-.29c.19,0,.19-.32,0-.3a86.2,86.2,0,0,1-14.28.29A.15.15,0,0,0,361.58,549.26Z"/>
      <path d="M360.78,554.71a75.46,75.46,0,0,1,9.51-.21,30.2,30.2,0,0,0,8.59-.45.15.15,0,0,0,.11-.19.16.16,0,0,0-.19-.1h0a31.21,31.21,0,0,1-8.84.43,72.12,72.12,0,0,0-9.18.22c-.19,0-.19.32,0,.3Z"/>
      <path d="M363.9,559.88a78.17,78.17,0,0,1,8.66-.1,37.58,37.58,0,0,0,8-.4c.19,0,.11-.33-.08-.29a38.6,38.6,0,0,1-8.25.38,72.71,72.71,0,0,0-8.35.11c-.19,0-.19.31,0,.3Z"/>
    </g>
  </g>
  <g>
    <polygon class="cls-2" points="430.06 514.44 402.56 606.35 399.56 615.35 541.68 615.35 570.58 514.44 430.06 514.44"/>
    <polygon class="cls-2" points="407.01 590.72 329.29 594 399.04 615.08 407.01 590.72"/>
    <polygon class="cls-2" points="434.88 514.35 407.54 601.79 404.56 610.35 545.84 610.35 574.55 514.35 434.88 514.35"/>
    <polygon class="cls-2" points="407.32 590.56 335.76 593.59 399.83 609.68 407.32 590.56"/>
  </g>
  <polygon class="cls-21" points="485.06 555.33 488.31 561.63 495.57 562.64 490.32 567.55 491.56 574.47 485.06 571.2 478.57 574.47 479.81 567.55 474.56 562.64 481.82 561.63 485.06 555.33"/>
  <g class="cls-6">
    <path d="M998.81,321.78l2.59,15.66h-2.06A22.89,22.89,0,0,0,984,324.87a48.44,48.44,0,0,0-12.78-1.49H969.4q-8.71,0-12.34,2c-2.42,1.36-3.62,3.74-3.62,7.14v14.31H960q10.05,0,14.64-2a11.31,11.31,0,0,0,6.32-7.22h2v22.44h-2a17.27,17.27,0,0,0-3.6-7.18,12.37,12.37,0,0,0-6.22-3.41,48.67,48.67,0,0,0-11.2-1h-6.52v17.9a14.07,14.07,0,0,0,.79,5.49,7.13,7.13,0,0,0,3.06,3.06c2.67,1.51,6.63,2.51,11.91,3v1.31H925v-1.31q7.19-.75,10.44-3.49,2.53-2,2.53-8V334.62a16.92,16.92,0,0,0-.66-5.56,6.44,6.44,0,0,0-2.46-2.95q-3.33-2.36-9.85-3v-1.3ZM934.34,377.1h19.43l-2.6-1.22a11.73,11.73,0,0,1-2.89-1.68,2.58,2.58,0,0,1-.63-1.9,5.87,5.87,0,0,0,0-.9,3.91,3.91,0,0,1,0-.49v-40.8a4.32,4.32,0,0,1,0-.5,6.06,6.06,0,0,0,0-.89,2.6,2.6,0,0,1,.7-2,9.53,9.53,0,0,1,2.82-1.62l3.8-1.77H933.15l3.79,1.77a11.77,11.77,0,0,1,2.92,1.64,2.62,2.62,0,0,1,.6,1.93,13.47,13.47,0,0,1,.07,1.39v40.8a13.2,13.2,0,0,1-.07,1.39,2.66,2.66,0,0,1-.6,1.92,11,11,0,0,1-2.92,1.66Zm43.64-32a14.89,14.89,0,0,1-2.89,1.47,42.36,42.36,0,0,1-4.29,1.23,21.8,21.8,0,0,1,7.18,2.73Zm15.9-21.72h-9.51a34.56,34.56,0,0,1,6.12,2.18,23.74,23.74,0,0,1,4.86,3.42Z"/>
    <path d="M1006.59,350.58a20.68,20.68,0,0,1,3.72-11.67,34.35,34.35,0,0,1,10.35-9.74,54.16,54.16,0,0,1,15.3-6.49,71.48,71.48,0,0,1,18.33-2.29,68,68,0,0,1,23.85,4.06q10.93,4.07,17.36,11t6.42,15.12a20.61,20.61,0,0,1-3.63,11.55,33.39,33.39,0,0,1-10.27,9.71,55.72,55.72,0,0,1-15.24,6.55,73.56,73.56,0,0,1-42.41-1.71q-11-4-17.39-11T1006.59,350.58Zm27.61,25.89a35.71,35.71,0,0,1-9.82-6.55,24.68,24.68,0,0,1-5.85-8.73,29.41,29.41,0,0,1-2-10.91,25.72,25.72,0,0,1,4.22-14.92q4.23-6.18,13.41-10.55a53.17,53.17,0,0,0-13.54,6.57,29.46,29.46,0,0,0-8.58,8.78,19.66,19.66,0,0,0,0,20.75,29.82,29.82,0,0,0,8.58,8.87A53.94,53.94,0,0,0,1034.2,376.47Zm-10.85-26.19a29.72,29.72,0,0,0,2.2,11.48,25,25,0,0,0,6.29,9,27.9,27.9,0,0,0,9.84,5.7,39,39,0,0,0,12.74,2,34.79,34.79,0,0,0,19.89-5.73,23.67,23.67,0,0,0,8-9.28,29.59,29.59,0,0,0,2.83-13.2,30.34,30.34,0,0,0-2.17-11.7,24.46,24.46,0,0,0-6.18-8.89,27.86,27.86,0,0,0-9.72-5.64,38.78,38.78,0,0,0-12.8-2,38.31,38.31,0,0,0-12.74,2,27.83,27.83,0,0,0-9.75,5.73,25.08,25.08,0,0,0-6.25,9A29.76,29.76,0,0,0,1023.35,350.28Zm47.37,26.23q24.35-8.88,24.35-25.93a21.72,21.72,0,0,0-2.7-10.47,28.52,28.52,0,0,0-7.65-8.88,39.56,39.56,0,0,0-11.6-6.21q14.57,8.09,14.56,25.18a31.7,31.7,0,0,1-1.43,9.58,26.6,26.6,0,0,1-4,8,21.36,21.36,0,0,1-2.72,3.07,26.33,26.33,0,0,1-3.6,2.71A59.36,59.36,0,0,1,1070.72,376.51Z"/>
    <path d="M1152.74,321.78v1.3q-8,.76-11.5,3.46a6.34,6.34,0,0,0-2.23,3,15.94,15.94,0,0,0-.63,5.05v32.13a17.16,17.16,0,0,0,.56,5,6,6,0,0,0,2,3q3,2.4,11.38,2.4h1.39a42.31,42.31,0,0,0,17.4-3.64,64.29,64.29,0,0,0,9-4.82,95.4,95.4,0,0,0,9.35-6.86h2.06l-8,17.47H1110v-1.31q7.18-.75,10.44-3.49,2.53-2,2.53-8V334.62a16.92,16.92,0,0,0-.66-5.56,6.41,6.41,0,0,0-2.47-2.95c-2.21-1.57-5.5-2.58-9.84-3v-1.3Zm-33.46,55.32h19.43l-2.6-1.22a11.73,11.73,0,0,1-2.89-1.68,2.58,2.58,0,0,1-.63-1.9,5.87,5.87,0,0,0,0-.9,3.91,3.91,0,0,1,0-.49v-40.8a4.32,4.32,0,0,1,0-.5,6.06,6.06,0,0,0,0-.89,2.6,2.6,0,0,1,.7-2,9.53,9.53,0,0,1,2.82-1.62l3.79-1.77h-21.75l3.73,1.77a12,12,0,0,1,2.92,1.64,2.62,2.62,0,0,1,.6,1.93,13.47,13.47,0,0,1,.07,1.39v40.8a13.2,13.2,0,0,1-.07,1.39,2.66,2.66,0,0,1-.6,1.92,11.18,11.18,0,0,1-2.92,1.66Zm59.54,0,3.59-7.83a51.64,51.64,0,0,1-15.5,7.83Z"/>
    <path d="M1192.79,379.25v-1.31q7.18-.75,10.45-3.49c1.68-1.35,2.53-4,2.53-8V334.62a16.86,16.86,0,0,0-.67-5.56,6.32,6.32,0,0,0-2.46-2.95q-3.33-2.36-9.85-3v-1.3h41.45v1.3q-7.18.76-10.51,3.5a6.14,6.14,0,0,0-1.93,2.92,17.15,17.15,0,0,0-.6,5.12v31.79a15.89,15.89,0,0,0,.7,5.41,6.65,6.65,0,0,0,2.49,3.09q3.33,2.37,9.85,3v1.31Zm9.32-2.15h19.42l-2.59-1.22a11.65,11.65,0,0,1-2.9-1.68,2.58,2.58,0,0,1-.63-1.9,8.46,8.46,0,0,0,0-.9,3.91,3.91,0,0,1,0-.49v-40.8a4.32,4.32,0,0,1,0-.5,8.76,8.76,0,0,0,0-.89,2.57,2.57,0,0,1,.63-1.89,11.65,11.65,0,0,1,2.9-1.68l3.79-1.77h-21.82l3.79,1.77a12.11,12.11,0,0,1,2.93,1.64,2.62,2.62,0,0,1,.6,1.93c0,.48.06.95.06,1.39v40.8c0,.45,0,.92-.06,1.39a2.66,2.66,0,0,1-.6,1.92,11.3,11.3,0,0,1-2.93,1.66Z"/>
    <path d="M1242.29,350.58a20.68,20.68,0,0,1,3.72-11.67,34.23,34.23,0,0,1,10.35-9.74,54.16,54.16,0,0,1,15.3-6.49,71.42,71.42,0,0,1,18.33-2.29,68,68,0,0,1,23.85,4.06q10.94,4.07,17.36,11t6.42,15.12a20.61,20.61,0,0,1-3.63,11.55,33.43,33.43,0,0,1-10.28,9.71,55.52,55.52,0,0,1-15.23,6.55,73.56,73.56,0,0,1-42.41-1.71q-11-4-17.4-11T1242.29,350.58Zm27.61,25.89a35.71,35.71,0,0,1-9.82-6.55,24.68,24.68,0,0,1-5.85-8.73,29.41,29.41,0,0,1-2-10.91,25.72,25.72,0,0,1,4.22-14.92q4.23-6.18,13.41-10.55a53.17,53.17,0,0,0-13.54,6.57,29.46,29.46,0,0,0-8.58,8.78,19.66,19.66,0,0,0,0,20.75,29.82,29.82,0,0,0,8.58,8.87A53.94,53.94,0,0,0,1269.9,376.47Zm-10.85-26.19a29.54,29.54,0,0,0,2.2,11.48,25.08,25.08,0,0,0,6.28,9,28,28,0,0,0,9.85,5.7,38.92,38.92,0,0,0,12.74,2,34.79,34.79,0,0,0,19.89-5.73,23.67,23.67,0,0,0,8-9.28,29.59,29.59,0,0,0,2.82-13.2,30.34,30.34,0,0,0-2.16-11.7,24.36,24.36,0,0,0-6.19-8.89,27.81,27.81,0,0,0-9.71-5.64,38.78,38.78,0,0,0-12.8-2,38.31,38.31,0,0,0-12.74,2,27.83,27.83,0,0,0-9.75,5.73,25,25,0,0,0-6.25,9A29.58,29.58,0,0,0,1259.05,350.28Zm47.37,26.23q24.35-8.88,24.35-25.93a21.72,21.72,0,0,0-2.7-10.47,28.65,28.65,0,0,0-7.65-8.88,39.49,39.49,0,0,0-11.61-6.21q14.58,8.09,14.57,25.18a32,32,0,0,1-1.43,9.58,26.6,26.6,0,0,1-4,8,21.36,21.36,0,0,1-2.72,3.07,26.33,26.33,0,0,1-3.6,2.71A59.36,59.36,0,0,1,1306.42,376.51Z"/>
  </g>
  <g class="cls-6">
    <path d="M835.11,337.9h-.32l-7.24-9.24-.79,5.75a7.28,7.28,0,0,0-.06.9,2.38,2.38,0,0,0,.79,1.92,5.11,5.11,0,0,0,2.55.92v.27H822.8v-.27a5.92,5.92,0,0,0,1.71-.67,3.4,3.4,0,0,0,1.14-1,5.3,5.3,0,0,0,.62-2.08l.84-6.13a3.06,3.06,0,0,0-1.15-.87,5,5,0,0,0-1.65-.29v-.26h6.42l-.07.11a1.38,1.38,0,0,0-.25.61,2.62,2.62,0,0,0,.68,1.28l5.13,6.53,4.24-6.35a2.45,2.45,0,0,0,.51-1.17,1.73,1.73,0,0,0-.53-1h6.38v.26a4.54,4.54,0,0,0-1.93.5,1.24,1.24,0,0,0-.59,1.11,2,2,0,0,0,0,.43l0,.22,1.11,6.31c0,.08,0,.15,0,.22s.05.24.12.53a2,2,0,0,0,.79,1.23,4.19,4.19,0,0,0,1.82.53v.27h-8.43v-.27a6.75,6.75,0,0,0,2-.58,1.06,1.06,0,0,0,.66-.91,4.56,4.56,0,0,0-.1-.7l-1.3-7.26Zm-7.78.08a4.19,4.19,0,0,1-.86-.73,1.87,1.87,0,0,1-.36-.72,3,3,0,0,1-.7.81,5,5,0,0,1-1.1.64Zm7.58-.58.73-1.1-6.1-7.79a1.84,1.84,0,0,1-.45-.87.76.76,0,0,1,.21-.51h-3a3.74,3.74,0,0,1,1.11.73,7.44,7.44,0,0,1,.86,1Zm6.8.58h4.07l-.69-.36a1.26,1.26,0,0,1-.59-1L843,328.51a2.85,2.85,0,0,1,0-.3.47.47,0,0,1,.13-.34,2.27,2.27,0,0,1,.55-.35l.75-.39h-3.07l1.67,9.38.05.19a2.27,2.27,0,0,1,0,.3.46.46,0,0,1-.13.34,2.51,2.51,0,0,1-.56.32Z"/>
    <path d="M849.57,338.42v-.27a3.94,3.94,0,0,0,2.09-.7,2.08,2.08,0,0,0,.5-1.63V329.4a3.4,3.4,0,0,0-.13-1.12,1.25,1.25,0,0,0-.49-.59,4.23,4.23,0,0,0-2-.62v-.26h8.27v.26a4,4,0,0,0-2.1.71,1.21,1.21,0,0,0-.38.59,3.49,3.49,0,0,0-.12,1v6.42a3.05,3.05,0,0,0,.14,1.09,1.3,1.3,0,0,0,.49.63,4.13,4.13,0,0,0,2,.61v.27Zm1.86-.44h3.87l-.51-.25a2.47,2.47,0,0,1-.58-.33.53.53,0,0,1-.13-.39v-.18a.31.31,0,0,1,0-.1v-8.24a.38.38,0,0,1,0-.1v-.18a.5.5,0,0,1,.13-.38,2.39,2.39,0,0,1,.58-.34l.75-.36h-4.35l.76.36a2.26,2.26,0,0,1,.58.33.54.54,0,0,1,.12.39,2.72,2.72,0,0,1,0,.28v8.24a2.62,2.62,0,0,1,0,.28.54.54,0,0,1-.12.39,2.26,2.26,0,0,1-.58.33Z"/>
    <path d="M867.82,326.81v.26a4.62,4.62,0,0,0-2.29.7,1.41,1.41,0,0,0-.45.61,3.46,3.46,0,0,0-.12,1v6.49a3.68,3.68,0,0,0,.11,1,1.28,1.28,0,0,0,.4.61,3.83,3.83,0,0,0,2.27.48H868a9.16,9.16,0,0,0,1.74-.17,9.64,9.64,0,0,0,1.73-.56,13.3,13.3,0,0,0,1.79-1,18.9,18.9,0,0,0,1.86-1.38h.41L874,338.42H859.29v-.27a3.94,3.94,0,0,0,2.09-.7,2.08,2.08,0,0,0,.5-1.63V329.4a3.4,3.4,0,0,0-.13-1.12,1.25,1.25,0,0,0-.49-.59,4.19,4.19,0,0,0-2-.62v-.26ZM861.15,338H865l-.51-.25a2.47,2.47,0,0,1-.58-.33.57.57,0,0,1-.13-.39v-.18a.31.31,0,0,1,0-.1v-8.24a.38.38,0,0,1,0-.1v-.18a.53.53,0,0,1,.14-.39,2.29,2.29,0,0,1,.57-.33l.75-.36h-4.33l.74.36a2.26,2.26,0,0,1,.58.33.54.54,0,0,1,.12.39,2.72,2.72,0,0,1,0,.28v8.24a2.62,2.62,0,0,1,0,.28.54.54,0,0,1-.12.39,2.26,2.26,0,0,1-.58.33ZM873,338l.72-1.58a10.46,10.46,0,0,1-3.09,1.58Z"/>
    <path d="M884.33,326.81v.26a4.62,4.62,0,0,0-2.29.7,1.41,1.41,0,0,0-.45.61,3.46,3.46,0,0,0-.12,1v6.49a3.68,3.68,0,0,0,.11,1,1.23,1.23,0,0,0,.41.61,3.78,3.78,0,0,0,2.26.48h.28a9.16,9.16,0,0,0,1.74-.17,9.64,9.64,0,0,0,1.73-.56,13.3,13.3,0,0,0,1.79-1,17.79,17.79,0,0,0,1.86-1.38h.41l-1.59,3.53H875.81v-.27a3.93,3.93,0,0,0,2.08-.7,2.08,2.08,0,0,0,.5-1.63V329.4a3.4,3.4,0,0,0-.13-1.12,1.25,1.25,0,0,0-.49-.59,4.19,4.19,0,0,0-2-.62v-.26ZM877.66,338h3.87l-.51-.25a2.47,2.47,0,0,1-.58-.33.57.57,0,0,1-.13-.39v-.18a.31.31,0,0,1,0-.1v-8.24a.38.38,0,0,1,0-.1v-.18a.53.53,0,0,1,.14-.39,2.29,2.29,0,0,1,.57-.33l.75-.36h-4.33l.74.36a2.26,2.26,0,0,1,.58.33.54.54,0,0,1,.12.39c0,.1,0,.19,0,.28v8.24a2.64,2.64,0,0,1,0,.28.54.54,0,0,1-.12.39,2.26,2.26,0,0,1-.58.33Zm11.87,0,.72-1.58a10.46,10.46,0,0,1-3.09,1.58Z"/>
    <path d="M907.41,326.81l.5,3.16h-.42a4.51,4.51,0,0,0-2-2.15,7.85,7.85,0,0,0-3.54-.69h-.74a5.06,5.06,0,0,0-2.46.43A1.52,1.52,0,0,0,898,329v2.89h1.76a7.69,7.69,0,0,0,2.92-.41,2.24,2.24,0,0,0,1.26-1.45h.4v4.3h-.4a3.13,3.13,0,0,0-.71-1.3,2.47,2.47,0,0,0-1.25-.63,10.37,10.37,0,0,0-2.18-.18H898v3.68a2.79,2.79,0,0,0,.24,1.29,1.38,1.38,0,0,0,.87.62,6.43,6.43,0,0,0,1.73.18H902a8.48,8.48,0,0,0,3.42-.71A15.74,15.74,0,0,0,909,335l.11-.09h.46L908,338.42H892.32v-.27a3.93,3.93,0,0,0,2.08-.7,2.08,2.08,0,0,0,.5-1.63V329.4a3.4,3.4,0,0,0-.13-1.12,1.25,1.25,0,0,0-.49-.59,4.19,4.19,0,0,0-2-.62v-.26ZM894.17,338h3.88l-.52-.25a2.72,2.72,0,0,1-.58-.33.57.57,0,0,1-.12-.39c0-.09,0-.15,0-.18a.31.31,0,0,1,0-.1v-8.24a.38.38,0,0,1,0-.1s0-.09,0-.18a.53.53,0,0,1,.13-.39,2.51,2.51,0,0,1,.57-.33l.75-.36h-4.35l.76.36a2.62,2.62,0,0,1,.58.34.54.54,0,0,1,.12.38c0,.1,0,.19,0,.28v8.24a2.64,2.64,0,0,1,0,.28.54.54,0,0,1-.12.39,2.26,2.26,0,0,1-.58.33Zm9.19-6.47a3.61,3.61,0,0,1-.57.3,7.64,7.64,0,0,1-.86.25,4.12,4.12,0,0,1,1.43.55Zm3-4.38H904.5a6.29,6.29,0,0,1,1.2.42,5.42,5.42,0,0,1,1,.71ZM907,338l.74-1.58c-.32.23-.64.43-.95.62a8.73,8.73,0,0,1-1.06.52c-.39.16-.79.31-1.2.44Z"/>
  </g>
  <g class="cls-6">
    <path d="M980,292.15v-.33a2,2,0,0,0,1.4-.89,4.26,4.26,0,0,0,.33-2v-8.08a7.84,7.84,0,0,0-.09-1.38,1.84,1.84,0,0,0-.33-.78,2,2,0,0,0-1.31-.77v-.34l.15,0,1.08.08c.38,0,.76,0,1.13,0s.68,0,1.11,0l1-.1.91-.11a6.45,6.45,0,0,1,1-.07,5.2,5.2,0,0,1,1.68.26,3.73,3.73,0,0,1,1.28.73,3.27,3.27,0,0,1,.82,1.15,3.72,3.72,0,0,1,.29,1.48,3.38,3.38,0,0,1-.67,2.12,3.82,3.82,0,0,1-1.95,1.24,4.17,4.17,0,0,1,1.87.68,3.62,3.62,0,0,1,1.24,1.42,4.34,4.34,0,0,1,.44,2,4.09,4.09,0,0,1-.29,1.61,3.32,3.32,0,0,1-.85,1.24,3.6,3.6,0,0,1-1.37.8,5.44,5.44,0,0,1-1.75.27,13.49,13.49,0,0,1-1.43-.1l-1.87-.16c-.55,0-1,0-1.49,0s-.75,0-1.19,0l-.93.06Zm1.27-.56a8.58,8.58,0,0,1,1.19-.11,9,9,0,0,1,1.12.09l.22,0-.32-.29a1.92,1.92,0,0,1-.39-.43,1.19,1.19,0,0,1-.08-.48V290a.38.38,0,0,0,0-.13V279.78a.35.35,0,0,0,0-.12v-.35a1.56,1.56,0,0,1,0-.35.55.55,0,0,1,.12-.24,3.12,3.12,0,0,1,.32-.32L984,278l-.32,0a11.37,11.37,0,0,1-1.22.07,8.06,8.06,0,0,1-1.31-.12l.48.44a1.85,1.85,0,0,1,.39.43,1,1,0,0,1,.08.48v11.08a1,1,0,0,1-.08.48,1.85,1.85,0,0,1-.39.43Zm2.52-7.32h1.46a2.59,2.59,0,0,0,2.72-1.73,3.88,3.88,0,0,0,.28-1.47,4,4,0,0,0-.33-1.67,2.77,2.77,0,0,0-.93-1.16,2.26,2.26,0,0,0-1.33-.42,1.92,1.92,0,0,0-1,.26,1.68,1.68,0,0,0-.65.74,4.09,4.09,0,0,0-.21,1.53Zm0,.41v4.51a2.87,2.87,0,0,0,.53,2,2.39,2.39,0,0,0,1.82.58,2.64,2.64,0,0,0,2.24-1,3.93,3.93,0,0,0,.75-2.45,4.66,4.66,0,0,0-.13-1.15,3.79,3.79,0,0,0-.39-1,3,3,0,0,0-.61-.75,2.6,2.6,0,0,0-.82-.48,5.35,5.35,0,0,0-1.85-.25Zm3.45-.62a3.38,3.38,0,0,0,1.71-1.2,3.23,3.23,0,0,0,.59-1.94A3,3,0,0,0,989,279a3.33,3.33,0,0,0-1.78-1.12,3.9,3.9,0,0,1,1.43,3.13A3.54,3.54,0,0,1,987.27,284.06Zm.42,7.71a3.7,3.7,0,0,0,1.48-.62,3,3,0,0,0,1-1.15,3.39,3.39,0,0,0,.35-1.54,3.68,3.68,0,0,0-.67-2.15,4.1,4.1,0,0,0-1.89-1.42,4,4,0,0,1,1.56,3.4A3.6,3.6,0,0,1,987.69,291.77Z"/>
    <path d="M999.8,286.75h-4.63l-.51,1.37a5.14,5.14,0,0,0-.36,1.66,2.06,2.06,0,0,0,.21,1,1.89,1.89,0,0,0,.63.66,3.39,3.39,0,0,0,1.11.42v.33h-4.67v-.32a3.18,3.18,0,0,0,1.45-1.2,11.8,11.8,0,0,0,1.28-2.66l4-10.7h.23l4.32,11.57s0,0,0,.06a.54.54,0,0,0,0,.1.73.73,0,0,1,.05.12l.4,1a3.52,3.52,0,0,0,.73,1.18,2.27,2.27,0,0,0,1,.55v.33h-5.74v-.33a3.56,3.56,0,0,0,1-.2,1,1,0,0,0,.65-1,3.73,3.73,0,0,0-.29-1.15Zm-5.3,4.86a3.5,3.5,0,0,1-.43-.79,2.27,2.27,0,0,1-.13-.75c0-.12,0-.22,0-.29a5.64,5.64,0,0,1-.55,1,4.68,4.68,0,0,1-.72.8Zm5.12-5.31-2.16-5.81-2.13,5.81Zm-2-6.27,3.46,9.28.09.23a3.55,3.55,0,0,1,.28,1,1.72,1.72,0,0,1-.44,1h2.37a5,5,0,0,1-.7-1A15.66,15.66,0,0,1,1002,289l-3.86-10.32Z"/>
    <path d="M1016.63,277.71l1.06,3.82h-.31a11.32,11.32,0,0,0-.92-1.75,5.76,5.76,0,0,0-1-1.18,3.51,3.51,0,0,0-1.12-.67,4,4,0,0,0-1.34-.21,4.19,4.19,0,0,0-2,.48,4.71,4.71,0,0,0-1.6,1.36,6.7,6.7,0,0,0-1,2.07,8.61,8.61,0,0,0-.38,2.58,10.17,10.17,0,0,0,.7,3.81,6.55,6.55,0,0,0,1.9,2.7,4.15,4.15,0,0,0,2.68,1,3.91,3.91,0,0,0,1.9-.47,4.81,4.81,0,0,0,1.58-1.36,8.78,8.78,0,0,0,1.21-2.23h.36a7.34,7.34,0,0,1-2.27,3.6,5.7,5.7,0,0,1-3.71,1.22,5.81,5.81,0,0,1-4.25-1.64,7,7,0,0,1-1.21-1.63,8.81,8.81,0,0,1-.75-2,9.65,9.65,0,0,1-.26-2.23,8.29,8.29,0,0,1,.91-3.89,6.93,6.93,0,0,1,2.49-2.78,6.31,6.31,0,0,1,3.51-1,11.16,11.16,0,0,1,2.13.27,6.72,6.72,0,0,0,1.33.21A2.58,2.58,0,0,0,1016.63,277.71ZM1012,292.09a7.08,7.08,0,0,1-2.06-1.07,6.27,6.27,0,0,1-1.55-1.66,7.47,7.47,0,0,1-.94-2.19,10.62,10.62,0,0,1-.32-2.67,11.11,11.11,0,0,1,.16-1.92,7,7,0,0,1,.53-1.64,6.89,6.89,0,0,1,.92-1.44,10,10,0,0,1,1.36-1.3,7.24,7.24,0,0,0-1.66,1.19,7,7,0,0,0-1.22,1.55,7.09,7.09,0,0,0-.74,1.89,8.75,8.75,0,0,0-.26,2.13,9,9,0,0,0,.29,2.29,7.93,7.93,0,0,0,.82,2,5.74,5.74,0,0,0,1.29,1.55,5.47,5.47,0,0,0,1.56.92A6.18,6.18,0,0,0,1012,292.09Z"/>
    <path d="M1019.06,292.15v-.33a2,2,0,0,0,1.41-.89,4,4,0,0,0,.35-2v-8.08a7.77,7.77,0,0,0-.09-1.41,1.62,1.62,0,0,0-.34-.75,2.06,2.06,0,0,0-1.33-.77v-.34h5.6v.34a2.08,2.08,0,0,0-1.42.89,2.06,2.06,0,0,0-.26.74,8.5,8.5,0,0,0-.08,1.3v3.57h6.32v-3.57a7.77,7.77,0,0,0-.09-1.41,1.72,1.72,0,0,0-.33-.75,2.06,2.06,0,0,0-1.33-.77v-.34h5.6v.34a2.06,2.06,0,0,0-1.42.89,1.88,1.88,0,0,0-.26.74,7.38,7.38,0,0,0-.08,1.3v8.08a7.84,7.84,0,0,0,.09,1.38,2,2,0,0,0,.34.78,2.06,2.06,0,0,0,1.33.77v.33h-5.6v-.33a2,2,0,0,0,1.41-.89,4.06,4.06,0,0,0,.34-2v-4h-6.32v4a6.81,6.81,0,0,0,.1,1.38,1.84,1.84,0,0,0,.33.78,2.08,2.08,0,0,0,1.33.77v.33Zm1.26-.54H1023l-.35-.31a1.52,1.52,0,0,1-.39-.43,1,1,0,0,1-.09-.48v-.23a.49.49,0,0,1,0-.12V279.66a.49.49,0,0,1,0-.12v-.23a1,1,0,0,1,.09-.48,1.52,1.52,0,0,1,.39-.43l.51-.45h-3l.51.45a1.52,1.52,0,0,1,.39.43,1,1,0,0,1,.09.48c0,.12,0,.24,0,.35V290c0,.11,0,.23,0,.35a1.21,1.21,0,0,1-.08.49,2,2,0,0,1-.4.42Zm8.41,0h2.62l-.35-.31a1.92,1.92,0,0,1-.39-.43,1,1,0,0,1-.08-.48c0-.21,0-.33,0-.35V279.66s0-.15,0-.35a1,1,0,0,1,.08-.48,1.92,1.92,0,0,1,.39-.43l.51-.45h-2.94l.51.45a1.92,1.92,0,0,1,.39.43,1,1,0,0,1,.08.48c0,.12,0,.24,0,.35V290c0,.11,0,.23,0,.35a1.06,1.06,0,0,1-.08.49,1.67,1.67,0,0,1-.39.42Z"/>
  </g>
</svg>
