<svg id="Layer_1" data-name="Layer 1" xmlns="http://www.w3.org/2000/svg" viewBox="0 0 1920 1080">
  <defs>
    <style>
      .cls-1, .cls-3 {
        fill: #f0f1ff;
      }

      .cls-2 {
        fill: #f2f2f2;
        stroke-width: 2px;
      }

      .cls-11, .cls-13, .cls-2, .cls-20, .cls-21, .cls-3 {
        stroke: #000;
      }

      .cls-13, .cls-2, .cls-20, .cls-21, .cls-3 {
        stroke-miterlimit: 10;
      }

      .cls-4 {
        fill: #eaf1ff;
      }

      .cls-5 {
        fill: #fffce6;
      }

      .cls-22, .cls-23, .cls-6 {
        isolation: isolate;
        font-family: AcademyEngravedLetPlain, Academy Engraved LET;
      }

      .cls-6 {
        font-size: 86.23px;
      }

      .cls-7 {
        fill: #fff5bf;
      }

      .cls-13, .cls-20, .cls-8 {
        fill: #ffe3bf;
      }

      .cls-9 {
        fill: #c8d7ff;
      }

      .cls-10 {
        fill: #b4e0ff;
      }

      .cls-11 {
        stroke-miterlimit: 10;
        stroke-width: 0.25px;
      }

      .cls-12 {
        fill: #ffbfe1;
      }

      .cls-13 {
        stroke-width: 0.25px;
      }

      .cls-14 {
        fill: #fff;
      }

      .cls-15 {
        fill: #dbccc1;
      }

      .cls-16 {
        fill: #f7f3f0;
      }

      .cls-17 {
        fill: #f42548;
      }

      .cls-18 {
        fill: #b3d9dd;
      }

      .cls-19 {
        fill: #efe7bf;
      }

      .cls-20 {
        stroke-width: 0.1px;
      }

      .cls-21 {
        fill: none;
      }

      .cls-22 {
        font-size: 17.41px;
      }

      .cls-23 {
        font-size: 21.92px;
      }
    </style>
  </defs>
  <g>
    <rect class="cls-1" x="0.5" y="0.5" width="1919" height="1079"/>
    <path d="M1919,1V1079H1V1H1919m1-1H0V1080H1920Z"/>
  </g>
  <polygon class="cls-2" points="457.22 718.56 463.27 716 462.11 721.43 467 725.27 460.25 726.06 457.22 731 454.2 726.06 447.45 725.27 452.33 721.43 451.18 716 457.22 718.56"/>
  <path class="cls-3" d="M0,821a390.66,390.66,0,0,0,81.1-26.36c39.78-18,51.33-31.46,96.93-53.7,20.4-10,45.5-22.2,79.12-31.24,47.7-12.84,85.47-12,137.48-10.74,31.56.73,65.75,1.69,109.78,10.74,43.3,8.89,43.11,14.71,88,24.4,26.31,5.68,68.43,14.49,119.68,11.72,29.81-1.61,54.49-7.91,103.85-20.5,73.17-18.67,77.76-26.23,132.53-38.08,50.2-10.86,89.88-13.94,112.75-15.62,58.44-4.31,103.06-1.78,132.53,0,12.39.75,48.25,3.12,95,9.76,38.2,5.44,42.69,7.9,98.9,17.58,63,10.83,94.47,16.25,117.69,15.62,45.85-1.25,81.85-12.33,107.81-20.51,39.58-12.47,38.22-17.68,93-37.1,43.77-15.53,67-23.58,98.9-25.38a236.42,236.42,0,0,1,81.1,9.76"/>
  <g>
    <polygon class="cls-4" points="461.24 720.23 454.66 723.15 455.91 716.97 450.7 712.68 457.92 711.8 461.24 706.11 464.57 711.8 471.78 712.68 466.57 716.97 467.83 723.15 461.24 720.23"/>
    <path d="M461.24,707.1l2.77,4.74.25.42.49.06,5.82.72-4.08,3.36-.47.38.12.59,1,4.93-5.49-2.44-.41-.18-.4.18-5.5,2.44,1-4.93.12-.59-.46-.38-4.08-3.4,5.81-.72.49-.06.25-.42,2.77-4.74m0-2-3.63,6.21-8.13,1,5.88,4.84L454,724l7.27-3.23,7.27,3.23-1.39-6.83,5.88-4.84-8.12-1-3.64-6.21Z"/>
  </g>
  <path class="cls-5" d="M0,99.31c30.48-2.17,55-5.28,72.52-7.9C99.86,87.32,120,83,141.58,78.23,174.9,71,178.05,69,196.83,65.06c35.51-7.48,66.46-9.47,103.6-11.86,62.43-4,111.67-2.38,141.58-1.32,9.31.33,49.19,1.84,100.15,6.59,47.26,4.41,48.2,6.4,86.33,9.22,23.23,1.72,60.2,4.35,107,2.64,21.27-.78,37.2-2.28,69.06-5.27,40.09-3.77,50.1-5.75,93.24-10.54,33.67-3.74,68.31-7.59,114-10.54,9.21-.6,46.65-3,96.69-4,16-.32,49.85-.83,93.24,0,43.82.83,76.84,2.65,100.14,4,24.38,1.36,48.48,3.1,96.69,6.59,41.91,3,51.56,3.91,76,5.27,38.06,2.11,57.09,3.16,76,2.63,23.18-.65,44.55-3.52,86.33-9.22,38.75-5.29,41.78-6.61,79.43-11.86,43.69-6.08,65.5-9.08,89.69-10.54s63.32-2.13,114,3.95V-43.69H0Z"/>
  <text class="cls-6" transform="translate(574.56 292.15) scale(1.58 1)">PORT</text>
  <path class="cls-5" d="M0,715.13A338.87,338.87,0,0,0,55.25,691c7.16-3.91,20.89-11.94,69.07-48.33,46-34.72,51.17-40.83,72.51-53.16a338,338,0,0,1,51.8-24.17c36.78-13.48,64.93-16.2,100.15-19.33,50-4.44,75-6.66,100.14,0,30.26,8,31.31,16.67,86.33,38.67,18.66,7.45,42.34,16.93,72.52,24.16,26.61,6.38,65.71,15.81,114,9.66,30.71-3.88,55-13.86,103.59-33.87,54.13-22.24,56.94-29.28,96.69-43.5,42.08-15,74.84-20,103.6-24.16,17.81-2.59,69.39-9.32,138.13-4.83,41.44,2.69,70.22,8.24,127.77,19.33,69.66,13.42,104.48,20.13,134.68,29,26.57,7.81,42.62,13.85,69.06,14.51,32.77.79,57.74-7.28,79.43-14.51,10.64-3.55,21.19-7.61,100.14-48.32,39.06-20.15,53.73-28.05,79.42-38.67,42.58-17.61,58.08-19,65.62-19.33a145,145,0,0,1,69,14.57A172.49,172.49,0,0,1,1920,488V1079.5H0Z"/>
  <g>
    <g>
      <g>
        <g>
          <path class="cls-7" d="M279.16,304A97.29,97.29,0,0,1,294.07,302c7.17-.57,10.76-.85,14.06-.05,8.44,2.06,8.23,7,16.8,9.68,8,2.51,10.28-1.2,16.21,1.79,4.69,2.36,6.85,6.59,11.18,15.06s6.48,12.68,6.33,17.41c-.33,10.64-9.31,16-6.42,21.33,1.27,2.32,3.16,1.56,6.36,4.49,4.58,4.19,5.46,10.09,6.19,15.43,1.16,8.55-1,9.46-.36,21.88.45,9.62,1.86,12.14,3,13.68,3.15,4.12,6.4,3.43,8.58,7.31,3,5.38.83,13.91-2.88,15.11-2.82.91-4.15-3.22-10.43-5.19-5.76-1.81-7.07.89-17.06.27-4.67-.3-9.7-.67-14.36-3.91-3.37-2.34-2.91-3.66-5.44-5.55-7.43-5.57-23.67-3.41-31.74,5.32-4.47,4.83-5.08,10.2-9.25,10.62-2.91.29-3.52-2.25-8.29-3.36-4.32-1-5.32.71-13,1-4,.12-7.31.23-11.14-1.17-2-.72-2.42-1.23-8.44-5.33-8.11-5.53-8-5.06-10.58-7.16-4.33-3.54-6.83-5.58-8.74-9.29a22.15,22.15,0,0,1-2-13.75c.47-2.52,1.22-3.83,7-13.43,6.12-10.13,6.06-9.95,6.25-10.39,3.14-7.19.72-11.31.29-22.87-.29-7.79-.66-17.77,3.91-28.09A48.39,48.39,0,0,1,252.89,316C262.3,308,272.3,305.63,279.16,304Z"/>
          <path class="cls-8" d="M341,351.12c2.25,2.47,5.47,7.11,6.71,22.34,1.17,14.5,1.76,21.74-1.69,30.91-1.13,3-8.19,20.83-21.34,23.43-.8.15-2.86.27-7,.51-9.94.58-14.91.87-18.06.35-12.75-2.13-20.24-15.2-21.39-17.29-4.4-8-4.46-15.4-4.49-19.53a45.42,45.42,0,0,1,4.51-20.2,48,48,0,0,1,7.24-10.46,45.82,45.82,0,0,1,12.25-10.84c5-2.9,9.2-3.91,13.68-5,7.48-1.79,12.19-2.92,18-1.33A25.08,25.08,0,0,1,341,351.12Z"/>
          <path d="M326.47,339.54a53.77,53.77,0,0,1-19.65,16.16c-7.17,3.56-15.1,5.08-22.32,8.48a24.93,24.93,0,0,0-9.62,7.45c-.29.38.36.76.65.37,4.85-6.49,13-8.82,20.4-11.22,7.73-2.52,15.05-5.81,21.48-10.85a50.83,50.83,0,0,0,9.71-10c.29-.39-.36-.76-.65-.37Z"/>
          <path d="M275.3,371.76c-4.43,12.89-10.23,25.89-20.78,35-.36.32.17.85.53.53,10.65-9.15,16.51-22.28,21-35.29.16-.46-.56-.66-.72-.2Z"/>
          <path d="M327,338.94c.68,3.38,1.43,6.74,3.22,9.73a58.07,58.07,0,0,0,6.41,8c3.7,4.25,7.83,10.3,14.07,10.46a.38.38,0,0,0,0-.75c-6.1-.16-10.26-6.47-13.87-10.61a54.31,54.31,0,0,1-6-7.53c-1.76-2.93-2.48-6.23-3.14-9.55-.1-.48-.82-.28-.73.2Z"/>
          <ellipse class="cls-7" cx="293.22" cy="330.3" rx="34.06" ry="26.25" transform="translate(-22.92 21.86) rotate(-4.11)"/>
          <ellipse class="cls-7" cx="287.06" cy="342.19" rx="32.04" ry="19.82" transform="translate(-74.53 79.99) rotate(-14.06)"/>
          <ellipse class="cls-7" cx="339.96" cy="347.26" rx="7.55" ry="17.53" transform="translate(-137.24 255.38) rotate(-34.71)"/>
          <ellipse class="cls-7" cx="342.72" cy="356.31" rx="4.39" ry="11.71" transform="translate(-150.41 321.11) rotate(-42.03)"/>
          <path class="cls-8" d="M331.3,423.33c-.39.66-2.57,4.28-2.4,8.12.24,5.24,4.64,6.33,4.82,10.57s-3.85,7.4-6.33,9.41a27.9,27.9,0,0,1-24.75,4.8,26.9,26.9,0,0,1-11.58-7.08c-3.23-3.07-3.53-4.69-3.44-5.71.15-2,1.77-2.26,3.62-5.23.42-.68,2.84-4.68,2.33-9.11-.48-4.16-3.11-5-2.52-6.77.78-2.45,5.84-1.93,20.83-3.52,5-.53,10-.64,15-1.11,4.09-.39,7.58-.8,8.07.4C335.38,419.1,333.3,420.16,331.3,423.33Z"/>
          <path class="cls-9" d="M331.75,431.55c2.08-1.21,5.18.35,10.78,3.16a60,60,0,0,1,6,3.52c10,6.49,11.41,5.82,15,8.8,4,3.26,3.72,5.21,9.84,16.12,5.3,9.44,5.56,8.09,12,18.93,6.21,10.49,5.32,10.67,12.26,22.87,6.7,11.76,8.25,12.88,11.09,20,5.07,12.66,3.86,18.43,2.59,21.6a15.66,15.66,0,0,1-4.31,6.27c-1.92,1.63-3.94,2.42-16,4.15-7.57,1.09-8,1-8.58.63-3.95-2.32-2.39-8.55-8-17.24-1.29-2-2-3-3.15-3.73-4-2.38-8.26.69-16,3.17-5.16,1.64-3.22.27-19.86,3.45-10,1.91-9,2.07-15.1,3.1-10.21,1.71-11.29,1-21.84,2.6-10.16,1.59-9.07,2.28-17,3.24-10.93,1.32-11.7-.15-20,1.48s-10.91,3.77-13.26,2c-1.85-1.42-2-4.06-1.26-16.75.54-9.72,1.08-16.32,1.37-19.92,1.12-13.7,1.47-16.32,2.33-20s1.4-4.83,2.19-9.08c1.4-7.58.59-8.86,1.89-13s2.23-3.26,6.8-11.4c2.12-3.75,3.73-7.16,6.66-13.37s3-6.69,4.17-8.23c2.44-3.15,7.81-8.23,11.94-6.83,1.84.62,1.73,2,6.39,8.44,2.65,3.7,4,5.55,5.28,6.55,4.35,3.33,9.63,3.12,13.64,2.95,3.24-.13,7.13-.28,11.28-2.81a19.43,19.43,0,0,0,7.1-7.46C331.44,438.12,328.89,433.22,331.75,431.55Z"/>
          <g>
            <path class="cls-9" d="M284.14,438.82c-.71-.37-1.65.1-2.27.41-12.72,6.38-12.25,4-17.26,8A35.25,35.25,0,0,0,253.54,461c-3.79,8.73-2.49,16.73-1.22,23.9.54,3.09,1.46,7.07,8.87,24.15,5.35,12.32,8.22,18.88,13.19,27.8,9.47,17,14.05,20.09,16.75,21.59a30,30,0,0,0,17.42,3.67c2.92-.3,9.79-1,14.67-6,4.45-4.61,4.85-10.37,5.45-21.24.53-9.57-.75-10.31-.63-21.79.1-10,1.08-10.24,1.37-21.93a145.79,145.79,0,0,0-.56-20.79c-1.22-11.44-2.86-11.12-4.86-24.45-1.91-12.68-1.61-20.84-4.65-21.48-1.66-.36-2.17,2-5.79,3.4-6.24,2.39-11.05-2.25-14.11.05-1.49,1.12-1.23,2.87-1.26,10-.05,8.84-.43,1.65-.6,18.89-.12,12.8.09,11.09,0,12.9-.63,9.16-2.15,10.73-3.38,22.08-.81,7.52-.48,9.88-1.26,10-2.09.36-7.36-15.91-9.4-31.06-.78-5.74-1.16-8.62-1-12.83C283,447.67,286.36,440,284.14,438.82Z"/>
            <path d="M319.81,423.26c1.77,4.59,2.14,9.47,2.51,14.33a62.26,62.26,0,0,0,2.45,14,73.7,73.7,0,0,1,3.39,14.89c.5,5,.62,10.15.74,15.22.25,10.55.11,21.1-.29,31.65q-.28,7.78-.76,15.56c-.29,4.84-.51,9.72-1,14.54-.48,4.39-1.42,9.1-4.26,12.62-3.24,4-8.32,5.09-13.16,5.83-.48.07-.28.79.2.72,4.14-.63,8.49-1.46,11.78-4.26a17.68,17.68,0,0,0,5.3-9.56,76.62,76.62,0,0,0,1.47-12.73q.56-8.15,1-16.3c.52-10.87.78-21.75.65-32.63-.06-5.39-.19-10.78-.49-16.17A66.21,66.21,0,0,0,327,456c-.8-2.74-1.79-5.42-2.47-8.19a54.09,54.09,0,0,1-1.26-8.59c-.44-5.43-.67-10.94-2.65-16.09-.18-.44-.9-.25-.73.2Z"/>
            <path d="M281.53,437.82c-9.11,3.2-18.91,6.87-24.92,14.88s-7,18.69-5.47,28.34a94.37,94.37,0,0,0,4.7,16.82c2.08,5.73,4.28,11.43,6.44,17.14,2,5.4,3.84,11,6.74,16,3,5.2,6.81,10,10.35,14.81,1.85,2.52,3.6,5.17,5.69,7.51a24.84,24.84,0,0,0,6.8,5.21,33.54,33.54,0,0,0,17.63,3.8c.48,0,.48-.78,0-.75a32.77,32.77,0,0,1-16.07-3.11A25.49,25.49,0,0,1,286.8,554a46.7,46.7,0,0,1-5.17-6.4c-3.36-4.61-6.86-9.14-10-13.89s-5.23-10-7.24-15.3l-6.09-16.24a149.36,149.36,0,0,1-5.22-15.73c-2.48-9.83-2.94-20.76,2-30,5.42-10.12,16.45-14.44,26.7-18,.45-.15.26-.88-.2-.72Z"/>
            <path d="M297.77,427a119.7,119.7,0,0,0-.89,14.29l-.53,15c-.34,9.43-.32,19-1.45,28.34a61.62,61.62,0,0,1-3.67,15.25c-.18.45.54.64.72.2,3.31-8.39,4.13-17.42,4.52-26.35.42-9.8.71-19.61,1-29.41.21-5.68.09-11.48,1-17.09.07-.48-.65-.68-.72-.2Z"/>
          </g>
          <g>
            <path class="cls-9" d="M337,428.65c2.44-2.25,11.07,2.89,16.61,6.19a75.79,75.79,0,0,1,17.54,14.32c6.47,7.29,10.18,15.14,17.34,30.54,6.42,13.81,4.69,12.13,10.13,23.4,6.63,13.72,9.84,17.56,12.17,27.46,1.72,7.33,3.13,13.78-.26,20.28-.45.86-4.63,8.77-13.7,11.07-1.72.43-7.69,1.94-12.5-1.1-3-1.91-3.89-4.56-6.12-10.19-5.66-14.29-3.47-6.06-9.12-21.35-3.92-10.63-3.23-9.88-6-17.29-5.61-14.82-7.68-16-10.12-24.4-3.35-11.49-.4-12.47-2.82-24.36C345.8,442.24,333.81,431.54,337,428.65Z"/>
            <path d="M337.11,429.39c9-2.63,16.77,3.85,23,9.39s12,11.23,16.64,18a78.5,78.5,0,0,1,6.1,11.31c1.91,4.2,3.8,8.4,5.71,12.6l11.5,25.4c1.94,4.27,3.89,8.54,5.81,12.82a80.73,80.73,0,0,1,4.72,12.58c2.06,8,1.32,16.14-3.69,22.84-4.38,5.85-13.39,12.09-20.55,7.39a27.94,27.94,0,0,1-4.33-3.8,12.66,12.66,0,0,1-3.6-5.28c-.59-2-.79-4.16-1.48-6.2a45.91,45.91,0,0,0-2.35-5.5,249.67,249.67,0,0,1-10.29-24.81q-4.74-13.2-9.45-26.4l-2.35-6.57c-.16-.45-.89-.25-.72.2l10.07,28.15c3.19,8.9,6.31,17.86,10.45,26.37,2,4.12,4.13,8.13,5,12.67a12.42,12.42,0,0,0,2,5.42,33.7,33.7,0,0,0,4.07,4.29c2.78,2.58,6,4.36,9.89,3.84a20.69,20.69,0,0,0,10-4.87,25.25,25.25,0,0,0,9.21-19c.12-9.16-4.18-17.72-7.87-25.86L392.3,487.15l-6.06-13.33c-2-4.33-3.81-8.74-6.11-12.9-4.14-7.51-10-13.88-16.26-19.69-5.9-5.48-12.49-12.09-20.9-13a15.33,15.33,0,0,0-6.06.51.37.37,0,0,0-.22.49.38.38,0,0,0,.42.24Z"/>
          </g>
          <ellipse class="cls-10" cx="299.16" cy="378.86" rx="6.21" ry="4.19" transform="translate(-114.13 129.41) rotate(-20.59)"/>
          <ellipse cx="300.75" cy="376.91" rx="3.01" ry="2.97" transform="translate(-4.26 3.44) rotate(-0.65)"/>
          <path d="M306.87,376a22.15,22.15,0,0,0-6.76-1.91c-2.25-.19-4.22,1.17-5.93,2.48a28.13,28.13,0,0,0-2.37,2.13,5,5,0,0,0-1.62,2.25c-.39,1.74,1.29,3.81,2.87,4.3.46.15.66-.58.2-.72a3.48,3.48,0,0,1-2-1.89,2.14,2.14,0,0,1,.45-2.77,21.54,21.54,0,0,1,3.87-3.39,16.13,16.13,0,0,1,2.09-1.23,5.13,5.13,0,0,1,3.21-.3,23.83,23.83,0,0,1,5.6,1.7c.44.19.83-.46.38-.65Z"/>
        </g>
        <g>
          <ellipse class="cls-10" cx="330.43" cy="372.45" rx="3.67" ry="5.43" transform="translate(-49.59 694.15) rotate(-88.67)"/>
          <path d="M321,374.67c1.21-1.43,2.39-3.24,4-4.27a7.7,7.7,0,0,1,4.81-1,10.49,10.49,0,0,1,4.76,1.34c2,1.29,1.51,3.63.55,5.4-.23.43.42.81.65.38.91-1.69,1.48-3.8.22-5.48-1.13-1.51-3.34-2-5.1-2.27a9.68,9.68,0,0,0-5.45.54c-2.12.95-3.5,3.11-5,4.82-.31.37.22.9.53.53Z"/>
          <ellipse class="cls-11" cx="332.14" cy="372.07" rx="2.35" ry="2.73" transform="translate(-123.48 169.17) rotate(-24.24)"/>
        </g>
      </g>
      <path class="cls-12" d="M311.65,401.94a5,5,0,0,0,1.92-1.13c1-1,1-1.8,1.85-2.12a13.36,13.36,0,0,1,2-.15l1-.08c1.35-.19,1.59-.84,2.92-1.2a5.19,5.19,0,0,1,2-.15,3.07,3.07,0,0,1,2.07.84c.76.88.41,2.22.23,3a8.7,8.7,0,0,1-1.78,3.11,9.37,9.37,0,0,1-1.85,2.12,6.32,6.32,0,0,1-3.92,1.29c-.77,0-1.9-.58-4.14-1.68-1-.52-2-1.06-2.15-1.83,0,0,0-.07-.07-1C311.69,402.51,311.67,402.17,311.65,401.94Z"/>
      <path d="M327.43,398.18a27.37,27.37,0,0,1-16.62,3.64c-.48,0-.47.7,0,.75a28,28,0,0,0,17-3.77.37.37,0,0,0,.06-.53.36.36,0,0,0-.44-.12Z"/>
      <path d="M299.3,363.82a17,17,0,0,0-15.37,4.74c-.34.35.19.88.53.53a16.17,16.17,0,0,1,14.64-4.55c.47.1.68-.62.2-.72Z"/>
      <path d="M334,356.82c-2.61,0-5.2,0-7.61,1.11a71.34,71.34,0,0,0-7.18,4.3c-.41.25,0,.9.38.65,2.21-1.37,4.39-2.89,6.71-4.08s5-1.28,7.7-1.23a.38.38,0,0,0,0-.75Z"/>
      <path d="M314.44,377.39a18.3,18.3,0,0,0,1.68,7.46c.56,1.21,1.36,2.26,2,3.43s.8,2.89-.72,3.24c-.47.11-.27.84.2.73a2.37,2.37,0,0,0,1.71-2.16c.13-1.37-.75-2.54-1.44-3.64a17.49,17.49,0,0,1-2.65-9.06.38.38,0,0,0-.75,0Z"/>
      <path d="M389.84,385.48a.38.38,0,1,0-.31-.31A.37.37,0,0,0,389.84,385.48Z"/>
      <path d="M389.84,385.48a.38.38,0,1,0-.31-.31A.37.37,0,0,0,389.84,385.48Z"/>
      <path d="M389.84,385.48a.38.38,0,1,0-.31-.31A.37.37,0,0,0,389.84,385.48Z"/>
      <path d="M389.84,385.48a.38.38,0,1,0-.31-.31A.37.37,0,0,0,389.84,385.48Z"/>
      <path d="M389.84,385.48a.38.38,0,1,0-.31-.31A.37.37,0,0,0,389.84,385.48Z"/>
    </g>
    <g>
      <path class="cls-13" d="M318.3,425.18a11.57,11.57,0,0,0-2.3-7.74c-2.15-3-4.91-4.3-7.29-5.4-3.86-1.77-5.4-1.27-7.14-3.43a11,11,0,0,1-2.08-4.79,34.24,34.24,0,0,1-1.17-5.85c-.2-2.16,0-2.67-.37-4.94a10.73,10.73,0,0,0-1.3-3.88c-.49-.85-1-1.77-1.85-1.8s-1.53,1-1.63,1.11c-.91,1.35-.44,3-.64,3a11.32,11.32,0,0,1-.95-3c-.82-3.36-.85-3.89-1.37-4.86-.6-1.15-1.88-2.93-2.77-2.7S286.39,384,286,384s-.24-1.39-1.08-2.89c-.41-.75-.94-1.71-1.86-1.84a2.63,2.63,0,0,0-2.08,1.06,4.07,4.07,0,0,0-.86,2.05c-.38,2.15.29,4,0,4s-.38-.81-.93-.92-1.15.74-1.48,1.22a6.5,6.5,0,0,0-.86,1.92s-.1.32-.18.63a43.34,43.34,0,0,0-.61,6.33,31,31,0,0,1,.55-6,19.45,19.45,0,0,1,.78-3c.08,0-1.81,5.86-1.26,10,0,.16.09,1.09.23,3s.19,2.83-.19,3-.77-.69-1.78-.86a2.39,2.39,0,0,0-2.5,1.17,3.83,3.83,0,0,0,.23,2.95c.61,1.65,1.39,1.92,2.86,3.75a33.92,33.92,0,0,1,2.94,4.73c1.46,2.6,1.32,2.76,2,3.81.41.61,1.68,2.43,5.51,4.54,3.65,2,4.28,1.33,8.85,3.3,4.3,1.85,4.2,2.64,7.14,3.43a74.8,74.8,0,0,0,7.78.41s6,.2,7.62-1.55a5.77,5.77,0,0,0,.79-1.05A6.73,6.73,0,0,0,318.3,425.18Z"/>
      <path d="M292.41,391.31a52.15,52.15,0,0,0,2.2,15.2.15.15,0,0,0,.29-.08h0a51.94,51.94,0,0,1-2.19-15.12.15.15,0,0,0-.3,0Z"/>
      <path d="M285.87,384.09a95.08,95.08,0,0,0,2.57,21.05c0,.19.33.11.29-.08a95.22,95.22,0,0,1-2.56-21,.15.15,0,0,0-.3,0Z"/>
      <path d="M279.89,386.49a100.77,100.77,0,0,0,3.72,19.93.15.15,0,0,0,.29-.08,100.83,100.83,0,0,1-3.71-19.85c0-.19-.32-.19-.3,0Z"/>
    </g>
    <path d="M276.3,399.65a20.61,20.61,0,0,0,2.07,7.33c.08.17.34,0,.26-.15a20,20,0,0,1-2-7.18c0-.19-.32-.19-.3,0Z"/>
    <g>
      <ellipse class="cls-14" cx="348.57" cy="515.09" rx="25.08" ry="4.28" transform="translate(-24.31 17.32) rotate(-2.75)"/>
      <ellipse class="cls-15" cx="348.54" cy="514.55" rx="14.33" ry="2.1" transform="translate(-24.37 17.38) rotate(-2.76)"/>
      <g>
        <g>
          <polygon class="cls-16" points="344.79 515.48 343.3 496.09 363.9 487.08 367.03 490.04 349.61 497.24 350.83 515.03 350.97 515.57 344.79 515.48"/>
          <path class="cls-17" d="M363.47,487.08a4.47,4.47,0,0,1,1.71,0,2.56,2.56,0,0,1,2,1.62,1.22,1.22,0,0,1-.16,1.59,2.24,2.24,0,0,1-1.33.51,2.88,2.88,0,0,1-2.06-.82,3.63,3.63,0,0,1-.75-1.07c-.42-.76-.35-1-.32-1.07A1.75,1.75,0,0,1,363.47,487.08Z"/>
          <polygon class="cls-17" points="356.18 490.46 357.64 493.85 352.21 496.26 349.72 493.23 356.18 490.46"/>
          <polygon class="cls-17" points="350.32 508.74 344.02 506.12 344.37 511.56 350.75 513.16 350.32 508.74"/>
          <polygon class="cls-17" points="349.81 500.87 343.51 498.25 343.86 503.69 350.25 505.29 349.81 500.87"/>
        </g>
        <g>
          <path class="cls-18" d="M325.3,520.63c-.24.14-.07.46,0,.54.26.57,1,3.57,2.12,8.33l2.34,8.39,1.25,4.79,1.77,7,1.46,4.84.69,3c.9.16,2.24.37,3.89.53a68,68,0,0,0,10.87,0c3.43-.18,5.68-.42,9.62-.83a47.71,47.71,0,0,0,5.7-.82,30.61,30.61,0,0,0,5.76-1.9l.17-3,.24-4.09.77-13.3.48-8.27.48-8.21c.06-.11.11-.25,0-.31a5.3,5.3,0,0,0-1.33.31,38.84,38.84,0,0,1-4,.82c-1.77.32-3.67.52-7.44.82-2.2.18-4.23.32-7.86.56-3.42.22-6.18.39-9.16.56-4.25.24-5.4.27-6.54.29H326.13A1.56,1.56,0,0,0,325.3,520.63Z"/>
          <path class="cls-19" d="M327.71,530.82c2.73.22,6.42.44,10.81.51a142.37,142.37,0,0,0,16.52-.58c1.44-.14,6.59-.66,13.12-1.92,1.61-.31,3-.59,3.95-.81l-.2,3.49-.43,7.31v7.49a.66.66,0,0,1,0,.76,3,3,0,0,1-1.77.59c-4.16.5-6.24.75-7,.82-1.33.13-1.24.14-2.62.28-2.79.27-5.12.39-9.57.56-5.34.2-8,.3-10,.29-3.4,0-6.23-.13-8.23-.24l-1.05-4.31-1-4.57-1-3.37-.84-3.3Z"/>
        </g>
        <path class="cls-15" d="M323.87,516.74c-.35.08-.44.52-.52.92a2.56,2.56,0,0,0,0,1.2,3.06,3.06,0,0,0,.57,1.32c.3.34.8.74,3.15,1.09a27,27,0,0,0,4.2.48l2.37.15a24.32,24.32,0,0,0,2.7,0h0c1.66,0,3-.06,3.92-.1,1.71-.08,2.21-.15,4.05-.22,1.5-.06,1.69,0,3.09-.08.91,0,2-.1,4-.25,3.62-.26,6.37-.57,11.88-1.2h0a.63.63,0,0,1,.27-.06c.17,0,7.92-.61,10.12-2.75,1.39-1.36.6-3.38-.09-3.45-.35,0-.54.31-1.29.79a11.23,11.23,0,0,1-3.77,1.28c-3.8.85-5.7,1.27-7.44,1.52-1,.14-4.17.58-9.82,1-3.35.23-6.59.44-11,.42,0,0-4.65,0-10.5-.63a15.23,15.23,0,0,1-4.39-.83C324.3,516.82,324.09,516.7,323.87,516.74Z"/>
      </g>
    </g>
    <g>
      <path class="cls-20" d="M390.9,541.7c.82.87.75,1.35,1.69,5.16,1.38,5.6,1.76,5.41,1.84,7.27.11,2.34.19,5.31-2,7.54-1.95,2-5.12,2.31-11.47,3-6,.62-4.75-.58-11.7-.2-2.3.13-3.43-.18-3.95-.76-1-1.1.53-2.9-.66-3.78a3.57,3.57,0,0,0-.95-.33c-2.16-.61-3-.24-3.95-.77-.73-.39-1.58-1.2-1.45-2,.21-1.23,2.59-1.71,2.42-2.3-.11-.43-1.41-.16-2.66-.86s-2.08-2.08-1.53-3c.45-.8,1.72-1.07,2.51-1.25a11.76,11.76,0,0,1,2.58-.19s-2.7.35-3.95-.76a2.37,2.37,0,0,1-.24-3.16c.45-.57,1.19-.89,3.79-1.33,4.26-.72,6.86-.63,7-1.14s-1.65-.52-2.55-1.8a3,3,0,0,1,.27-3.75,4.16,4.16,0,0,1,3.8-1.34c.87.27.85.89,1.72,1.68,1.26,1.14,3,1.38,5,1.62,3.07.39,3.12-.24,6.55-.05C384.94,539.24,388.85,539.54,390.9,541.7Z"/>
      <path d="M361.58,549.26a86.2,86.2,0,0,0,14.28-.29c.19,0,.19-.32,0-.3a86.2,86.2,0,0,1-14.28.29A.15.15,0,0,0,361.58,549.26Z"/>
      <path d="M360.78,554.71a75.46,75.46,0,0,1,9.51-.21,30.2,30.2,0,0,0,8.59-.45.15.15,0,0,0,.11-.19.16.16,0,0,0-.19-.1h0a31.21,31.21,0,0,1-8.84.43,72.12,72.12,0,0,0-9.18.22c-.19,0-.19.32,0,.3Z"/>
      <path d="M363.9,559.88a78.17,78.17,0,0,1,8.66-.1,37.58,37.58,0,0,0,8-.4c.19,0,.11-.33-.08-.29a38.6,38.6,0,0,1-8.25.38,72.71,72.71,0,0,0-8.35.11c-.19,0-.19.31,0,.3Z"/>
    </g>
  </g>
  <g>
    <polygon class="cls-2" points="430.06 514.44 402.56 606.35 399.56 615.35 541.68 615.35 570.58 514.44 430.06 514.44"/>
    <polygon class="cls-2" points="407.01 590.72 329.29 594 399.04 615.08 407.01 590.72"/>
    <polygon class="cls-2" points="434.88 514.35 407.54 601.79 404.56 610.35 545.84 610.35 574.55 514.35 434.88 514.35"/>
    <polygon class="cls-2" points="407.32 590.56 335.76 593.59 399.83 609.68 407.32 590.56"/>
  </g>
  <polygon class="cls-21" points="485.06 555.33 488.31 561.63 495.57 562.64 490.32 567.55 491.56 574.47 485.06 571.2 478.57 574.47 479.81 567.55 474.56 562.64 481.82 561.63 485.06 555.33"/>
  <text class="cls-6" transform="translate(921.37 379.25) scale(1.58 1)">FOLIO</text>
  <text class="cls-22" transform="translate(825.91 338.41) scale(1.56 1)">MILLE</text>
  <text class="cls-23" transform="translate(979.54 292.15) scale(0.84 1)">BACH</text>
</svg>
