<svg id="Layer_1" data-name="Layer 1" xmlns="http://www.w3.org/2000/svg" viewBox="0 0 1919 143">
  <defs>
    <style>
      .cls-1 {
        fill: #f0f1ff;
      }

      .cls-2 {
        fill: #fffcf0;
      }
    </style>
  </defs>
  <g>
    <rect class="cls-1" y="0.5" width="1919" height="1079"/>
    <path d="M1918.5,1V1079H.5V1h1918m1-1H-.5V1080h1920Z"/>
  </g>
  <path class="cls-2" d="M-.5,143c30.48-2.17,55-5.28,72.52-7.9,27.34-4.09,47.44-8.45,69.06-13.18,33.32-7.28,36.47-9.22,55.25-13.17,35.51-7.48,66.46-9.47,103.6-11.86,62.43-4,111.67-2.38,141.58-1.32,9.31.33,49.19,1.84,100.15,6.59,47.26,4.41,48.2,6.4,86.33,9.22,23.23,1.72,60.2,4.35,107,2.64,21.27-.78,37.2-2.28,69.06-5.27,40.09-3.77,50.1-5.75,93.24-10.54,33.67-3.74,68.31-7.59,114-10.54,9.21-.6,46.65-3,96.69-4,16-.32,49.85-.83,93.24,0,43.82.83,76.84,2.65,100.14,4,24.38,1.36,48.48,3.1,96.69,6.59,41.91,3,51.56,3.91,76,5.27,38.06,2.11,57.09,3.16,76,2.63,23.18-.65,44.55-3.52,86.33-9.22,38.75-5.29,41.78-6.61,79.43-11.86,43.69-6.08,65.5-9.08,89.69-10.54s63.32-2.13,114,3.95V0H-.5Z"/>
</svg>
