<svg id="Layer_1" data-name="Layer 1" xmlns="http://www.w3.org/2000/svg" viewBox="0 0 1920 365.33">
  <defs>
    <style>
      .cls-1 {
        fill: #f0f1ff;
      }

      .cls-2 {
        fill: #fffcf0;
      }
    </style>
  </defs>
  <g>
    <rect class="cls-1" x="0.5" y="84.38" width="1919" height="1079"/>
    <path d="M1919,84.88v1078H1V84.88H1919m1-1H0v1080H1920Z"/>
  </g>
  <path class="cls-2" d="M0,365.33a406.91,406.91,0,0,0,72.52-20.19c27.34-10.45,47.44-21.58,69.06-33.67,33.32-18.6,36.47-23.55,55.25-33.64,35.51-19.11,66.46-24.2,103.6-30.3,62.43-10.22,111.67-6.08,141.58-3.37A731.68,731.68,0,0,1,542.16,261c47.26,11.27,48.2,16.35,86.33,23.56,23.23,4.39,60.2,11.11,107,6.74,21.27-2,37.2-5.82,69.06-13.46,40.09-9.63,50.1-14.69,93.24-26.93,33.67-9.55,68.31-19.39,114-26.93a870,870,0,0,1,96.69-10.22c16-.81,49.85-2.12,93.24,0A969.51,969.51,0,0,1,1301.86,224c24.38,3.48,48.48,7.92,96.69,16.84,41.91,7.66,51.56,10,76,13.46,38.06,5.39,57.09,8.08,76,6.72,23.18-1.66,44.55-9,86.33-23.55,38.75-13.52,41.78-16.89,79.43-30.3,43.69-15.54,65.5-23.2,89.69-26.93s63.32-5.44,114,10.09V0H0Z"/>
</svg>
