<svg id="Layer_1" data-name="Layer 1" xmlns="http://www.w3.org/2000/svg" width="1920" height="1080" viewBox="0 0 1920 1080"><defs><style>.cls-1{fill:#e5d8cf;}.cls-2{fill:#f7f3f0;}.cls-3{fill:#592e11;}.cls-4{fill:#d3baa9;}.cls-5{fill:#dd3d1d;}.cls-6{fill:#f2a540;}.cls-7{fill:#fff;}.cls-8{fill:#ff7bac;}.cls-9{fill:#070400;}.cls-10{stroke:#070400;stroke-width:0.5px;}.cls-10,.cls-15,.cls-25{stroke-miterlimit:10;}.cls-11{fill:#3f3936;}.cls-12{fill:#514c49;}.cls-13{fill:#a3a3a3;}.cls-14{fill:#4b7f56;}.cls-15,.cls-25{stroke:#000;}.cls-15{stroke-width:11px;}.cls-16{fill:#7c634a;}.cls-17{fill:#898458;}.cls-18{fill:#a1b7b6;}.cls-19{fill:#fc9;}.cls-20{fill:#d5e3ef;}.cls-21{fill:#070300;}.cls-22{fill:#050300;}.cls-23{fill:#0c0201;}.cls-24{fill:#020100;}.cls-25{fill:#ff71ac;}.cls-26{fill:#c15fc4;}.cls-27{fill:#dbccc1;}.cls-28{fill:#f42548;}.cls-29{fill:#b3d9dd;}.cls-30{fill:#efe7bf;}.cls-31{fill:#bc8057;}.cls-32{fill:#e0c4b1;}</style></defs><rect class="cls-1" x="-29" y="-19.5" width="2041" height="521"/><path class="cls-2" d="M36,476.5c172.38,34.15,351.38-20.18,527-14,212,7.45,122.46-5.61,720-2,162.39,1,250.79,2.51,364,9,123.74,7.09,305.32,21.73,309,22,10.62,18.69,23.89,48.34,24,85,.13,43.27-18.18,63.16-24,106-6.89,50.78,29.78,70.55,19,116a131.37,131.37,0,0,1-19,40c-9.5,13.58-308.57,192.91-980,14-157.21-41.89-221.92-73.33-369-85-163.56-13-264.74-21-394,16C113.38,812,59.86,849.32,5,819.5c-61.8-33.59-74.65-124.82-82-177-5.69-40.39-16.91-120.11,26-154C-20.76,464.62,23.14,474,36,476.5Z"/><line x1="101" y1="485.5" y2="579.5"/><line x1="256.12" y1="493.06" y2="746.5"/><line x1="448.67" y1="476.33" x2="158" y2="764.5"/><line x1="628" y1="475.5" x2="354" y2="747.5"/><line x1="806.95" y1="464.97" x2="527" y2="742.5"/><line x1="985.95" y1="464.97" x2="710" y2="738.5"/><line x1="1166.95" y1="464.97" x2="876.28" y2="753.14"/><line x1="1361.95" y1="464.97" x2="1071.28" y2="753.14"/><line x1="1543.95" y1="464.97" x2="1253.28" y2="753.14"/><line x1="1713.95" y1="475.97" x2="1433" y2="754.5"/><line x1="1891.95" y1="475.97" x2="1615" y2="750.5"/><line x1="1967" y1="594.5" x2="1803" y2="756.5"/><line x1="1700" y1="468.5" x2="2117.28" y2="774.14"/><line x1="1462.98" y1="468.24" x2="1880.26" y2="773.87"/><line x1="1214.98" y1="467.24" x2="1599" y2="748.5"/><line x1="969.98" y1="467.24" x2="1361" y2="753.5"/><line x1="731.98" y1="468.24" x2="1119" y2="757.5"/><line x1="500.98" y1="468.24" x2="887" y2="742.5"/><line x1="243.98" y1="478.24" x2="597" y2="736.5"/><line x1="32.98" y1="478.24" x2="385" y2="745.5"/><line x1="1.98" y1="640.24" x2="158" y2="764.5"/><path class="cls-3" d="M724.77,733.72c-60.14-.93-61.37,1.09-230.43,6.38-46.25,1.44-61.89,3-93.7,4.61-124,6.08-247.4,21.46-371.23,30.48-33,2.4-47.48,5.3-64.24,15.95-81.17,51.56-13.12,213.1,0,240.06,157.51,323.68,1721.79,412,1956.59,35.1,40.94-65.72,86-217.16,1-281.54-21.26-16.09-51.57-27.45-178.43-35.09-31.2-1.88-54.52-2.8-60.89-2.89-129.27-1.85-275.11,4.61-311.26,6.08-96,3.9-250.78,5.33-387.44-3.19C879.49,743.1,836.33,735.43,724.77,733.72Z"/><path class="cls-4" d="M1096.91,775.94c-19.81,5.17-27.55,10.89-32.39,15.76-12.9,13-14,28.72-17.52,47.8-2.62,14.25-9.75,35.17-24,77-19.08,56-33.61,78.35-22,94,4.12,5.53,9.85,7.93,13.85,9.38,24.77,9,54.46,8.85,329.27,14.86,178.48,3.9,231.51,5.39,266.69-4.79,14.57-4.22,24.76-10.06,26.71-44.57a161.16,161.16,0,0,0-.43-22.67,118.56,118.56,0,0,1-.09-17.23c1.28-17.64,6.31-47.67,7-51,4.81-24.19,6.37-49,12-73,1.89-8.06,4.88-19.86-1.36-28.7-4.66-6.59-12.56-8.47-16.88-9.68-30.21-8.42-56.69-1.7-214.34-5.75-59.87-1.53-106.14-3.79-168.33-4.58-97.11-1.24-58,.47-71.34-.21C1151.93,771,1128.46,767.7,1096.91,775.94Z"/><ellipse class="cls-2" cx="1150.5" cy="825.5" rx="70.5" ry="38"/><ellipse class="cls-2" cx="1333.5" cy="830.5" rx="70.5" ry="38"/><ellipse class="cls-2" cx="1507.5" cy="949.5" rx="70.5" ry="38"/><ellipse class="cls-2" cx="1533.5" cy="838.5" rx="70.5" ry="38"/><ellipse class="cls-2" cx="1319.5" cy="949.5" rx="70.5" ry="38"/><ellipse class="cls-2" cx="1120.5" cy="941.5" rx="70.5" ry="38"/><path class="cls-5" d="M1091.84,816.5a11.53,11.53,0,0,1-5.34-2.82c-3-2.84-3.53-6.59-3.88-9.14a14.74,14.74,0,0,1,.5-7.94c1.64-4.11,5.19-6,7.3-7.08,3.68-1.88,7.63-2.52,13.84-2.24,9,.4,11.79,2.24,20.47,3.62a71.93,71.93,0,0,0,20.82.69c10-1.28,9.62-4,23-7.13,10.59-2.47,18-2.43,24.3-1.38,9.41,1.58,12,4.66,12.71,5.52,4.64,5.91,2.16,14,1.93,14.67-1.2,3.68-4,7.73-5.66,7.19-1.14-.38.56-3.93-1.52-7.82-1.21-2.27-3.15-3.68-5.14-5.12a16.72,16.72,0,0,0-4.72-2.65c-2.39-.78-4.43-.6-8.34.06a89.17,89.17,0,0,0-9.78,2c-16.2,5-17.24,6.17-23.74,7.6-8.06,1.77-13.83,3-20.87,1-4.71-1.38-6.06-3.1-12-4.31-4.46-.91-9.39-1.92-14,.17C1093.85,804.9,1092.1,814.88,1091.84,816.5Z"/><path class="cls-6" d="M1093.05,807a16,16,0,0,1,5.15-6.42c1.26-.9,5.89-3.92,19-1.81,11.09,1.79,11.17,4.51,19.44,5.19,7.48.61,13.33-1.12,18.5-2.64,10.38-3,10.61-5.77,19.25-7.55,5.64-1.16,12.57-2.59,19.29,1.36,1,.6,7.77,4.71,9.42,12.28,1.93,8.86-4.56,16.11-7.78,19.72-6.81,7.61-14.77,10.18-23.48,12.87a93.87,93.87,0,0,1-38,3.61c-10.12-1.18-22.14-2.58-32.21-11.55-2.65-2.36-8.15-7.38-9.48-15A17.46,17.46,0,0,1,1093.05,807Z"/><ellipse class="cls-7" cx="1162.03" cy="820.43" rx="0.69" ry="0.77" transform="translate(-256.16 710.26) rotate(-30.78)"/><ellipse class="cls-8" cx="1131.54" cy="826.42" rx="4.05" ry="1.01" transform="translate(-40.16 58) rotate(-2.89)"/><path class="cls-9" d="M1133.16,823.47a5.62,5.62,0,0,1,.27-2.79,2.13,2.13,0,0,1,1.5-1.26,2,2,0,0,1,1.77,1,11.27,11.27,0,0,1,1.22,2.8.77.77,0,0,0,.92.52.75.75,0,0,0,.52-.92c-.61-1.71-1.21-3.83-3-4.63a3.3,3.3,0,0,0-4.33,2,6.83,6.83,0,0,0-.34,3.23.77.77,0,0,0,.75.75.75.75,0,0,0,.75-.75Z"/><path class="cls-9" d="M1143,826.11c.3,2.07,2.82,3.38,4.75,3.24a3.37,3.37,0,0,0,2.63-1.43,3,3,0,0,0,.38-2.79.78.78,0,0,0-.92-.53.77.77,0,0,0-.53.93,1.58,1.58,0,0,1-.2,1.6,1.91,1.91,0,0,1-1.57.73c-1.31,0-2.9-.82-3.09-2.15a.75.75,0,1,0-1.45.4Z"/><path class="cls-9" d="M1135.09,811.06c-2.61-.15-5.7-.09-7.26,2.4-.52.82.78,1.57,1.29.75,1.23-2,4-1.77,6-1.65a.75.75,0,0,0,0-1.5Z"/><path class="cls-9" d="M1157.78,811.71a6.73,6.73,0,0,1,3.58-.69,3.56,3.56,0,0,1,2.5,1.49c.53.81,1.83.06,1.3-.76a5,5,0,0,0-3.4-2.18,8.3,8.3,0,0,0-4.74.85.75.75,0,0,0-.27,1,.77.77,0,0,0,1,.27Z"/><ellipse class="cls-10" cx="1161.03" cy="818.73" rx="3.63" ry="4.8" transform="translate(-255.44 709.5) rotate(-30.78)"/><ellipse class="cls-7" cx="1159.51" cy="817.95" rx="1.59" ry="1.68" transform="translate(-255.25 708.62) rotate(-30.78)"/><ellipse class="cls-8" cx="1165.41" cy="823.43" rx="4.05" ry="1.01" transform="translate(-39.97 59.7) rotate(-2.89)"/><path class="cls-5" d="M1087.14,792.6c-.25-1.46-2.67-2.35-4.16-2.55-2-.27-4.45.37-4.78,1.72-.25,1,.86,1.91.45,2.53s-1.75-.17-2.83.57a2.66,2.66,0,0,0-1,2.81c.55,1.7,3.32,1.85,3.38,3,0,.68-.92.79-1.07,1.75s.86,2.3,1.72,2.89c1.81,1.24,4.58.95,5.13-.26.33-.73-.4-1.26-.7-2.94a8.48,8.48,0,0,1,.76-4.93C1085.37,794.24,1087.38,794,1087.14,792.6Z"/><path class="cls-5" d="M1206.45,802.73c.68,1.34,3.21,1.43,4.67,1.14,1.9-.36,4-1.77,3.94-3.19-.08-1.07-1.38-1.56-1.18-2.3s1.69-.39,2.47-1.45a2.8,2.8,0,0,0,.06-3c-1-1.47-3.67-.73-4.08-1.84-.24-.65.62-1.06.47-2s-1.5-1.95-2.48-2.25c-2.07-.62-4.57.54-4.71,1.89-.09.81.75,1.09,1.53,2.62a8.86,8.86,0,0,1,.78,5C1207.61,800.58,1205.81,801.47,1206.45,802.73Z"/><path class="cls-6" d="M1091.55,789.21c-.42-1,2.27-3.09,3.87-4.09,5-3.11,10.85-3.07,17.92-2,12.68,1.83,12.64,4.41,21.17,5a49.45,49.45,0,0,0,19.07-2.77c7.33-2.43,7.44-4.26,15.14-6.54,5.32-1.57,10.32-3,16.51-1.74,7.85,1.59,13.89,6.7,13.6,7.39-.18.45-2.93-1.1-7.39-1.63-3.19-.38-5.57,0-12.8,1.7-8.9,2.14-13.35,3.2-17.81,4.81-6.57,2.36-6.78,3.14-11.29,4.16a46.44,46.44,0,0,1-12.66,1.06,51.35,51.35,0,0,1-9.45-1.5c-4.61-1.12-4.81-1.75-9.18-2.79a38.63,38.63,0,0,0-10.46-1.43c-3.13.05-4.2.55-10.62.92C1093.08,789.92,1091.8,789.82,1091.55,789.21Z"/><path class="cls-5" d="M1273.63,824.83a11.53,11.53,0,0,1-5.34-2.82c-3-2.85-3.53-6.59-3.88-9.15a14.82,14.82,0,0,1,.51-7.93c1.63-4.11,5.18-6,7.29-7.08,3.68-1.88,7.63-2.52,13.84-2.24,9,.4,11.79,2.24,20.47,3.62a72.29,72.29,0,0,0,20.82.69c10-1.28,9.62-4,23-7.13,10.59-2.48,18-2.44,24.29-1.38,9.41,1.57,12,4.66,12.71,5.52,4.65,5.91,2.16,14,1.93,14.67-1.19,3.68-4,7.73-5.66,7.19-1.13-.38.56-3.94-1.52-7.82-1.21-2.27-3.15-3.68-5.14-5.12a16.22,16.22,0,0,0-4.72-2.65c-2.39-.78-4.42-.6-8.33.06a89.94,89.94,0,0,0-9.79,2c-16.2,5-17.24,6.16-23.74,7.59-8.06,1.78-13.82,3-20.87,1-4.71-1.38-6-3.1-12-4.31-4.46-.91-9.39-1.92-14,.17C1275.65,813.23,1273.89,823.21,1273.63,824.83Z"/><path class="cls-6" d="M1274.85,815.29a15.83,15.83,0,0,1,5.14-6.42c1.26-.91,5.89-3.92,19-1.81,11.1,1.79,11.17,4.5,19.45,5.18,7.47.62,13.32-1.11,18.49-2.63,10.38-3.05,10.61-5.78,19.25-7.55,5.64-1.16,12.57-2.59,19.29,1.36,1,.6,7.77,4.71,9.42,12.27,1.93,8.87-4.56,16.12-7.78,19.73-6.81,7.61-14.77,10.18-23.48,12.87a94,94,0,0,1-38,3.61c-10.13-1.18-22.15-2.58-32.22-11.55-2.65-2.36-8.15-7.38-9.48-15A17.4,17.4,0,0,1,1274.85,815.29Z"/><ellipse class="cls-7" cx="1343.82" cy="828.76" rx="0.69" ry="0.77" transform="translate(-234.82 804.46) rotate(-30.78)"/><ellipse class="cls-8" cx="1313.33" cy="834.75" rx="4.05" ry="1.01" transform="translate(-40.35 67.17) rotate(-2.89)"/><path class="cls-9" d="M1315,831.8a5.56,5.56,0,0,1,.28-2.8,2.1,2.1,0,0,1,1.49-1.25,2.06,2.06,0,0,1,1.78,1,11.73,11.73,0,0,1,1.21,2.79.78.78,0,0,0,.92.53.76.76,0,0,0,.53-.92c-.62-1.71-1.22-3.83-3-4.63a3.31,3.31,0,0,0-4.34,2,6.83,6.83,0,0,0-.34,3.23.77.77,0,0,0,.75.75.75.75,0,0,0,.75-.75Z"/><path class="cls-9" d="M1324.83,834.44c.31,2.06,2.82,3.38,4.75,3.24a3.39,3.39,0,0,0,2.64-1.43,3,3,0,0,0,.37-2.79.78.78,0,0,0-.92-.53.76.76,0,0,0-.53.92,1.59,1.59,0,0,1-.19,1.61,2,2,0,0,1-1.58.73c-1.31,0-2.9-.82-3.09-2.15a.76.76,0,0,0-.92-.53.78.78,0,0,0-.53.93Z"/><path class="cls-9" d="M1316.88,819.39c-2.61-.15-5.7-.1-7.26,2.39-.51.82.78,1.58,1.29.76,1.23-2,4-1.77,6-1.65a.75.75,0,0,0,0-1.5Z"/><path class="cls-9" d="M1339.57,820a6.66,6.66,0,0,1,3.58-.69,3.58,3.58,0,0,1,2.51,1.49c.52.81,1.82,0,1.29-.76a5,5,0,0,0-3.4-2.18,8.38,8.38,0,0,0-4.74.84.77.77,0,0,0-.27,1,.78.78,0,0,0,1,.27Z"/><ellipse class="cls-10" cx="1342.82" cy="827.05" rx="3.63" ry="4.8" transform="translate(-234.09 803.71) rotate(-30.78)"/><ellipse class="cls-7" cx="1341.3" cy="826.28" rx="1.59" ry="1.68" transform="translate(-233.91 802.82) rotate(-30.78)"/><ellipse class="cls-8" cx="1347.2" cy="831.76" rx="4.05" ry="1.01" transform="translate(-40.16 68.87) rotate(-2.89)"/><path class="cls-5" d="M1268.93,800.93c-.25-1.46-2.67-2.35-4.16-2.56-2-.26-4.45.37-4.78,1.73-.24,1,.86,1.9.45,2.53s-1.75-.17-2.83.57a2.68,2.68,0,0,0-1,2.81c.55,1.7,3.32,1.84,3.38,3,0,.69-.92.8-1.07,1.76s.87,2.3,1.72,2.88c1.81,1.25,4.58,1,5.13-.25.33-.74-.4-1.26-.7-2.94a8.56,8.56,0,0,1,.76-4.93C1267.16,802.57,1269.17,802.32,1268.93,800.93Z"/><path class="cls-5" d="M1388.25,811.06c.67,1.34,3.2,1.42,4.66,1.14,1.91-.37,4-1.77,3.94-3.19-.07-1.07-1.37-1.56-1.18-2.3s1.69-.39,2.47-1.45a2.8,2.8,0,0,0,.06-3c-1-1.47-3.67-.73-4.07-1.84-.25-.66.61-1.06.46-2s-1.5-2-2.48-2.25c-2.06-.62-4.56.54-4.71,1.89-.09.81.75,1.08,1.54,2.62a8.92,8.92,0,0,1,.77,5C1389.4,808.91,1387.61,809.8,1388.25,811.06Z"/><path class="cls-6" d="M1273.34,797.54c-.42-1,2.28-3.09,3.87-4.09,5-3.11,10.85-3.07,17.92-2.05,12.69,1.84,12.64,4.42,21.17,5a49.65,49.65,0,0,0,19.07-2.77c7.33-2.43,7.44-4.26,15.14-6.54,5.33-1.58,10.32-3,16.51-1.74,7.85,1.58,13.89,6.7,13.61,7.39-.19.45-2.94-1.11-7.4-1.63-3.19-.38-5.57,0-12.8,1.7-8.9,2.14-13.34,3.2-17.81,4.81-6.57,2.36-6.78,3.14-11.29,4.16a45.91,45.91,0,0,1-12.66,1,51.53,51.53,0,0,1-9.45-1.49c-4.61-1.12-4.8-1.75-9.17-2.8a39.57,39.57,0,0,0-10.47-1.43c-3.13.06-4.2.56-10.62.93C1274.88,798.25,1273.59,798.15,1273.34,797.54Z"/><path class="cls-5" d="M1479.63,829.83a11.53,11.53,0,0,1-5.34-2.82c-3-2.85-3.53-6.59-3.88-9.15a14.82,14.82,0,0,1,.51-7.93c1.63-4.11,5.18-6,7.29-7.08,3.68-1.88,7.63-2.52,13.84-2.24,9,.4,11.79,2.24,20.47,3.62a72.29,72.29,0,0,0,20.82.69c10-1.28,9.62-4,23-7.13,10.59-2.48,18-2.44,24.29-1.38,9.41,1.57,12,4.66,12.71,5.52,4.65,5.91,2.16,14,1.93,14.67-1.19,3.68-4,7.73-5.66,7.19-1.13-.38.56-3.94-1.52-7.82-1.21-2.27-3.15-3.68-5.14-5.12a16.22,16.22,0,0,0-4.72-2.65c-2.39-.78-4.42-.6-8.33.06a89.94,89.94,0,0,0-9.79,2c-16.2,5-17.24,6.16-23.74,7.59-8.06,1.78-13.82,3-20.87,1-4.71-1.38-6-3.1-12-4.31-4.46-.91-9.39-1.92-14,.17C1481.65,818.23,1479.89,828.21,1479.63,829.83Z"/><path class="cls-6" d="M1480.85,820.29a15.83,15.83,0,0,1,5.14-6.42c1.26-.91,5.89-3.92,19-1.81,11.1,1.79,11.17,4.5,19.45,5.18,7.47.62,13.32-1.11,18.49-2.63,10.38-3.05,10.61-5.78,19.25-7.55,5.64-1.16,12.57-2.59,19.29,1.36,1,.6,7.77,4.71,9.42,12.27,1.93,8.87-4.56,16.12-7.78,19.73-6.81,7.61-14.77,10.18-23.48,12.87a94,94,0,0,1-38,3.61c-10.13-1.18-22.15-2.58-32.22-11.55-2.65-2.36-8.15-7.38-9.48-15A17.4,17.4,0,0,1,1480.85,820.29Z"/><ellipse class="cls-7" cx="1549.82" cy="833.76" rx="0.69" ry="0.77" transform="translate(-208.36 910.59) rotate(-30.78)"/><ellipse class="cls-8" cx="1519.33" cy="839.75" rx="4.05" ry="1.01" transform="translate(-40.34 77.54) rotate(-2.89)"/><path class="cls-9" d="M1521,836.8a5.56,5.56,0,0,1,.28-2.8,2.1,2.1,0,0,1,1.49-1.25,2.06,2.06,0,0,1,1.78,1,11.73,11.73,0,0,1,1.21,2.79.78.78,0,0,0,.92.53.76.76,0,0,0,.53-.92c-.62-1.71-1.22-3.83-3-4.63a3.31,3.31,0,0,0-4.34,2,6.83,6.83,0,0,0-.34,3.23.77.77,0,0,0,.75.75.75.75,0,0,0,.75-.75Z"/><path class="cls-9" d="M1530.83,839.44c.31,2.06,2.82,3.38,4.75,3.24a3.39,3.39,0,0,0,2.64-1.43,3,3,0,0,0,.37-2.79.78.78,0,0,0-.92-.53.76.76,0,0,0-.53.92,1.59,1.59,0,0,1-.19,1.61,2,2,0,0,1-1.58.73c-1.31,0-2.9-.82-3.09-2.15a.76.76,0,0,0-.92-.53.78.78,0,0,0-.53.93Z"/><path class="cls-9" d="M1522.88,824.39c-2.61-.15-5.7-.1-7.26,2.39-.51.82.78,1.58,1.29.76,1.23-2,4-1.77,6-1.65a.75.75,0,0,0,0-1.5Z"/><path class="cls-9" d="M1545.57,825a6.66,6.66,0,0,1,3.58-.69,3.58,3.58,0,0,1,2.51,1.49c.52.81,1.82,0,1.29-.76a5,5,0,0,0-3.4-2.18,8.38,8.38,0,0,0-4.74.84.77.77,0,0,0-.27,1,.78.78,0,0,0,1,.27Z"/><ellipse class="cls-10" cx="1548.82" cy="832.05" rx="3.63" ry="4.8" transform="translate(-207.63 909.84) rotate(-30.78)"/><ellipse class="cls-7" cx="1547.3" cy="831.28" rx="1.59" ry="1.68" transform="translate(-207.45 908.95) rotate(-30.78)"/><ellipse class="cls-8" cx="1553.2" cy="836.76" rx="4.05" ry="1.01" transform="translate(-40.15 79.24) rotate(-2.89)"/><path class="cls-5" d="M1474.93,805.93c-.25-1.46-2.67-2.35-4.16-2.56-2-.26-4.45.37-4.78,1.73-.24,1,.86,1.9.45,2.53s-1.75-.17-2.83.57a2.68,2.68,0,0,0-1,2.81c.55,1.7,3.32,1.84,3.38,3,0,.69-.92.8-1.07,1.76s.87,2.3,1.72,2.88c1.81,1.25,4.58,1,5.13-.25.33-.74-.4-1.26-.7-2.94a8.56,8.56,0,0,1,.76-4.93C1473.16,807.57,1475.17,807.32,1474.93,805.93Z"/><path class="cls-5" d="M1594.25,816.06c.67,1.34,3.2,1.42,4.66,1.14,1.91-.37,4-1.77,3.94-3.19-.07-1.07-1.37-1.56-1.18-2.3s1.69-.39,2.47-1.45a2.8,2.8,0,0,0,.06-3c-1-1.47-3.67-.73-4.07-1.84-.25-.66.61-1.06.46-2s-1.5-2-2.48-2.25c-2.06-.62-4.56.54-4.71,1.89-.09.81.75,1.08,1.54,2.62a8.92,8.92,0,0,1,.77,5C1595.4,813.91,1593.61,814.8,1594.25,816.06Z"/><path class="cls-6" d="M1479.34,802.54c-.42-1,2.28-3.09,3.87-4.09,5-3.11,10.85-3.07,17.92-2.05,12.69,1.84,12.64,4.42,21.17,5a49.65,49.65,0,0,0,19.07-2.77c7.33-2.43,7.44-4.26,15.14-6.54,5.33-1.58,10.32-3,16.51-1.74,7.85,1.58,13.89,6.7,13.61,7.39-.19.45-2.94-1.11-7.4-1.63-3.19-.38-5.57,0-12.8,1.7-8.9,2.14-13.34,3.2-17.81,4.81-6.57,2.36-6.78,3.14-11.29,4.16a45.91,45.91,0,0,1-12.66,1,51.53,51.53,0,0,1-9.45-1.49c-4.61-1.12-4.8-1.75-9.17-2.8a39.57,39.57,0,0,0-10.47-1.43c-3.13.06-4.2.56-10.62.93C1480.88,803.25,1479.59,803.15,1479.34,802.54Z"/><path class="cls-5" d="M1066.63,935.83a11.53,11.53,0,0,1-5.34-2.82c-3-2.85-3.53-6.59-3.88-9.15a14.82,14.82,0,0,1,.51-7.93c1.63-4.11,5.18-6,7.29-7.08,3.68-1.88,7.63-2.52,13.84-2.24,9,.4,11.79,2.24,20.47,3.62a72.29,72.29,0,0,0,20.82.69c10-1.28,9.62-4,23-7.13,10.59-2.48,18-2.44,24.29-1.38,9.41,1.57,12,4.66,12.71,5.52,4.65,5.91,2.16,14,1.93,14.67-1.19,3.68-4,7.73-5.66,7.19-1.13-.38.56-3.94-1.52-7.82-1.21-2.27-3.15-3.68-5.14-5.12a16.22,16.22,0,0,0-4.72-2.65c-2.39-.78-4.42-.6-8.33.06a89.94,89.94,0,0,0-9.79,2c-16.2,5-17.24,6.16-23.74,7.59-8.06,1.78-13.82,3-20.87,1-4.71-1.38-6-3.1-12-4.31-4.46-.91-9.39-1.92-14,.17C1068.65,924.23,1066.89,934.21,1066.63,935.83Z"/><path class="cls-6" d="M1067.85,926.29a15.83,15.83,0,0,1,5.14-6.42c1.26-.91,5.89-3.92,19-1.81,11.1,1.79,11.17,4.5,19.45,5.18,7.47.62,13.32-1.11,18.49-2.63,10.38-3.05,10.61-5.78,19.25-7.55,5.64-1.16,12.57-2.59,19.29,1.36,1,.6,7.77,4.71,9.42,12.27,1.93,8.87-4.56,16.12-7.78,19.73-6.81,7.61-14.77,10.18-23.48,12.87a94,94,0,0,1-38,3.61c-10.13-1.18-22.15-2.58-32.22-11.55-2.65-2.36-8.15-7.38-9.48-15A17.4,17.4,0,0,1,1067.85,926.29Z"/><ellipse class="cls-7" cx="1136.82" cy="939.76" rx="0.69" ry="0.77" transform="translate(-320.78 714.16) rotate(-30.78)"/><ellipse class="cls-8" cx="1106.33" cy="945.75" rx="4.05" ry="1.01" transform="translate(-46.2 56.89) rotate(-2.89)"/><path class="cls-9" d="M1108,942.8a5.56,5.56,0,0,1,.28-2.8,2.1,2.1,0,0,1,1.49-1.25,2.06,2.06,0,0,1,1.78,1,11.73,11.73,0,0,1,1.21,2.79.78.78,0,0,0,.92.53.76.76,0,0,0,.53-.92c-.62-1.71-1.22-3.83-3-4.63a3.31,3.31,0,0,0-4.34,2,6.83,6.83,0,0,0-.34,3.23.77.77,0,0,0,.75.75.75.75,0,0,0,.75-.75Z"/><path class="cls-9" d="M1117.83,945.44c.31,2.06,2.82,3.38,4.75,3.24a3.39,3.39,0,0,0,2.64-1.43,3,3,0,0,0,.37-2.79.78.78,0,0,0-.92-.53.76.76,0,0,0-.53.92,1.59,1.59,0,0,1-.19,1.61,2,2,0,0,1-1.58.73c-1.31,0-2.9-.82-3.09-2.15a.76.76,0,0,0-.92-.53.78.78,0,0,0-.53.93Z"/><path class="cls-9" d="M1109.88,930.39c-2.61-.15-5.7-.1-7.26,2.39-.51.82.78,1.58,1.29.76,1.23-2,4-1.77,6-1.65a.75.75,0,0,0,0-1.5Z"/><path class="cls-9" d="M1132.57,931a6.66,6.66,0,0,1,3.58-.69,3.58,3.58,0,0,1,2.51,1.49c.52.81,1.82,0,1.29-.76a5,5,0,0,0-3.4-2.18,8.38,8.38,0,0,0-4.74.84.77.77,0,0,0-.27,1,.78.78,0,0,0,1,.27Z"/><ellipse class="cls-10" cx="1135.82" cy="938.05" rx="3.63" ry="4.8" transform="translate(-320.05 713.41) rotate(-30.78)"/><ellipse class="cls-7" cx="1134.3" cy="937.28" rx="1.59" ry="1.68" transform="translate(-319.87 712.53) rotate(-30.78)"/><ellipse class="cls-8" cx="1140.2" cy="942.76" rx="4.05" ry="1.01" transform="translate(-46.01 58.59) rotate(-2.89)"/><path class="cls-5" d="M1061.93,911.93c-.25-1.46-2.67-2.35-4.16-2.56-2-.26-4.45.37-4.78,1.73-.24,1,.86,1.9.45,2.53s-1.75-.17-2.83.57a2.68,2.68,0,0,0-1,2.81c.55,1.7,3.32,1.84,3.38,3,0,.69-.92.8-1.07,1.76s.87,2.3,1.72,2.88c1.81,1.25,4.58,1,5.13-.25.33-.74-.4-1.26-.7-2.94a8.56,8.56,0,0,1,.76-4.93C1060.16,913.57,1062.17,913.32,1061.93,911.93Z"/><path class="cls-5" d="M1181.25,922.06c.67,1.34,3.2,1.42,4.66,1.14,1.91-.37,4-1.77,3.94-3.19-.07-1.07-1.37-1.56-1.18-2.3s1.69-.39,2.47-1.45a2.8,2.8,0,0,0,.06-3c-1-1.47-3.67-.73-4.07-1.84-.25-.66.61-1.06.46-2s-1.5-2-2.48-2.25c-2.06-.62-4.56.54-4.71,1.89-.09.81.75,1.08,1.54,2.62a8.92,8.92,0,0,1,.77,5C1182.4,919.91,1180.61,920.8,1181.25,922.06Z"/><path class="cls-6" d="M1066.34,908.54c-.42-1,2.28-3.09,3.87-4.09,5-3.11,10.85-3.07,17.92-2.05,12.69,1.84,12.64,4.42,21.17,5a49.65,49.65,0,0,0,19.07-2.77c7.33-2.43,7.44-4.26,15.14-6.54,5.33-1.58,10.32-3,16.51-1.74,7.85,1.58,13.89,6.7,13.61,7.39-.19.45-2.94-1.11-7.4-1.63-3.19-.38-5.57,0-12.8,1.7-8.9,2.14-13.34,3.2-17.81,4.81-6.57,2.36-6.78,3.14-11.29,4.16a45.91,45.91,0,0,1-12.66,1,51.53,51.53,0,0,1-9.45-1.49c-4.61-1.12-4.8-1.75-9.17-2.8a39.57,39.57,0,0,0-10.47-1.43c-3.13.06-4.2.56-10.62.93C1067.88,909.25,1066.59,909.15,1066.34,908.54Z"/><path class="cls-5" d="M1263.63,941.83a11.53,11.53,0,0,1-5.34-2.82c-3-2.85-3.53-6.59-3.88-9.15a14.82,14.82,0,0,1,.51-7.93c1.63-4.11,5.18-6,7.29-7.08,3.68-1.88,7.63-2.52,13.84-2.24,9,.4,11.79,2.24,20.47,3.62a72.29,72.29,0,0,0,20.82.69c10-1.28,9.62-4,23-7.13,10.59-2.48,18-2.44,24.29-1.38,9.41,1.57,12,4.66,12.71,5.52,4.65,5.91,2.16,14,1.93,14.67-1.19,3.68-4,7.73-5.66,7.19-1.13-.38.56-3.94-1.52-7.82-1.21-2.27-3.15-3.68-5.14-5.12a16.22,16.22,0,0,0-4.72-2.65c-2.39-.78-4.42-.6-8.33.06a89.94,89.94,0,0,0-9.79,2c-16.2,5-17.24,6.16-23.74,7.59-8.06,1.78-13.82,3-20.87,1-4.71-1.38-6-3.1-12-4.31-4.46-.91-9.39-1.92-14,.17C1265.65,930.23,1263.89,940.21,1263.63,941.83Z"/><path class="cls-6" d="M1264.85,932.29a15.83,15.83,0,0,1,5.14-6.42c1.26-.91,5.89-3.92,19-1.81,11.1,1.79,11.17,4.5,19.45,5.18,7.47.62,13.32-1.11,18.49-2.63,10.38-3.05,10.61-5.78,19.25-7.55,5.64-1.16,12.57-2.59,19.29,1.36,1,.6,7.77,4.71,9.42,12.27,1.93,8.87-4.56,16.12-7.78,19.73-6.81,7.61-14.77,10.18-23.48,12.87a94,94,0,0,1-38,3.61c-10.13-1.18-22.15-2.58-32.22-11.55-2.65-2.36-8.15-7.38-9.48-15A17.4,17.4,0,0,1,1264.85,932.29Z"/><ellipse class="cls-7" cx="1333.82" cy="945.76" rx="0.69" ry="0.77" transform="translate(-296.1 815.83) rotate(-30.78)"/><ellipse class="cls-8" cx="1303.33" cy="951.75" rx="4.05" ry="1.01" transform="translate(-46.25 66.81) rotate(-2.89)"/><path class="cls-9" d="M1305,948.8a5.56,5.56,0,0,1,.28-2.8,2.1,2.1,0,0,1,1.49-1.25,2.06,2.06,0,0,1,1.78,1,11.73,11.73,0,0,1,1.21,2.79.78.78,0,0,0,.92.53.76.76,0,0,0,.53-.92c-.62-1.71-1.22-3.83-3-4.63a3.31,3.31,0,0,0-4.34,2,6.83,6.83,0,0,0-.34,3.23.77.77,0,0,0,.75.75.75.75,0,0,0,.75-.75Z"/><path class="cls-9" d="M1314.83,951.44c.31,2.06,2.82,3.38,4.75,3.24a3.39,3.39,0,0,0,2.64-1.43,3,3,0,0,0,.37-2.79.78.78,0,0,0-.92-.53.76.76,0,0,0-.53.92,1.59,1.59,0,0,1-.19,1.61,2,2,0,0,1-1.58.73c-1.31,0-2.9-.82-3.09-2.15a.76.76,0,0,0-.92-.53.78.78,0,0,0-.53.93Z"/><path class="cls-9" d="M1306.88,936.39c-2.61-.15-5.7-.1-7.26,2.39-.51.82.78,1.58,1.29.76,1.23-2,4-1.77,6-1.65a.75.75,0,0,0,0-1.5Z"/><path class="cls-9" d="M1329.57,937a6.66,6.66,0,0,1,3.58-.69,3.58,3.58,0,0,1,2.51,1.49c.52.81,1.82,0,1.29-.76a5,5,0,0,0-3.4-2.18,8.38,8.38,0,0,0-4.74.84.77.77,0,0,0-.27,1,.78.78,0,0,0,1,.27Z"/><ellipse class="cls-10" cx="1332.82" cy="944.05" rx="3.63" ry="4.8" transform="translate(-295.37 815.07) rotate(-30.78)"/><ellipse class="cls-7" cx="1331.3" cy="943.28" rx="1.59" ry="1.68" transform="translate(-295.19 814.19) rotate(-30.78)"/><ellipse class="cls-8" cx="1337.2" cy="948.76" rx="4.05" ry="1.01" transform="translate(-46.06 68.51) rotate(-2.89)"/><path class="cls-5" d="M1258.93,917.93c-.25-1.46-2.67-2.35-4.16-2.56-2-.26-4.45.37-4.78,1.73-.24,1,.86,1.9.45,2.53s-1.75-.17-2.83.57a2.68,2.68,0,0,0-1,2.81c.55,1.7,3.32,1.84,3.38,3,0,.69-.92.8-1.07,1.76s.87,2.3,1.72,2.88c1.81,1.25,4.58,1,5.13-.25.33-.74-.4-1.26-.7-2.94a8.56,8.56,0,0,1,.76-4.93C1257.16,919.57,1259.17,919.32,1258.93,917.93Z"/><path class="cls-5" d="M1378.25,928.06c.67,1.34,3.2,1.42,4.66,1.14,1.91-.37,4-1.77,3.94-3.19-.07-1.07-1.37-1.56-1.18-2.3s1.69-.39,2.47-1.45a2.8,2.8,0,0,0,.06-3c-1-1.47-3.67-.73-4.07-1.84-.25-.66.61-1.06.46-2s-1.5-2-2.48-2.25c-2.06-.62-4.56.54-4.71,1.89-.09.81.75,1.08,1.54,2.62a8.92,8.92,0,0,1,.77,5C1379.4,925.91,1377.61,926.8,1378.25,928.06Z"/><path class="cls-6" d="M1263.34,914.54c-.42-1,2.28-3.09,3.87-4.09,5-3.11,10.85-3.07,17.92-2.05,12.69,1.84,12.64,4.42,21.17,5a49.65,49.65,0,0,0,19.07-2.77c7.33-2.43,7.44-4.26,15.14-6.54,5.33-1.58,10.32-3,16.51-1.74,7.85,1.58,13.89,6.7,13.61,7.39-.19.45-2.94-1.11-7.4-1.63-3.19-.38-5.57,0-12.8,1.7-8.9,2.14-13.34,3.2-17.81,4.81-6.57,2.36-6.78,3.14-11.29,4.16a45.91,45.91,0,0,1-12.66,1,51.53,51.53,0,0,1-9.45-1.49c-4.61-1.12-4.8-1.75-9.17-2.8a39.57,39.57,0,0,0-10.47-1.43c-3.13.06-4.2.56-10.62.93C1264.88,915.25,1263.59,915.15,1263.34,914.54Z"/><path class="cls-5" d="M1449.63,946.83a11.53,11.53,0,0,1-5.34-2.82c-3-2.85-3.53-6.59-3.88-9.15a14.82,14.82,0,0,1,.51-7.93c1.63-4.11,5.18-6,7.29-7.08,3.68-1.88,7.63-2.52,13.84-2.24,9,.4,11.79,2.24,20.47,3.62a72.29,72.29,0,0,0,20.82.69c10-1.28,9.62-4,23-7.13,10.59-2.48,18-2.44,24.29-1.38,9.41,1.57,12,4.66,12.71,5.52,4.65,5.91,2.16,14,1.93,14.67-1.19,3.68-4,7.73-5.66,7.19-1.13-.38.56-3.94-1.52-7.82-1.21-2.27-3.15-3.68-5.14-5.12a16.22,16.22,0,0,0-4.72-2.65c-2.39-.78-4.42-.6-8.33.06a89.94,89.94,0,0,0-9.79,2c-16.2,5-17.24,6.16-23.74,7.59-8.06,1.78-13.82,3-20.87,1-4.71-1.38-6-3.1-12-4.31-4.46-.91-9.39-1.92-14,.17C1451.65,935.23,1449.89,945.21,1449.63,946.83Z"/><path class="cls-6" d="M1450.85,937.29a15.83,15.83,0,0,1,5.14-6.42c1.26-.91,5.89-3.92,19-1.81,11.1,1.79,11.17,4.5,19.45,5.18,7.47.62,13.32-1.11,18.49-2.63,10.38-3.05,10.61-5.78,19.25-7.55,5.64-1.16,12.57-2.59,19.29,1.36,1,.6,7.77,4.71,9.42,12.27,1.93,8.87-4.56,16.12-7.78,19.73-6.81,7.61-14.77,10.18-23.48,12.87a94,94,0,0,1-38,3.61c-10.13-1.18-22.15-2.58-32.22-11.55-2.65-2.36-8.15-7.38-9.48-15A17.4,17.4,0,0,1,1450.85,937.29Z"/><ellipse class="cls-7" cx="1519.82" cy="950.76" rx="0.69" ry="0.77" transform="translate(-272.46 911.72) rotate(-30.78)"/><ellipse class="cls-8" cx="1489.33" cy="956.75" rx="4.05" ry="1.01" transform="translate(-46.27 76.18) rotate(-2.89)"/><path class="cls-9" d="M1491,953.8a5.56,5.56,0,0,1,.28-2.8,2.1,2.1,0,0,1,1.49-1.25,2.06,2.06,0,0,1,1.78,1,11.73,11.73,0,0,1,1.21,2.79.78.78,0,0,0,.92.53.76.76,0,0,0,.53-.92c-.62-1.71-1.22-3.83-3-4.63a3.31,3.31,0,0,0-4.34,2,6.83,6.83,0,0,0-.34,3.23.77.77,0,0,0,.75.75.75.75,0,0,0,.75-.75Z"/><path class="cls-9" d="M1500.83,956.44c.31,2.06,2.82,3.38,4.75,3.24a3.39,3.39,0,0,0,2.64-1.43,3,3,0,0,0,.37-2.79.78.78,0,0,0-.92-.53.76.76,0,0,0-.53.92,1.59,1.59,0,0,1-.19,1.61,2,2,0,0,1-1.58.73c-1.31,0-2.9-.82-3.09-2.15a.76.76,0,0,0-.92-.53.78.78,0,0,0-.53.93Z"/><path class="cls-9" d="M1492.88,941.39c-2.61-.15-5.7-.1-7.26,2.39-.51.82.78,1.58,1.29.76,1.23-2,4-1.77,6-1.65a.75.75,0,0,0,0-1.5Z"/><path class="cls-9" d="M1515.57,942a6.66,6.66,0,0,1,3.58-.69,3.58,3.58,0,0,1,2.51,1.49c.52.81,1.82,0,1.29-.76a5,5,0,0,0-3.4-2.18,8.38,8.38,0,0,0-4.74.84.77.77,0,0,0-.27,1,.78.78,0,0,0,1,.27Z"/><ellipse class="cls-10" cx="1518.82" cy="949.05" rx="3.63" ry="4.8" transform="translate(-271.73 910.97) rotate(-30.78)"/><ellipse class="cls-7" cx="1517.3" cy="948.28" rx="1.59" ry="1.68" transform="translate(-271.55 910.08) rotate(-30.78)"/><ellipse class="cls-8" cx="1523.2" cy="953.76" rx="4.05" ry="1.01" transform="translate(-46.08 77.88) rotate(-2.89)"/><path class="cls-5" d="M1444.93,922.93c-.25-1.46-2.67-2.35-4.16-2.56-2-.26-4.45.37-4.78,1.73-.24,1,.86,1.9.45,2.53s-1.75-.17-2.83.57a2.68,2.68,0,0,0-1,2.81c.55,1.7,3.32,1.84,3.38,3,0,.69-.92.8-1.07,1.76s.87,2.3,1.72,2.88c1.81,1.25,4.58,1,5.13-.25.33-.74-.4-1.26-.7-2.94a8.56,8.56,0,0,1,.76-4.93C1443.16,924.57,1445.17,924.32,1444.93,922.93Z"/><path class="cls-5" d="M1564.25,933.06c.67,1.34,3.2,1.42,4.66,1.14,1.91-.37,4-1.77,3.94-3.19-.07-1.07-1.37-1.56-1.18-2.3s1.69-.39,2.47-1.45a2.8,2.8,0,0,0,.06-3c-1-1.47-3.67-.73-4.07-1.84-.25-.66.61-1.06.46-2s-1.5-2-2.48-2.25c-2.06-.62-4.56.54-4.71,1.89-.09.81.75,1.08,1.54,2.62a8.92,8.92,0,0,1,.77,5C1565.4,930.91,1563.61,931.8,1564.25,933.06Z"/><path class="cls-6" d="M1449.34,919.54c-.42-1,2.28-3.09,3.87-4.09,5-3.11,10.85-3.07,17.92-2.05,12.69,1.84,12.64,4.42,21.17,5a49.65,49.65,0,0,0,19.07-2.77c7.33-2.43,7.44-4.26,15.14-6.54,5.33-1.58,10.32-3,16.51-1.74,7.85,1.58,13.89,6.7,13.61,7.39-.19.45-2.94-1.11-7.4-1.63-3.19-.38-5.57,0-12.8,1.7-8.9,2.14-13.34,3.2-17.81,4.81-6.57,2.36-6.78,3.14-11.29,4.16a45.91,45.91,0,0,1-12.66,1,51.53,51.53,0,0,1-9.45-1.49c-4.61-1.12-4.8-1.75-9.17-2.8a39.57,39.57,0,0,0-10.47-1.43c-3.13.06-4.2.56-10.62.93C1450.88,920.25,1449.59,920.15,1449.34,919.54Z"/><path class="cls-11" d="M720.06,765.75c-18.41-13.58-42.79-9.37-166.47-5.12-162.07,5.57-166.4-.06-187.74,10.24-43.67,21.07-55,77.18-77.6,189.41-5.6,27.77-5.73,35.32,0,44.37,37.78,59.65,264.33,79.46,355.46,14.5,18.06-12.87,31.48-49.43,57.58-122C739.68,790.37,732.52,774.94,720.06,765.75Z"/><ellipse class="cls-12" cx="419.5" cy="821.5" rx="70.5" ry="38"/><ellipse class="cls-12" cx="389" cy="949.5" rx="77" ry="44"/><ellipse class="cls-12" cx="607.5" cy="826.5" rx="70.5" ry="38"/><ellipse class="cls-12" cx="583.5" cy="954" rx="76.5" ry="45.5"/><path class="cls-13" d="M611.11,761.51a57.47,57.47,0,0,1,22.81,4.15c4.5,1.83,15.63,6.52,23.65,18.27,10.1,14.78,8.21,30.41,7.6,34.86a49.1,49.1,0,0,1-11.83,26.56c-12.57,14.07-29.68,16-35.47,16.6-5,.55-27.1,3-44.77-12.45-3.29-2.88-15.24-13.66-16.9-31.54-1.56-16.89,7.09-29.05,10.14-33.2C581.65,763.9,607,761.79,611.11,761.51Z"/><path class="cls-13" d="M665.34,845.91c-.08-3-3.83-5.91-7-5.56-1.26.14-2.15.88-3.87,2.34-4,3.39-3.77,5-7.19,7.95-2.72,2.36-4.3,2.58-4.42,4.11-.16,2,2.37,3.8,3.36,4.49,1.21.86,2.76,2,4.59,1.75,2-.22,2.37-1.87,5.94-5.21,2.89-2.7,3.78-2.66,6-5.21C664.46,848.53,665.39,847.44,665.34,845.91Z"/><path class="cls-12" d="M593.37,775.63a43.62,43.62,0,0,1,11.83-3.33,46.08,46.08,0,0,1,28.72,5.82c3.61,2.12,14,8.46,18.58,21.58,6.36,18.35-4.38,33.91-5.07,34.86-10.7,14.94-28.16,16.24-32.94,16.6-4.09.31-23.84,1.78-37.17-13.28-1.26-1.42-12.5-14.56-9.29-32.37C571.49,786.28,588.93,777.6,593.37,775.63Z"/><path class="cls-13" d="M649.9,854.48c-1.21,4.14,4.78,11.25,10.15,10.91a10.44,10.44,0,0,0,4.93-2c2.16-1.48,2-2.41,4.74-4.51,1.75-1.36,3.11-1.66,3.18-2.73,0-.51-.32-1.14-1-2.42-.26-.46-.28-.44-1-1.59a17.48,17.48,0,0,0-1-1.6,10.76,10.76,0,0,0-1.81-1.53c-.19-.15-.73-.61-1.81-1.53-1.57-1.34-1.54-1.34-1.81-1.53a6.94,6.94,0,0,0-2.65-1.47c-1.74-.26-2.93,2-5.58,4.57C652.08,853.1,650.48,852.53,649.9,854.48Z"/><path class="cls-13" d="M670.31,851.62a8.25,8.25,0,0,0-4,1.47c-1.94,1.2-2.13,2.21-5,5.83-2.7,3.34-3.4,3.54-3.51,4.74-.22,2.39,2.29,4.35,4.39,6.05,2.3,1.85,10.34,8.32,14.89,12.81,5.48,5.41,6.64,8.65,10.89,9.23a11.54,11.54,0,0,0,5.84-.91c4.93-1.9,7.13-6.08,8.13-8,.81-1.55,1.23-2.38,1.14-3.54-.2-2.35-2.35-3.78-5.23-5.91,0,0-.5-.37-8.83-7-4.23-3.39-7.85-6.8-9-7.85C675.12,853.91,673.34,851.52,670.31,851.62Z"/><path class="cls-13" d="M424,753.51a65.22,65.22,0,0,1,23.59,3.88c4.66,1.7,16.16,6.08,24.46,17,10.45,13.8,8.49,28.39,7.86,32.54a43.52,43.52,0,0,1-12.23,24.79c-13,13.14-30.7,14.9-36.69,15.5-5.17.51-28,2.8-46.31-11.62-3.4-2.69-15.76-12.75-17.47-29.44-1.61-15.77,7.33-27.12,10.49-31C393.49,755.74,419.73,753.77,424,753.51Z"/><path class="cls-13" d="M480.05,832.29c-.08-2.79-4-5.52-7.21-5.19-1.3.13-2.22.82-4,2.18-4.14,3.17-3.89,4.66-7.42,7.42-2.82,2.2-4.45,2.41-4.58,3.84-.17,1.87,2.45,3.54,3.47,4.19,1.25.8,2.86,1.82,4.75,1.64,2.12-.22,2.46-1.75,6.15-4.87,3-2.52,3.91-2.49,6.15-4.87C479.14,834.73,480.1,833.71,480.05,832.29Z"/><path class="cls-12" d="M405.61,766.68a49.14,49.14,0,0,1,12.23-3.09A51.79,51.79,0,0,1,447.55,769c3.74,2,14.52,7.9,19.22,20.14,6.57,17.14-4.54,31.65-5.24,32.54-11.07,13.95-29.13,15.16-34.08,15.5-4.22.28-24.65,1.66-38.44-12.4-1.3-1.32-12.93-13.59-9.61-30.21C383,776.63,401,768.53,405.61,766.68Z"/><path class="cls-13" d="M464.08,840.28c-1.25,3.87,4.94,10.5,10.5,10.19a11.63,11.63,0,0,0,5.1-1.89c2.23-1.39,2.09-2.25,4.9-4.21,1.81-1.27,3.22-1.55,3.29-2.55,0-.48-.33-1.07-1.07-2.26-.26-.43-.28-.41-1-1.49a16.44,16.44,0,0,0-1-1.49,12.11,12.11,0,0,0-1.87-1.43c-.2-.14-.76-.57-1.87-1.43-1.64-1.25-1.6-1.24-1.88-1.43a7.57,7.57,0,0,0-2.74-1.37c-1.8-.24-3,1.85-5.77,4.27C466.34,839,464.67,838.47,464.08,840.28Z"/><path class="cls-13" d="M485.19,837.62A9,9,0,0,0,481,839c-2,1.12-2.2,2.06-5.22,5.44-2.8,3.12-3.52,3.31-3.63,4.43-.23,2.22,2.37,4.06,4.54,5.64,2.38,1.73,10.69,7.77,15.4,12,5.67,5,6.86,8.07,11.26,8.61a13.21,13.21,0,0,0,6-.84,15.54,15.54,0,0,0,8.41-7.46c.84-1.45,1.28-2.22,1.18-3.3-.21-2.19-2.43-3.53-5.41-5.52,0,0-.52-.34-9.13-6.56-4.38-3.16-8.12-6.34-9.27-7.33C490.17,839.75,488.32,837.52,485.19,837.62Z"/><path class="cls-5" d="M396.11,788.13a15,15,0,0,1-.48-3.46,13.22,13.22,0,0,1,1-5.68,10.35,10.35,0,0,1,.65-1.25c.14-.23,2.08-3.51,4.78-4,.94-.18,2.24-.14,5.73,2a50.27,50.27,0,0,1,7.65,6.06c6.19,5.6,5.94,5.57,7.4,6.64a36.59,36.59,0,0,0,8.36,4.62c4.69,1.78,5.4.77,10,2.6A34.4,34.4,0,0,1,448.9,800c4.12,2.92,6.31,4.53,7.4,7.8a10.6,10.6,0,0,1,.24,6.64c-1.05,3.15-3.65,4.42-5.25,5.2s-4.59,1.84-10.27.86A36.52,36.52,0,0,1,427.4,815c-2-1.3-1.14-1-12.18-9.82a66.24,66.24,0,0,0-7.41-5.49c-4-2.24-6.27-2.45-8.6-5.19A15.83,15.83,0,0,1,396.11,788.13Z"/><path class="cls-5" d="M395.63,780.91a2.62,2.62,0,0,1-1.2-.29c-.32-.16-1.4-.71-1.43-1.73a1.77,1.77,0,0,1,.72-1.44c.45-.31.94-.18.95-.29s-.56-.12-.95-.58a2,2,0,0,1-.24-2,1.48,1.48,0,0,1,1.43-.58c.65.07,1,.49,1.2.29s-.19-.7,0-1.15.78-.53,1.19-.58a2.3,2.3,0,0,1,1.67.29c1.15.79,1.2,2.78,1.2,2.89C400.19,777.78,398.37,779.92,395.63,780.91Z"/><path class="cls-5" d="M456.85,810.84a2.58,2.58,0,0,1,1.21-.15c.35,0,1.52.19,1.79,1.16a2,2,0,0,1-.34,1.63c-.35.45-.86.5-.84.61s.57-.08,1.05.22a1.82,1.82,0,0,1,.71,1.85,1.67,1.67,0,0,1-1.23,1.06c-.64.16-1.09-.11-1.21.14s.35.6.28,1.1-.62.78-1,1a2.41,2.41,0,0,1-1.67.31c-1.29-.36-1.81-2.24-1.83-2.35C453.24,815.43,454.46,812.75,456.85,810.84Z"/><path class="cls-5" d="M580,803.28a15.37,15.37,0,0,1-.48-3.46,13.3,13.3,0,0,1,1-5.68,10.37,10.37,0,0,1,.65-1.25c.13-.23,2.07-3.51,4.77-4,.95-.19,2.24-.15,5.74,2a50.22,50.22,0,0,1,7.64,6.06c6.2,5.6,5.94,5.57,7.41,6.64a36.17,36.17,0,0,0,8.36,4.62c4.68,1.78,5.4.77,10,2.6a34.3,34.3,0,0,1,7.64,4.33c4.12,2.92,6.31,4.53,7.41,7.8a10.76,10.76,0,0,1,.24,6.64c-1.05,3.15-3.65,4.42-5.26,5.2s-4.59,1.85-10.27.87a36.77,36.77,0,0,1-13.62-5.49c-2-1.3-1.14-1-12.18-9.82a66.5,66.5,0,0,0-7.4-5.49c-4-2.24-6.27-2.45-8.6-5.19A15.86,15.86,0,0,1,580,803.28Z"/><path class="cls-5" d="M579.52,796.07a2.84,2.84,0,0,1-1.19-.29c-.32-.17-1.4-.72-1.43-1.74a1.76,1.76,0,0,1,.71-1.44c.45-.3.95-.17,1-.29s-.57-.12-1-.58a2,2,0,0,1-.24-2,1.5,1.5,0,0,1,1.44-.58c.65.07,1,.49,1.19.29s-.19-.7,0-1.15.78-.53,1.2-.58a2.3,2.3,0,0,1,1.67.29c1.15.79,1.19,2.78,1.19,2.89C584.08,792.93,582.27,795.07,579.52,796.07Z"/><path class="cls-5" d="M640.75,826a2.54,2.54,0,0,1,1.21-.15c.34,0,1.51.2,1.79,1.16a2,2,0,0,1-.34,1.63c-.36.45-.86.5-.85.61s.57-.08,1.06.22a1.86,1.86,0,0,1,.71,1.85,1.69,1.69,0,0,1-1.23,1.06c-.64.17-1.1-.11-1.22.14s.35.6.28,1.11-.62.77-1,1a2.38,2.38,0,0,1-1.67.31c-1.29-.35-1.81-2.24-1.84-2.35C637.13,830.58,638.36,827.9,640.75,826Z"/><rect class="cls-14" x="1723" y="440.68" width="178" height="25.52"/><path class="cls-14" d="M1737.55,461.51c-4.76,4.14-4.35,11.51-3.64,35.41,1,32.93.81,39.64,5.45,50,1.89,4.19,4.32,9.6,9.09,14.58,8.72,9.07,18.09,9.1,50.91,10.41,31.71,1.27,36.56,1.73,47.28,0,16.86-2.72,25.77-4.16,32.73-12.5,3.6-4.31,5.6-9.18,9.09-45.82,3.7-38.94,2.67-46.29-1.82-50-3.54-2.93-9-4.22-20-4.17-6,0-11.36-.47-32.68-.15-6.31.1-6,.11-9.14.15-10.49.15-25.18.94-41.82,0-10.29-.58-20.61.28-30.91,0C1743.66,459.2,1740.51,458.93,1737.55,461.51Z"/><ellipse class="cls-15" cx="1779.88" cy="491.47" rx="10.4" ry="13.79"/><ellipse class="cls-7" cx="1783.87" cy="484.75" rx="5.07" ry="6.72"/><ellipse class="cls-7" cx="1775.11" cy="497.17" rx="3.24" ry="4.2"/><ellipse class="cls-15" cx="1838.77" cy="492.92" rx="10.4" ry="13.79"/><ellipse class="cls-7" cx="1842.77" cy="486.21" rx="5.07" ry="6.72"/><ellipse class="cls-7" cx="1834.01" cy="498.62" rx="3.24" ry="4.2"/><path class="cls-14" d="M1828.06,438.78c1.82-4.58-3.3-13.75-10.68-16.47-8.28-3.05-16.53,3.07-18.72,9.08-1.4,3.85-1.56,11.08-1.56,11.08h0S1824.71,447.16,1828.06,438.78Z"/><path class="cls-16" d="M53.91,445.66c-9.86-15.14-1.29-17.59,0-109,1.46-102.62,0-140.36,0-140.36-1.4-36.58-3.15-49.93,4.91-70.18C76,83,116,62.84,121,60.42c5.92-2.89,35.3-16.64,75.22-13.44,12,1,40,3.55,67.05,22.4a113.63,113.63,0,0,1,42.51,56.74c2.61,7.32,4.66,15.45,6.54,50.77,2,36.86,1.73,65.18,1.64,79.14-.06,9.12-.38,55.77,0,89.59,1,89.63,7,91.39,0,103C278.49,507.82,95.89,510.07,53.91,445.66Z"/><rect class="cls-17" x="39" y="448.65" width="288" height="43.36"/><path class="cls-18" d="M166.84,199.82,163.3,99.24a95.56,95.56,0,0,0-37.61,7.47,86.7,86.7,0,0,0-42.52,38.82A80.45,80.45,0,0,0,75,199.29l39.42.53"/><path class="cls-18" d="M196.09,199.82l3.54-100.58a95.59,95.59,0,0,1,37.61,7.47,86.66,86.66,0,0,1,42.51,38.82,80.41,80.41,0,0,1,8.18,53.76l-39.42.53"/><rect class="cls-18" x="73.63" y="228.12" width="91.29" height="84.24"/><rect class="cls-18" x="197.12" y="228.12" width="90.16" height="84.24"/><ellipse class="cls-7" cx="89.89" cy="341.14" rx="13.08" ry="11.95"/><path class="cls-19" d="M291.21,498.73c-2,1.81.79,9.28,4.88,14.42,7,8.78,19.7,13.39,31.7,12,0,0,16.7-1.9,26.82-16.82,1.3-1.91,3.67-5.48,2.44-7.21-1.62-2.29-7.76,1.07-19.51,2.4a97.1,97.1,0,0,1-19.5,0c-8-.59-12-.89-17.07-2.4C295.08,499.39,292.51,497.58,291.21,498.73Z"/><path class="cls-19" d="M230.91,548.84c-6,.92-11.88,8.4-10.84,16.23,1.17,8.76,10.49,14.24,18.07,12.62,3.57-.77,7.54-3.28,9-7.21C250.6,561.48,240.22,547.44,230.91,548.84Z"/><path class="cls-19" d="M274.28,372.18c-4.29.55-11,2.08-16.26,7.21-9.11,8.92-7.6,22.72-12.65,23.44-3.4.48-4.31-5.72-10.84-9-7.76-3.91-19.44-1.71-27.11,5.41a26.35,26.35,0,0,0-7.22,27c3.39,10.39,13.45,16.68,21.68,18,7.52,1.23,12.8-1.77,16.26,1.8,2.72,2.81,1.7,7,1.81,10.82.32,11.33,10.62,19.6,19.87,27,20.05,16.11,45,18.78,56,19.83,13.2,1.26,42.5,4.05,70.46-12.62,6-3.6,31.95-19.06,30.72-34.25-.19-2.32-1.33-8.59,1.81-10.82,1.94-1.38,4.25-.3,7.22,0,9.8,1,18.18-7.33,19.88-9,2.1-2.08,10-9.92,9-21.63-.61-7.58-4.91-16.49-12.64-19.83-6.31-2.73-16.41-2.4-23.49,1.8-1.72,1-3.67,2.51-5.42,1.8-2.4-1-1.81-5-3.62-10.81-1.87-6-6-13-9-12.62-2.11.27-1.74,3.9-5.42,7.21a14.8,14.8,0,0,1-10.84,3.6c-7.28-.69-12.76-8.05-14.46-14.42-2.41-9,3.21-14.26,0-18-2.5-2.93-7.12-1.19-19.87,0-18.08,1.68-19.61-.81-27.11,1.8-2.42.84-.67.64-19.87,16.22-4.4,3.57-6.74,5.42-9,9-3.17,5-3.39,8.83-5.42,9s-3.23-3.25-7.22-9A83.5,83.5,0,0,0,274.28,372.18Z"/><path class="cls-20" d="M287.76,500.45c-5.2-1.77-12,6.53-24.7,17.52-23.27,20.09-33,20.3-34,29.65-1.13,11.25,11.7,23.75,20.08,22.91,3-.29,4.06-2.13,12.35-10.78C271,549.9,278,542.61,280,543.58c1.56.74-1.39,5.56-1.54,14.82-.07,4.24-.14,8.81,1.54,12.13,5.25,10.35,28.58,10.63,41.69,10.79,20.28.24,39.43.47,46.32-9.44,7.43-10.7-3.93-26.77,0-28.3,1.24-.48,3.47.69,18.52,14.82,9.43,8.85,10.77,10.47,13.9,10.79,9.12.92,21.37-10.45,20.07-20.22-.32-2.39-1.49-5-9.27-12.13-9-8.27-16.57-13.12-23.15-17.52-19.94-13.33-28.19-20.7-30.88-18.87-2,1.34,2.23,5.46,0,10.78-2.82,6.71-13.3,9.18-20.07,10.78a51.27,51.27,0,0,1-18.53,1.35c-4.64-.54-16.18-1.87-23.16-9.43C289.53,507.47,291.81,501.83,287.76,500.45Z"/><path class="cls-19" d="M284.32,611.87c-3.08.67-5.18,5.89-3.94,10,2.56,8.37,20.16,14.6,27.57,9.22,4-2.92,5.36-9.5,2.91-12-1.14-1.15-2.34-.68-8.51-1.7A51.92,51.92,0,0,1,292.26,615C287.16,613.14,286.25,611.45,284.32,611.87Z"/><path class="cls-19" d="M337.14,615.75c-2.51,2-2.54,8.57,0,12.44,5.24,8,23.15,7.2,27.87-1.78,2.56-4.87,1.44-12.56-1.64-14.21-1.42-.77-2.32.25-8.2,1.77a42,42,0,0,1-9.83,1.78C340.13,615.91,338.72,614.47,337.14,615.75Z"/><path class="cls-21" d="M310.42,630c5.16,3.08,6.07,16.31,0,21.64-1.9,1.65-3.79,1.95-16.27,1.8-20.3-.25-23.16-1.14-25.29-3.61-3-3.47-4.05-9.45-1.81-12.62s6-1.61,9-5.4c2.58-3.23,1.54-6.44,3.61-7.21,1.85-.7,3.11,1.71,7.23,3.6s7.89,1.84,14.45,1.8C308.1,629.92,308.74,629,310.42,630Z"/><path class="cls-22" d="M335.71,626.36c-3,1.47-2,10.27,0,16.22,1.15,3.36,1.81,5.33,3.62,7.21,5.37,5.63,14.61,4,27.1,1.81,8.58-1.52,11.1-3.25,12.65-5.41a11.94,11.94,0,0,0,1.8-9c-.18-.73-.61-2.12-5.42-7.21-4.45-4.71-6.72-7.08-9-7.21s-2.76,1.3-7.23,3.61c-3.12,1.61-8.76,4.53-14.45,3.6C339.3,629.08,337.8,625.33,335.71,626.36Z"/><path class="cls-19" d="M422.27,548.37c6.05.84,12,8.26,11,16.09-1.07,8.78-10.31,14.37-17.92,12.83-3.58-.72-7.57-3.19-9.11-7.11C402.73,561.23,413,547.06,422.27,548.37Z"/><path class="cls-23" d="M218.27,381.2c-2.35-2.36-6.79,1.09-10.85-1.81-3.31-2.36-4.11-7.37-3.61-10.81,1-7,7.85-10.94,10.84-12.62,7.09-4,10.68-2.08,16.26-5.41,6.4-3.81,7.22-9.6,10.84-16.22,6.91-12.62,18.56-18.37,36.14-27,9.75-4.81,19-9.39,32.53-10.82,11.64-1.23,25.51-2.7,36.13,5.41,9.73,7.43,10.15,17.86,19.88,19.83,4.54.92,5.78-1.09,12.65-1.8,14.76-1.55,26.79,5.85,28.91,7.21,10.27,6.56,14.19,15.66,19.87,28.84,5.86,13.6,12.66,36.49,5.42,41.46-1.91,1.32-3,.12-7.23,1.8-7.94,3.15-10.31,9.76-12.64,9-1.72-.55-.22-4.65-1.81-10.82-1.26-4.9-4.77-12.4-9-12.62-3.62-.18-4.26,5.05-10.85,7.21a15.66,15.66,0,0,1-9,0c-7.32-2.32-10.8-10.23-12.69-14.51-2.18-4.95-1.35-5.93-3.57-8.92-3.19-4.3-7.66-6-10.84-7.21a32.1,32.1,0,0,0-14.46-1.81c-5.67.56-7.3,2.17-21.68,9-15.07,7.18-15.3,6.37-18.07,9-5.67,5.41-6.3,10.33-12.65,12.62-1.36.49-5.94,2.14-9,0-3.32-2.3-2.06-7-5.42-9-2.15-1.31-4.69-.66-7.23,0-1.93.49-11.89,3.33-16.26,12.61-3.49,7.42-.49,12.75-3.61,14.43s-5.88-3.22-14.46-5.41c-9.23-2.36-13.84,1.18-16.26-1.8C212.63,396.32,222.06,385,218.27,381.2Z"/><path class="cls-21" d="M326.68,579.49c-3.08,2.8,0,8,1.8,23.43.91,7.92.35,8.81,1.81,10.82,5.71,7.83,21.73,4.37,25.3,3.6,4.62-1,8.74-1.94,10.84-5.4,1.41-2.33.76-3.92,0-12.62-.73-8.24-.53-11.11-1.81-18-1.33-7.21-2.41-8.76-3.61-9-1.57-.33-2.18,1.8-5.42,3.6-2.94,1.63-6.18,1.69-12.65,1.81-4,.07-4.23-.22-7.23,0C330.6,578.06,328.05,578.24,326.68,579.49Z"/><path class="cls-24" d="M285.12,570.48l0,.27s-.89,9.85-3.58,39.38h0a36.38,36.38,0,0,0,9,5.41c.82.34,18,7.25,25.3,0,2.7-2.68,1.15-4.41,3.61-18,2.12-11.74,4.17-15.4,1.81-18-2-2.27-4.66-.77-12.65-1.8a58.43,58.43,0,0,1-18.07-5.41s.95.3,5.42,1.8"/><path class="cls-7" d="M288.46,498.48c-3.44.84-4.69,11.88-2.32,21.13,1.38,5.37,2.82,11,7.48,13.61,0,0,5.45,3.07,31-7.15,0,0,7.58,7.94,15.27,9.9,7.27,1.86,17.17-1,21.37-7.31,5.06-7.64,2.31-21.11,2.31-21.13.59-5.08.1-5.78.1-5.78-1.24-1.79-5.54-2.07-7.72-.13s-.52,4.26-2.07,7.66c-2,4.36-7.15,6-11.72,7.48-5,1.61-9,1.66-13.54,1.69-7.59,0-12.13.06-17.34-2.24-2.19-1-5.9-3.93-13.33-9.86C290.79,499.36,289.72,498.17,288.46,498.48Z"/><ellipse class="cls-15" cx="369.46" cy="428.54" rx="13.34" ry="13.79"/><ellipse class="cls-7" cx="374.6" cy="421.82" rx="6.5" ry="6.72"/><ellipse class="cls-7" cx="363.35" cy="434.24" rx="4.15" ry="4.2"/><ellipse class="cls-15" cx="289.46" cy="430.54" rx="13.34" ry="13.79"/><ellipse class="cls-7" cx="294.6" cy="423.82" rx="6.5" ry="6.72"/><ellipse class="cls-7" cx="283.35" cy="436.24" rx="4.15" ry="4.2"/><ellipse class="cls-25" cx="387.89" cy="452.17" rx="6.78" ry="8.2"/><ellipse class="cls-25" cx="270.89" cy="452.17" rx="6.78" ry="8.2"/><path class="cls-9" d="M311,466.76c-.95,6.58,6.41,11,12.09,11.6a12,12,0,0,0,8.75-2.42c2.19-1.75,3.84-4.43,3.49-7.32-.11-.94-1.61-1-1.5,0,.66,5.52-5.7,8.62-10.36,8.27s-11.84-4.1-11-9.73c.13-.94-1.31-1.35-1.45-.4Z"/><polygon class="cls-18" points="480.04 95.53 476 299.13 658.09 299.13 658.09 91.33 480.04 95.53"/><rect class="cls-16" x="564.06" y="93.5" width="14.55" height="206"/><path class="cls-26" d="M555.74,93.51c3.06,15.62,1.35,27.29-.86,35.15-3.39,12.08-8.83,18.31-40.59,59.76-11.48,15-17.36,22.88-17.28,34.27.05,7.12,2.38,8.41,6.91,23.73,3.53,11.93,10.73,36.31,3.46,41.3-2.53,1.74-4.27-.59-13.82,0a47.4,47.4,0,0,0-5.95.74c-5,1-7.63,1.1-7.87,1-5.18-1.61-2-20-2.25-44.62-.1-9.66-.61-8.56-1-25.89-.23-9.48-.42-17.32-.17-27.91.18-7.3.57-16.32.87-22.85.36-8,.56-10.81.51-16.17-.06-5.94-.36-7.92-.51-15.47,0-1.71-.06-3.09-.06-4.33,0-4.67,0-7.6.06-9.73.14-13.13.22-19.7-.15-23a11.23,11.23,0,0,1,.24-3.64,8.39,8.39,0,0,1,1.63-3.22l.13-.14s4.66,0,9.55,0c2.36,0,2.06.06,4.35.06,3.31,0,6.63-.08,10-.06,15.55.1,17.63-.11,26.56,0C535.59,92.58,544.61,92.8,555.74,93.51Z"/><path class="cls-26" d="M583.37,92.5c-3,15.69-1.32,27.4.84,35.3,3.33,12.13,8.64,18.38,39.74,60,11.23,15,17,23,16.91,34.41-.05,7.15-2.33,8.44-6.76,23.83-3.45,12-10.51,36.45-3.38,41.47,2.47,1.74,4.17-.6,13.53,0,9.07.58,10.87,3,13.52,1.77,6.65-3.09,3.78-22.12,2.54-41.48-1.67-26,1.84-31.59.85-57.36-.3-7.64-.51-15.3-.85-22.94-.36-8-.55-10.85-.5-16.24.07-7.48.05-11.23.5-15.53A93.25,93.25,0,0,0,661,125.5c0-.47,0-2,0-4,0-1.7.09-1.68.12-3.2s0-2.64,0-5.1c0-1.3-.06-2.29-.07-2.7-.1-3.56-.15-5.33-.24-6.78A59.8,59.8,0,0,0,660,96.5c-.29-1.67-1.34-6.67-1-5,0,0-6.62-.09-13.06.12-3.56.12-6.06.29-7.54.39-6.86.46-13,.48-41.4.49Z"/><polygon class="cls-16" points="476 176.34 661 171.17 661 192.83 476 196.16 476 176.34"/><ellipse class="cls-7" cx="57.76" cy="740.59" rx="9.72" ry="47.91" transform="translate(-684.09 778.96) rotate(-88.5)"/><ellipse class="cls-27" cx="57.68" cy="739.39" rx="4.77" ry="27.38" transform="translate(-682.96 777.81) rotate(-88.51)"/><polygon class="cls-2" points="50.41 740.94 50.5 696.76 91.08 679.63 96.6 686.84 62.34 700.37 61.98 740.88 62.15 742.11 50.41 740.94"/><path class="cls-28" d="M90.27,679.55a7.68,7.68,0,0,1,3.25.32,5.5,5.5,0,0,1,3.53,4c.27.95.71,2.47-.54,3.57a4,4,0,0,1-2.62,1,5.26,5.26,0,0,1-3.8-2.19,8.28,8.28,0,0,1-1.27-2.55c-.68-1.78-.52-2.28-.45-2.46A3.47,3.47,0,0,1,90.27,679.55Z"/><polygon class="cls-28" points="75.86 686.07 78.14 693.98 67.44 698.57 63.14 691.29 75.86 686.07"/><polygon class="cls-28" points="61.94 726.55 50.35 719.61 50.2 731.98 62.11 736.62 61.94 726.55"/><polygon class="cls-28" points="62.17 708.63 50.57 701.69 50.42 714.07 62.33 718.71 62.17 708.63"/><path class="cls-29" d="M12.42,749.5c-.46.28-.2,1-.14,1.21.42,1.33,1.4,8.25,2.79,19.22l3.2,19.37,1.64,11,2.31,16.11,2.05,11.2q.45,3.4.88,6.81c1.69.5,4.21,1.19,7.32,1.81,6.8,1.36,11.94,1.49,20.71,1.67,6.55.13,10.89-.05,18.44-.36a74.05,74.05,0,0,0,11-1,51.79,51.79,0,0,0,11.26-3.38l.78-6.74,1.07-9.22,3.48-30,2.16-18.67,2.15-18.53c.14-.24.26-.53.08-.68-.4-.33-2,.28-2.57.48a66.59,66.59,0,0,1-7.66,1.22,116.9,116.9,0,0,1-14.3.69c-4.22,0-8.1.05-15,0-6.55,0-11.82-.09-17.54-.18-8.11-.14-10.32-.25-12.5-.4l-9.11-.73-7.45-.6-3.32-.27A2.4,2.4,0,0,0,12.42,749.5Z"/><path class="cls-30" d="M15.55,773c5.16.93,12.15,2,20.51,2.88a228.16,228.16,0,0,0,31.54,1.31A236.44,236.44,0,0,0,92.88,775c3.12-.45,5.73-.89,7.65-1.23l-.92,7.9L97.7,798.11l-1.13,17a1.75,1.75,0,0,1-.2,1.71c-.71.87-2.38,1-3.46,1.05-8,.48-12,.72-13.43.76-2.55.07-2.39.12-5,.21-5.35.18-9.81.08-18.31-.25-10.21-.4-15.31-.6-19.08-.92-6.47-.56-11.83-1.29-15.62-1.87l-1.36-9.91L18.8,795.35l-1.37-7.81-1-7.7Z"/><path class="cls-27" d="M10.37,740.46c-.68.11-.91,1.09-1.13,2a7.08,7.08,0,0,0-.09,2.71,7.64,7.64,0,0,0,.89,3.1c.52.82,1.42,1.8,5.83,3,7.06,1.88,5.7,1.34,7.93,1.75,1,.18,3.63.6,4.49.72a42,42,0,0,0,5.15.41h0c3.17.25,5.74.35,7.47.39,3.27.09,4.24,0,7.76.14,2.86.11,3.21.21,5.88.31,1.74.07,3.85.1,7.69.09,6.92,0,12.21-.3,22.79-.85h0a1,1,0,0,1,.54-.08c.31,0,15.17-.12,19.68-4.64,2.85-2.85,1.66-7.55.34-7.81-.66-.13-1.07.61-2.57,1.57-2.08,1.32-4.19,1.75-7.37,2.31-7.37,1.31-11.05,2-14.39,2.26-1.88.16-8,.66-18.86.62-6.42,0-12.62-.06-21-.79a187.7,187.7,0,0,1-19.88-3.1c-5.46-1.15-7.11-1.93-8.23-2.59C11.12,740.67,10.8,740.39,10.37,740.46Z"/><ellipse class="cls-7" cx="56.89" cy="789.47" rx="9.72" ry="47.91" transform="translate(-733.8 825.68) rotate(-88.5)"/><ellipse class="cls-27" cx="56.81" cy="788.27" rx="4.77" ry="27.38" transform="translate(-732.67 824.54) rotate(-88.51)"/><polygon class="cls-2" points="49.53 789.81 49.63 745.64 90.21 728.51 95.73 735.71 61.47 749.24 61.1 789.76 61.27 790.98 49.53 789.81"/><path class="cls-28" d="M89.4,728.43a7.52,7.52,0,0,1,3.25.32,5.49,5.49,0,0,1,3.53,4c.27.95.71,2.48-.54,3.58a4.11,4.11,0,0,1-2.63,1,5.24,5.24,0,0,1-3.79-2.19A8.28,8.28,0,0,1,88,732.52c-.69-1.78-.52-2.28-.45-2.47A3.38,3.38,0,0,1,89.4,728.43Z"/><polygon class="cls-28" points="74.99 734.94 77.27 742.86 66.56 747.45 62.27 740.17 74.99 734.94"/><polygon class="cls-28" points="61.07 775.42 49.48 768.48 49.32 780.86 61.24 785.5 61.07 775.42"/><polygon class="cls-28" points="61.3 757.51 49.7 750.57 49.55 762.94 61.46 767.58 61.3 757.51"/><path class="cls-29" d="M11.55,798.38c-.46.27-.2,1-.14,1.21.42,1.32,1.4,8.25,2.79,19.22l3.2,19.36L19,849.22l2.31,16.11,2,11.19c.29,2.27.59,4.54.88,6.81,1.69.51,4.2,1.2,7.32,1.82,6.8,1.35,11.94,1.48,20.71,1.66,6.55.14,10.89,0,18.44-.35a74.05,74.05,0,0,0,11-1A51.16,51.16,0,0,0,93,882.12l.78-6.73,1.07-9.23,3.47-30,2.17-18.67L102.63,799c.13-.24.26-.54.08-.68-.4-.33-2,.28-2.57.48A66.52,66.52,0,0,1,92.47,800a116.58,116.58,0,0,1-14.29.69c-4.22,0-8.1.05-15.05,0-6.55,0-11.83-.09-17.54-.19-8.11-.13-10.32-.24-12.5-.39L24,799.38l-7.46-.6-3.31-.27A2.4,2.4,0,0,0,11.55,798.38Z"/><path class="cls-30" d="M14.68,821.91c5.16.93,12.15,2,20.51,2.87a226.23,226.23,0,0,0,31.54,1.32A234.75,234.75,0,0,0,92,823.84c3.12-.44,5.73-.88,7.64-1.22l-.91,7.89L96.83,847,95.7,864a1.79,1.79,0,0,1-.2,1.72c-.71.87-2.38,1-3.46,1.05-8,.48-12,.72-13.43.76-2.55.07-2.39.12-5,.21-5.35.17-9.81.08-18.31-.25-10.21-.4-15.31-.6-19.08-.93-6.47-.55-11.83-1.28-15.62-1.87l-1.36-9.91-1.28-10.52-1.37-7.8-1-7.7Z"/><path class="cls-27" d="M9.5,789.34c-.68.11-.91,1.09-1.13,2a6.94,6.94,0,0,0-.09,2.72,7.64,7.64,0,0,0,.89,3.1c.52.81,1.42,1.8,5.83,3,7.06,1.87,5.69,1.34,7.93,1.75,1,.18,3.63.59,4.49.72a42,42,0,0,0,5.15.41h0c3.16.24,5.74.34,7.47.39,3.26.09,4.24,0,7.76.14,2.86.11,3.21.21,5.88.31,1.74.06,3.85.09,7.68.09,6.93,0,12.22-.3,22.8-.85h0a1,1,0,0,1,.54-.08c.3,0,15.17-.12,19.68-4.64,2.85-2.85,1.66-7.55.34-7.81-.66-.13-1.07.61-2.57,1.57-2.08,1.32-4.19,1.75-7.37,2.31-7.37,1.31-11,2-14.4,2.25-1.87.17-8,.67-18.85.62-6.42,0-12.62,0-21-.79a189.06,189.06,0,0,1-19.88-3.09c-5.46-1.15-7.11-1.93-8.23-2.6C10.24,789.54,9.92,789.27,9.5,789.34Z"/><ellipse class="cls-7" cx="53.89" cy="844.47" rx="9.72" ry="47.91" transform="translate(-791.7 876.25) rotate(-88.5)"/><ellipse class="cls-27" cx="53.81" cy="843.27" rx="4.77" ry="27.38" transform="translate(-790.57 875.11) rotate(-88.51)"/><polygon class="cls-2" points="46.53 844.81 46.63 800.64 87.21 783.51 92.73 790.71 58.47 804.24 58.1 844.76 58.27 845.98 46.53 844.81"/><path class="cls-28" d="M86.4,783.43a7.52,7.52,0,0,1,3.25.32,5.49,5.49,0,0,1,3.53,4c.27.95.71,2.48-.54,3.58a4.11,4.11,0,0,1-2.63,1,5.24,5.24,0,0,1-3.79-2.19A8.28,8.28,0,0,1,85,787.52c-.69-1.78-.52-2.28-.45-2.47A3.38,3.38,0,0,1,86.4,783.43Z"/><polygon class="cls-28" points="71.99 789.94 74.27 797.86 63.56 802.45 59.27 795.17 71.99 789.94"/><polygon class="cls-28" points="58.07 830.42 46.48 823.48 46.32 835.86 58.24 840.5 58.07 830.42"/><polygon class="cls-28" points="58.3 812.51 46.7 805.57 46.55 817.94 58.46 822.58 58.3 812.51"/><path class="cls-29" d="M8.55,853.38c-.46.27-.2,1-.14,1.21.42,1.32,1.4,8.25,2.79,19.22l3.2,19.36L16,904.22l2.31,16.11,2,11.19c.29,2.27.59,4.54.88,6.81,1.69.51,4.2,1.2,7.32,1.82,6.8,1.35,11.94,1.48,20.71,1.66,6.55.14,10.89,0,18.44-.35a74.05,74.05,0,0,0,11-1A51.16,51.16,0,0,0,90,937.12l.78-6.73,1.07-9.23,3.47-30,2.17-18.67L99.63,854c.13-.24.26-.54.08-.68-.4-.33-2,.28-2.57.48A66.52,66.52,0,0,1,89.47,855a116.58,116.58,0,0,1-14.29.69c-4.22,0-8.1.05-15.05,0-6.55,0-11.83-.09-17.54-.19-8.11-.13-10.32-.24-12.5-.39L21,854.38l-7.46-.6-3.31-.27A2.4,2.4,0,0,0,8.55,853.38Z"/><path class="cls-30" d="M11.68,876.91c5.16.93,12.15,2,20.51,2.87a226.23,226.23,0,0,0,31.54,1.32A234.75,234.75,0,0,0,89,878.84c3.12-.44,5.73-.88,7.64-1.22l-.91,7.89L93.83,902,92.7,919a1.79,1.79,0,0,1-.2,1.72c-.71.87-2.38,1-3.46,1.05-8,.48-12,.72-13.43.76-2.55.07-2.39.12-5,.21-5.35.17-9.81.08-18.31-.25-10.21-.4-15.31-.6-19.08-.93-6.47-.55-11.83-1.28-15.62-1.87l-1.36-9.91-1.28-10.52-1.37-7.8-1-7.7Z"/><path class="cls-27" d="M6.5,844.34c-.68.11-.91,1.09-1.13,2a6.94,6.94,0,0,0-.09,2.72,7.64,7.64,0,0,0,.89,3.1c.52.81,1.42,1.8,5.83,3,7.06,1.87,5.69,1.34,7.93,1.75,1,.18,3.63.59,4.49.72a42,42,0,0,0,5.15.41h0c3.16.24,5.74.34,7.47.39,3.26.09,4.24,0,7.76.14,2.86.11,3.21.21,5.88.31,1.74.06,3.85.09,7.68.09,6.93,0,12.22-.3,22.8-.85h0a1,1,0,0,1,.54-.08c.3,0,15.17-.12,19.68-4.64,2.85-2.85,1.66-7.55.34-7.81-.66-.13-1.07.61-2.57,1.57-2.08,1.32-4.19,1.75-7.37,2.31-7.37,1.31-11,2-14.4,2.25-1.87.17-8,.67-18.85.62-6.42,0-12.62,0-21-.79a189.06,189.06,0,0,1-19.88-3.09c-5.46-1.15-7.11-1.93-8.23-2.6C7.24,844.54,6.92,844.27,6.5,844.34Z"/><polygon class="cls-31" points="118.44 743.59 122.77 772.8 127.1 807.61 130.81 827.5 186.4 827.5 190.82 793.31 195.15 760.37 197.51 743.59 118.44 743.59"/><path class="cls-27" d="M112.88,746.07c.33.34.82.12,2.47,0h73c2.48,0,5-.18,7.43,0,4.24.32,5.94,1,6.8,0,1.1-1.29-.21-4.1-.62-5a12.64,12.64,0,0,0-3.71-4.35,11.1,11.1,0,0,0-3.71-2.49c-1.91-.66-3.21-.32-3.71-1.24-.32-.58.11-.9,0-2.48a5.65,5.65,0,0,0-.62-2.49,4.69,4.69,0,0,0-2.47-1.87c-1.37-.56-2.44-.6-5.57-.62h-4.95c-1.86,0-3.71,0-5.57,0h-39a21.06,21.06,0,0,0-3.09,0,5.8,5.8,0,0,0-2.48.62,5.49,5.49,0,0,0-1.85,1.87,6.82,6.82,0,0,0-.62,1.24,5.83,5.83,0,0,0-.62,2.49c0,.39.07.45,0,.62-.21.48-2.47.62-2.47.62-2.06,0-3.58,1.4-5,2.49a6,6,0,0,0-1.24,1.24,7,7,0,0,0-1,2c-.19.61-.16.71-.43,1.86-.11.45-.25,1-.47,1.72C112.79,744.68,112.42,745.62,112.88,746.07Z"/><path class="cls-32" d="M126.49,726.18a4,4,0,0,0-.74.58,4.09,4.09,0,0,0-1.12,1.91c-.27,1,0,1.36,0,3.11,0,1-.12,1,0,1.24.47.88,2.26.71,4.33.62,1.85-.07,3.71.11,5.57,0h53.81c1.47.14,2,.37,2.48,0,.88-.71.35-2.79,0-3.73-.12-.31-1.19-3-3.71-3.73-.72-.2-1-.07-3.1,0-1.44.06-2.88,0-4.33,0H135.15c-.84,0-.92,0-1.24,0a12.45,12.45,0,0,1-1.53-.21l-2-.28a7.43,7.43,0,0,0-2-.13,4.68,4.68,0,0,0-1.85.62Z"/><polygon class="cls-31" points="118.23 790.13 122.56 819.34 126.89 854.15 130.6 874.04 186.18 874.04 190.61 839.85 194.94 806.91 197.3 790.13 118.23 790.13"/><path class="cls-27" d="M112.66,792.61c.34.34.83.12,2.48,0h73c2.48,0,5-.18,7.42,0,4.24.32,5.94,1,6.81,0,1.1-1.29-.21-4.1-.62-5a12.64,12.64,0,0,0-3.71-4.35,11,11,0,0,0-3.71-2.49c-1.91-.66-3.21-.32-3.71-1.24-.32-.59.11-.9,0-2.49a5.64,5.64,0,0,0-.62-2.48,4.71,4.71,0,0,0-2.48-1.87c-1.36-.56-2.43-.6-5.56-.62H132.46a19.73,19.73,0,0,0-3.09,0,5.8,5.8,0,0,0-2.48.62,5.64,5.64,0,0,0-1.86,1.87,7.43,7.43,0,0,0-.61,1.24,5.56,5.56,0,0,0-.62,2.49c0,.39.07.45,0,.62-.22.48-2.48.62-2.48.62-2.06,0-3.57,1.39-4.95,2.49a6.11,6.11,0,0,0-1.23,1.24,6.7,6.7,0,0,0-1,2,18.38,18.38,0,0,0-.43,1.86c-.11.44-.25,1-.47,1.72C112.58,791.22,112.2,792.15,112.66,792.61Z"/><path class="cls-32" d="M126.27,772.72a4.35,4.35,0,0,0-.73.57,4.1,4.1,0,0,0-.62.77,4.26,4.26,0,0,0-.5,1.15c-.28,1,0,1.36,0,3.11,0,1-.12,1,0,1.24.46.88,2.26.71,4.33.62,1.85-.08,3.71.11,5.56,0h53.82c1.47.14,2,.37,2.48,0,.88-.71.35-2.79,0-3.73-.12-.31-1.19-3-3.72-3.73-.71-.2-1-.08-3.09,0-1.44,0-2.89,0-4.33,0H134.93c-.83,0-.91,0-1.23,0a12.57,12.57,0,0,1-1.54-.21l-2-.28a7,7,0,0,0-2-.13,4.74,4.74,0,0,0-.92.2A5.59,5.59,0,0,0,126.27,772.72Z"/><polygon class="cls-31" points="115.23 853.13 119.56 882.34 123.89 917.15 127.6 937.04 183.18 937.04 187.61 902.85 191.94 869.91 194.3 853.13 115.23 853.13"/><path class="cls-27" d="M109.66,855.61c.34.34.83.12,2.48,0h73c2.48,0,5-.18,7.42,0,4.24.32,5.94,1,6.81,0,1.1-1.29-.21-4.1-.62-5a12.64,12.64,0,0,0-3.71-4.35,11,11,0,0,0-3.71-2.49c-1.91-.66-3.21-.32-3.71-1.24-.32-.59.11-.9,0-2.49a5.64,5.64,0,0,0-.62-2.48,4.71,4.71,0,0,0-2.48-1.87c-1.36-.56-2.43-.6-5.56-.62H129.46a19.73,19.73,0,0,0-3.09,0,5.8,5.8,0,0,0-2.48.62,5.64,5.64,0,0,0-1.86,1.87,7.43,7.43,0,0,0-.61,1.24,5.56,5.56,0,0,0-.62,2.49c0,.39.07.45,0,.62-.22.48-2.48.62-2.48.62-2.06,0-3.57,1.39-4.95,2.49a6.11,6.11,0,0,0-1.23,1.24,6.7,6.7,0,0,0-1,2,18.38,18.38,0,0,0-.43,1.86c-.11.44-.25,1-.47,1.72C109.58,854.22,109.2,855.15,109.66,855.61Z"/><path class="cls-32" d="M123.27,835.72a4.35,4.35,0,0,0-.73.57,4.1,4.1,0,0,0-.62.77,4.26,4.26,0,0,0-.5,1.15c-.28,1,0,1.36,0,3.11,0,1-.12,1,0,1.24.46.88,2.26.71,4.33.62,1.85-.08,3.71.11,5.56,0h53.82c1.47.14,2,.37,2.48,0,.88-.71.35-2.79,0-3.73-.12-.31-1.19-3-3.72-3.73-.71-.2-1-.08-3.09,0-1.44,0-2.89,0-4.33,0H131.93c-.83,0-.91,0-1.23,0a12.57,12.57,0,0,1-1.54-.21l-2-.28a7,7,0,0,0-2-.13,4.74,4.74,0,0,0-.92.2A5.59,5.59,0,0,0,123.27,835.72Z"/><ellipse class="cls-31" cx="1521" cy="326.5" rx="146" ry="65"/><polygon class="cls-31" points="1413.55 360.5 1384 534.5 1390.95 534.5 1430.89 360.5 1413.55 360.5"/><polygon class="cls-31" points="1439.11 373.5 1423 505.96 1431.05 507.92 1456.4 373.5 1439.11 373.5"/><polygon class="cls-31" points="1577 378.5 1608.64 548.5 1618.35 548.5 1597.68 378.5 1577 378.5"/><polygon class="cls-31" points="1625.29 359.5 1647 483.5 1640.67 483.5 1609 362.32 1625.29 359.5"/><ellipse class="cls-2" cx="1442.42" cy="323.77" rx="47.58" ry="24.27"/><ellipse class="cls-2" cx="1597.34" cy="326.04" rx="47.58" ry="24.27"/><path class="cls-5" d="M1411.26,321.59a5.51,5.51,0,0,1-2.58-1.41,7.45,7.45,0,0,1-1.88-4.6,7.76,7.76,0,0,1,.25-4,6.94,6.94,0,0,1,3.53-3.56c1.78-.94,3.69-1.26,6.7-1.12,4.37.2,5.7,1.12,9.9,1.82a34,34,0,0,0,10.08.35c4.82-.65,4.65-2,11.11-3.59a27.84,27.84,0,0,1,11.75-.69c4.56.79,5.82,2.34,6.15,2.77,2.25,3,1,7,.94,7.37-.58,1.85-2,3.89-2.74,3.62-.55-.19.27-2-.74-3.93a7.69,7.69,0,0,0-2.49-2.58,8,8,0,0,0-2.28-1.33,7.57,7.57,0,0,0-4,0,42.79,42.79,0,0,0-4.74,1c-7.84,2.53-8.34,3.1-11.48,3.82-3.91.89-6.69,1.53-10.1.49-2.28-.69-2.93-1.56-5.8-2.17-2.16-.45-4.55-1-6.79.09C1412.24,315.76,1411.39,320.78,1411.26,321.59Z"/><path class="cls-6" d="M1411.85,316.8a8.11,8.11,0,0,1,2.49-3.23c.61-.45,2.85-2,9.19-.91,5.37.9,5.4,2.27,9.41,2.61a22.42,22.42,0,0,0,9-1.32c5-1.54,5.13-2.91,9.31-3.8,2.73-.59,6.09-1.3,9.34.68a10.2,10.2,0,0,1,4.56,6.17c.93,4.46-2.21,8.1-3.77,9.92-3.29,3.82-7.14,5.11-11.36,6.46a43.75,43.75,0,0,1-18.37,1.82c-4.9-.59-10.71-1.3-15.59-5.81a13.56,13.56,0,0,1-4.59-7.55A9.21,9.21,0,0,1,1411.85,316.8Z"/><ellipse class="cls-7" cx="1445.23" cy="323.57" rx="0.34" ry="0.39" transform="translate(-7.53 611.43) rotate(-23.83)"/><ellipse class="cls-8" cx="1430.48" cy="326.58" rx="1.96" ry="0.51" transform="translate(-15.19 75.63) rotate(-3.01)"/><path class="cls-9" d="M1431.65,325.1a3.76,3.76,0,0,1,0-.75s0-.07,0-.1,0-.07,0,0a.4.4,0,0,1,0-.15,1.17,1.17,0,0,1,0-.2.66.66,0,0,1,0-.15c0,.1,0,.12,0,0l0-.08.07-.11,0,0,.06-.07.09-.09,0,0,.07-.05s.1,0,.11-.06-.13.05-.06,0l.09,0,.08,0h-.09a.76.76,0,0,0,.15,0h-.07l.07,0c.17.05-.12-.08,0,0l.14.08s0,0,0,0l.07.06.12.12,0,.06c.05.06,0,0,0,0a1.7,1.7,0,0,1,.1.14,2,2,0,0,1,.17.32c.08.18,0-.1,0,0a1.22,1.22,0,0,0,.07.17c.08.24.16.48.25.72a.77.77,0,0,0,.92.53.76.76,0,0,0,.52-.93c-.32-.92-.64-2.06-1.6-2.53a1.83,1.83,0,0,0-1.7,0,2.29,2.29,0,0,0-1,1.24,3.77,3.77,0,0,0-.17,1.7.75.75,0,0,0,1.5,0Z"/><path class="cls-9" d="M1435.67,326.52a2.23,2.23,0,0,0,1,1.44,2.71,2.71,0,0,0,1.68.46,2,2,0,0,0,1.6-.92,1.94,1.94,0,0,0,.21-1.67.82.82,0,0,0-.35-.45.78.78,0,0,0-.58-.07.76.76,0,0,0-.52.92.56.56,0,0,1,0,.12.29.29,0,0,1,0,.09v-.12c0,.08,0,.17,0,.25,0-.21,0-.1,0,0l0,.12c0-.16,0-.1,0,0l-.06.11,0,0c0,.06,0,0,0-.06l-.09.09,0,0c-.06.05,0,0,.06,0a.47.47,0,0,0-.09.06l-.06,0h0l-.07,0-.08,0h-.2s-.27-.06-.3-.07a.78.78,0,0,0-.14-.05c.09,0,.11.05.06,0l-.07,0a1.88,1.88,0,0,1-.24-.14.1.1,0,0,1,0,0c-.05,0,0,0,.06.05s-.09-.08-.11-.09l-.09-.1c-.1-.1.08.13,0,0l-.07-.12s-.07-.15,0,0,0,0,0-.06l0-.16a.76.76,0,0,0-.34-.45.77.77,0,0,0-1,.27.89.89,0,0,0-.07.58Z"/><path class="cls-9" d="M1432.19,318.49a6,6,0,0,0-2.19.14,2.93,2.93,0,0,0-1.66,1.25.76.76,0,0,0,.27,1,.77.77,0,0,0,1-.27s.09-.16.11-.16l0,0,.07-.07a.86.86,0,0,1,.14-.13l0,0,.08-.06a2.69,2.69,0,0,1,.29-.16l0,0,.09,0,.19-.06.2-.05.11,0h0a.53.53,0,0,1,.18,0l.24,0c.33,0,.66,0,1,0a.75.75,0,0,0,0-1.5Z"/><path class="cls-9" d="M1443.37,319.51l.11-.05a1.57,1.57,0,0,1,.23-.09l.48-.14s.3-.07.11,0a.61.61,0,0,1,.19,0h.31a2.49,2.49,0,0,1,.39.1c.17.05-.14-.07,0,0l.19.1a.62.62,0,0,1,.17.11c-.08-.06-.09-.07,0,0l.07.07s.14.11.15.15-.07-.09,0,0l.06.09a.75.75,0,1,0,1.3-.76,2.82,2.82,0,0,0-1.88-1.27,4.39,4.39,0,0,0-2.59.46.76.76,0,0,0-.27,1,.78.78,0,0,0,1,.27Z"/><ellipse class="cls-10" cx="1444.74" cy="322.71" rx="1.77" ry="2.39" transform="translate(14.24 703.61) rotate(-27.5)"/><ellipse class="cls-7" cx="1444.01" cy="322.32" rx="0.77" ry="0.84" transform="translate(-26.84 482.49) rotate(-18.8)"/><ellipse class="cls-8" cx="1446.86" cy="325.08" rx="1.96" ry="0.51" transform="translate(-15.08 76.49) rotate(-3.01)"/><path class="cls-5" d="M1409,309.58c-.12-.73-1.29-1.18-2-1.28-1-.14-2.15.18-2.31.87-.12.51.41.95.21,1.27s-.84-.09-1.36.28a1.36,1.36,0,0,0-.47,1.41c.27.86,1.6.93,1.63,1.52,0,.35-.44.4-.51.88A1.76,1.76,0,0,0,1405,316c.87.63,2.21.48,2.48-.13.16-.37-.19-.63-.34-1.47a4.41,4.41,0,0,1,.37-2.48C1408.14,310.41,1409.11,310.28,1409,309.58Z"/><path class="cls-5" d="M1466.72,314.67c.33.67,1.56.72,2.26.58.92-.19,2-.89,1.91-1.61,0-.53-.67-.78-.57-1.15s.81-.2,1.19-.73a1.46,1.46,0,0,0,0-1.52c-.5-.74-1.77-.37-2-.92-.12-.33.3-.54.23-1a1.69,1.69,0,0,0-1.2-1.12c-1-.32-2.21.27-2.29.94,0,.41.37.55.75,1.32a4.6,4.6,0,0,1,.37,2.51C1467.28,313.59,1466.41,314,1466.72,314.67Z"/><path class="cls-6" d="M1411.12,307.88c-.2-.52,1.11-1.56,1.88-2.06,2.41-1.56,5.25-1.54,8.67-1,6.14.93,6.11,2.22,10.24,2.5a23.12,23.12,0,0,0,9.23-1.39c3.55-1.22,3.6-2.14,7.33-3.28,2.57-.8,5-1.51,8-.88,3.8.8,6.73,3.37,6.59,3.72s-1.42-.56-3.58-.83c-1.55-.19-2.7,0-6.19.86a78.24,78.24,0,0,0-8.62,2.42c-3.18,1.18-3.28,1.57-5.46,2.09a21.63,21.63,0,0,1-6.13.53,23.59,23.59,0,0,1-4.57-.75c-2.23-.57-2.33-.88-4.44-1.41a18.79,18.79,0,0,0-5.07-.72c-1.51,0-2,.28-5.14.47C1411.87,308.24,1411.25,308.19,1411.12,307.88Z"/><path class="cls-5" d="M1571.59,321.93a5.55,5.55,0,0,1-2.58-1.42,7.39,7.39,0,0,1-1.88-4.6,7.65,7.65,0,0,1,.25-4,6.88,6.88,0,0,1,3.53-3.55c1.78-.95,3.69-1.27,6.69-1.13,4.38.2,5.71,1.13,9.91,1.82a33.64,33.64,0,0,0,10.07.35c4.83-.65,4.66-2,11.11-3.59a27.89,27.89,0,0,1,11.76-.69c4.56.79,5.82,2.34,6.15,2.78,2.25,3,1.05,7,.93,7.37-.57,1.84-1.94,3.88-2.73,3.61-.55-.19.27-2-.74-3.93a7.66,7.66,0,0,0-2.49-2.57,7.57,7.57,0,0,0-2.28-1.33c-1.16-.4-2.14-.31-4,0a39.76,39.76,0,0,0-4.74,1c-7.84,2.52-8.34,3.09-11.48,3.81-3.91.9-6.7,1.53-10.1.49-2.28-.69-2.93-1.55-5.8-2.16-2.16-.46-4.55-1-6.79.08C1572.57,316.09,1571.72,321.11,1571.59,321.93Z"/><path class="cls-6" d="M1572.18,317.13a8,8,0,0,1,2.49-3.23c.61-.45,2.85-2,9.19-.9,5.37.9,5.4,2.26,9.41,2.6a22.45,22.45,0,0,0,9-1.32c5-1.54,5.13-2.91,9.31-3.8,2.73-.58,6.09-1.3,9.33.69a10.09,10.09,0,0,1,4.56,6.17c.94,4.45-2.2,8.1-3.76,9.91-3.3,3.83-7.15,5.12-11.36,6.47a43.69,43.69,0,0,1-18.37,1.81c-4.9-.59-10.71-1.3-15.59-5.8-1.28-1.19-3.94-3.71-4.59-7.56A9.11,9.11,0,0,1,1572.18,317.13Z"/><ellipse class="cls-7" cx="1605.56" cy="323.9" rx="0.34" ry="0.39" transform="translate(6 676.23) rotate(-23.83)"/><ellipse class="cls-8" cx="1590.81" cy="326.91" rx="1.96" ry="0.51" transform="translate(-14.98 84.06) rotate(-3.01)"/><path class="cls-9" d="M1592,325.43a3.68,3.68,0,0,1,0-.74.41.41,0,0,1,0-.11c0-.08,0-.07,0,0a.44.44,0,0,1,0-.15,1.46,1.46,0,0,1,0-.2s0-.13,0-.14,0,.11,0,0a.36.36,0,0,1,0-.09l.07-.11,0,0,.06-.06.09-.1,0,0,.08-.05s.1,0,.11-.07l-.06,0,.08,0,.09,0-.1,0h.09l.06,0c.18.05-.11-.07,0,0l.14.08-.06,0,.08.06.11.11,0,.06,0,0a1.7,1.7,0,0,1,.1.14c.06.11.12.22.17.33s0-.11,0,0l.06.17c.09.24.17.48.26.73a.76.76,0,0,0,.92.52.75.75,0,0,0,.52-.92c-.32-.93-.64-2.06-1.6-2.53a1.77,1.77,0,0,0-1.7,0,2.3,2.3,0,0,0-1,1.23,3.91,3.91,0,0,0-.16,1.7.75.75,0,1,0,1.5,0Z"/><path class="cls-9" d="M1596,326.85a2.17,2.17,0,0,0,1,1.44,2.72,2.72,0,0,0,1.68.47,2,2,0,0,0,1.6-.93,1.93,1.93,0,0,0,.21-1.67.85.85,0,0,0-.35-.44.74.74,0,0,0-.58-.08.76.76,0,0,0-.52.92.56.56,0,0,1,0,.12s0,.06,0,.09v-.12c0,.08,0,.17,0,.26,0-.21,0-.11,0,0s0,.08,0,.12c0-.16,0-.1,0,0l-.06.11,0,0c0,.06,0,.05,0-.05s-.06.06-.08.09l0,0c-.06.05,0,0,.06,0l-.09.06-.06,0h0c.06,0,.06,0,0,0l-.07,0-.07,0h-.3l.1,0a1.35,1.35,0,0,1-.3-.08l-.15-.05q.15.06.06,0l-.07,0a1.42,1.42,0,0,1-.23-.14l-.06,0,.07.05a.87.87,0,0,0-.11-.09l-.09-.1c-.1-.1.08.14,0,0l-.07-.12s-.07-.15,0,0l0-.06,0-.16a.72.72,0,0,0-.34-.44.74.74,0,0,0-.58-.08.75.75,0,0,0-.45.35.86.86,0,0,0-.07.57Z"/><path class="cls-9" d="M1592.52,318.82a6,6,0,0,0-2.2.14,2.92,2.92,0,0,0-1.65,1.25.75.75,0,0,0,1.3.75s.09-.16.11-.16l0,0,.07-.07.14-.13,0,0,.08-.05.29-.17,0,0,.09,0,.19-.06.19,0,.12,0c.09,0,.08,0,0,0a.62.62,0,0,1,.19,0h.24c.33,0,.66,0,1,0a.75.75,0,0,0,0-1.5Z"/><path class="cls-9" d="M1603.7,319.84l.1,0,.24-.09a4.27,4.27,0,0,1,.48-.13l.11,0h.55c.08,0,.06,0,0,0a2.49,2.49,0,0,1,.39.1c.17.05-.14-.07,0,0l.18.09a.78.78,0,0,1,.18.11l0,0,.07.07s.14.11.14.16l0,0,.06.09a.75.75,0,1,0,1.3-.76,2.82,2.82,0,0,0-1.88-1.27,4.4,4.4,0,0,0-2.59.47.74.74,0,0,0-.27,1,.77.77,0,0,0,1,.27Z"/><ellipse class="cls-10" cx="1605.07" cy="323.04" rx="1.77" ry="2.39" transform="translate(32.2 777.68) rotate(-27.5)"/><ellipse class="cls-7" cx="1604.34" cy="322.66" rx="0.77" ry="0.84" transform="translate(-18.4 534.17) rotate(-18.8)"/><ellipse class="cls-8" cx="1607.19" cy="325.41" rx="1.96" ry="0.51" transform="translate(-14.88 84.92) rotate(-3.01)"/><path class="cls-5" d="M1569.32,309.91c-.12-.73-1.29-1.18-2-1.28-1-.13-2.15.19-2.31.87-.12.51.41.95.21,1.27s-.85-.09-1.37.28a1.39,1.39,0,0,0-.46,1.42c.27.85,1.6.92,1.63,1.51,0,.35-.44.4-.51.88a1.76,1.76,0,0,0,.83,1.46c.87.62,2.21.47,2.48-.13.16-.37-.19-.64-.34-1.48a4.43,4.43,0,0,1,.37-2.48C1568.46,310.74,1569.43,310.61,1569.32,309.91Z"/><path class="cls-5" d="M1627.05,315c.33.67,1.55.71,2.26.57.92-.19,2-.89,1.91-1.6,0-.54-.67-.79-.58-1.16s.82-.2,1.2-.73a1.46,1.46,0,0,0,0-1.52c-.5-.74-1.77-.36-2-.92-.12-.33.3-.54.22-1s-.72-1-1.2-1.13c-1-.32-2.21.27-2.28.95,0,.4.37.54.75,1.31a4.62,4.62,0,0,1,.37,2.52C1627.61,313.92,1626.74,314.37,1627.05,315Z"/><path class="cls-6" d="M1571.45,308.21c-.2-.52,1.1-1.55,1.88-2,2.41-1.57,5.25-1.55,8.67-1,6.14.92,6.11,2.22,10.24,2.5a23.49,23.49,0,0,0,9.23-1.39c3.55-1.23,3.6-2.15,7.33-3.29,2.57-.79,5-1.5,8-.88,3.8.8,6.72,3.37,6.59,3.72s-1.43-.56-3.58-.82c-1.55-.19-2.7,0-6.2.85a80.94,80.94,0,0,0-8.61,2.42c-3.18,1.19-3.28,1.58-5.47,2.09a21.17,21.17,0,0,1-6.12.53,23.59,23.59,0,0,1-4.57-.75c-2.23-.56-2.33-.88-4.44-1.4a18,18,0,0,0-5.07-.72c-1.51,0-2,.27-5.14.46C1572.2,308.57,1571.57,308.52,1571.45,308.21Z"/></svg>